<svg width="32" height="32" viewBox="0 0 32 32" fill="none" xmlns="http://www.w3.org/2000/svg">
<path fill-rule="evenodd" clip-rule="evenodd" d="M15.9 21.4004C15.7333 21.4004 15.5833 21.3671 15.45 21.3004L8.95 17.8504V25.2503C9.7 25.6503 11.7 26.4004 15.95 26.4004C20.1 26.4004 22.2 25.7004 23 25.3004V17.8004L16.4 21.3004C16.2333 21.3671 16.0667 21.4004 15.9 21.4004ZM0.5 13.3504C0.2 13.1504 0 12.8504 0 12.4504C0 12.1004 0.15 11.7504 0.5 11.6004L15.45 3.55039C15.75 3.35039 16.1 3.35039 16.4 3.55039L31.45 11.6004C31.8 11.7504 32 12.1004 32 12.4504C32 12.8504 31.8 13.1504 31.45 13.3504L30.95 13.6004V21.6504C31.55 22.0004 31.95 22.6504 31.95 23.4004C31.95 24.5004 31.05 25.4004 29.95 25.4004C28.85 25.4004 27.95 24.5004 27.95 23.4004C27.95 22.6504 28.35 22.0004 28.95 21.6504V14.6504L24.9 16.8004C24.9667 16.9337 25 17.067 25 17.2004V25.9004C25 26.2004 24.85 26.4504 24.6 26.6504C24.4 26.8504 22.25 28.4004 15.95 28.4004C9.55 28.4004 7.5 26.7504 7.3 26.5504C7.05 26.3504 6.95 26.1004 6.95 25.8004V17.3504C6.95 17.1504 6.98333 16.9837 7.05 16.8504L0.5 13.3504ZM3.1 12.4504L15.95 19.3004L28.9 12.4504L15.95 5.55039L3.1 12.4504Z" fill="black"/>
</svg>
