<svg width="20" height="21" viewBox="0 0 20 21" fill="none" xmlns="http://www.w3.org/2000/svg">
<path fill-rule="evenodd" clip-rule="evenodd" d="M18.75 20.5H1.25C0.5625 20.5 0 19.9375 0 19.25V3.625C0 2.9375 0.5625 2.375 1.25 2.375H6.25V1.125C6.25 0.78125 6.53125 0.5 6.875 0.5C7.21875 0.5 7.5 0.78125 7.5 1.125V2.375H12.5V1.125C12.5 0.78125 12.7812 0.5 13.125 0.5C13.4688 0.5 13.75 0.78125 13.75 1.125V2.375H18.75C19.4375 2.375 20 2.9375 20 3.625V19.25C20 19.9375 19.4375 20.5 18.75 20.5ZM18.75 3.625H13.75V4.25C13.75 4.59375 13.4688 4.875 13.125 4.875C12.7812 4.875 12.5 4.59375 12.5 4.25V3.625H7.5V4.25C7.5 4.59375 7.21875 4.875 6.875 4.875C6.53125 4.875 6.25 4.59375 6.25 4.25V3.625H1.25V19.25H18.75V3.625ZM14.375 8H15.625C15.9688 8 16.25 8.28125 16.25 8.625V9.875C16.25 10.2188 15.9688 10.5 15.625 10.5H14.375C14.0312 10.5 13.75 10.2188 13.75 9.875V8.625C13.75 8.28125 14.0312 8 14.375 8ZM14.375 13H15.625C15.9688 13 16.25 13.2812 16.25 13.625V14.875C16.25 15.2188 15.9688 15.5 15.625 15.5H14.375C14.0312 15.5 13.75 15.2188 13.75 14.875V13.625C13.75 13.2812 14.0312 13 14.375 13ZM9.375 13H10.625C10.9688 13 11.25 13.2812 11.25 13.625V14.875C11.25 15.2188 10.9688 15.5 10.625 15.5H9.375C9.03125 15.5 8.75 15.2188 8.75 14.875V13.625C8.75 13.2812 9.03125 13 9.375 13ZM9.375 8H10.625C10.9688 8 11.25 8.28125 11.25 8.625V9.875C11.25 10.2188 10.9688 10.5 10.625 10.5H9.375C9.03125 10.5 8.75 10.2188 8.75 9.875V8.625C8.75 8.28125 9.03125 8 9.375 8ZM4.375 8H5.625C5.96875 8 6.25 8.28125 6.25 8.625V9.875C6.25 10.2188 5.96875 10.5 5.625 10.5H4.375C4.03125 10.5 3.75 10.2188 3.75 9.875V8.625C3.75 8.28125 4.03125 8 4.375 8ZM4.375 13H5.625C5.96875 13 6.25 13.2812 6.25 13.625V14.875C6.25 15.2188 5.96875 15.5 5.625 15.5H4.375C4.03125 15.5 3.75 15.2188 3.75 14.875V13.625C3.75 13.2812 4.03125 13 4.375 13Z" fill="#333399"/>
</svg>
