<svg width="24" height="18" viewBox="0 0 24 18" fill="none" xmlns="http://www.w3.org/2000/svg">
<path fill-rule="evenodd" clip-rule="evenodd" d="M12.0562 6.00469C10.4087 6.00469 9.06084 7.35258 9.06084 9C9.06084 10.6474 10.4462 12.0328 12.0936 12.0328C13.741 12.0328 15.0515 10.6474 15.0515 9C15.0515 7.35258 13.7036 6.00469 12.0562 6.00469ZM12.0936 4.54446C14.5647 4.54446 16.5866 6.5663 16.5866 9.03744C16.5866 11.5086 14.5647 13.5304 12.0936 13.5304C9.62246 13.5304 7.60062 11.5086 7.60062 9.03744C7.60062 6.5663 9.62246 4.54446 12.0936 4.54446ZM12.0562 2.26054C7.78783 2.26054 3.55695 4.54446 1.53511 9.03744C3.5944 13.5304 7.7504 15.7395 12.0187 15.7395C16.2496 15.7395 20.443 13.493 22.4649 9.03744C20.443 4.54446 16.3245 2.26054 12.0562 2.26054ZM12.0562 0.762878C17.0733 0.762878 21.7535 3.60844 23.9251 8.58816C23.9251 8.6256 23.9251 8.66302 23.9625 8.66302C23.9625 8.68798 23.9625 8.70048 23.9625 8.70048C23.9625 8.73792 23.9626 8.77535 24 8.8128C24 8.88768 24 8.96255 24 9.03744C24 9.08736 24 9.14976 24 9.22464C23.9626 9.26208 23.9625 9.29954 23.9625 9.33699C23.9625 9.36195 23.9625 9.37442 23.9625 9.37442C23.9376 9.39938 23.9251 9.42434 23.9251 9.44931C21.7535 14.429 16.9984 17.2371 12.0187 17.2371C7.00157 17.2371 2.28393 14.429 0.0748875 9.44931C0.0748875 9.42434 0.0748875 9.39938 0.0748875 9.37442C0.0748875 9.37442 0.0624162 9.36195 0.0374552 9.33699C0.0374552 9.29954 0.0374552 9.26208 0.0374552 9.22464C0.0124942 9.14976 0 9.08736 0 9.03744C0 8.96255 0.0124942 8.88768 0.0374552 8.8128C0.0374552 8.77535 0.0374552 8.73792 0.0374552 8.70048C0.0624162 8.70048 0.0748875 8.68798 0.0748875 8.66302C0.0748875 8.63806 0.0748875 8.61312 0.0748875 8.58816C2.28393 3.60844 7.039 0.762878 12.0562 0.762878Z" fill="white"/>
</svg>
