<svg width="24" height="22" viewBox="0 0 24 22" fill="none" xmlns="http://www.w3.org/2000/svg">
<path fill-rule="evenodd" clip-rule="evenodd" d="M6.72486 1.68436C7.47311 1.68436 8.78254 2.05847 10.9524 4.15356L12 5.2011L13.0475 4.15356C14.544 2.61966 16.1528 1.68436 17.2003 1.68436C18.6594 1.68436 19.7818 2.17071 20.8667 3.29308C21.9143 4.30322 22.4754 5.68746 22.4754 7.18395C22.5129 8.64303 21.9143 10.0273 20.8667 11.0748C20.7919 11.1497 16.265 16.0132 12.4864 20.1286C12.2993 20.2782 12.1122 20.3157 12 20.3157C11.8878 20.3157 11.6633 20.2782 11.5136 20.1286C10.5783 19.0811 3.88152 11.6734 3.09586 10.8878C2.08573 9.84023 1.48714 8.45597 1.48714 6.99689C1.48714 5.53781 2.08573 4.15357 3.09586 3.10602C4.106 2.09589 5.30319 1.68436 6.72486 1.68436ZM6.72486 0.187866C4.92907 0.187866 3.35775 0.749051 2.04832 2.05848C-0.682775 4.78958 -0.682775 9.20422 2.04832 11.9353C2.83398 12.721 10.4287 21.1762 10.4287 21.1762C10.8402 21.5877 11.4388 21.8122 12 21.8122C12.5612 21.8122 13.1224 21.5877 13.5339 21.1762C13.5339 21.1762 21.8394 12.1972 21.9517 12.1224C24.6828 9.39128 24.6828 4.93922 21.9517 2.20812C20.5674 0.861274 19.0709 0.187866 17.2003 0.187866C15.4419 0.187866 13.4591 1.60953 12 3.10602C10.4661 1.60953 8.55807 0.187866 6.72486 0.187866Z" fill="white"/>
</svg>
