<svg width="32" height="32" viewBox="0 0 32 32" fill="none" xmlns="http://www.w3.org/2000/svg">
<path fill-rule="evenodd" clip-rule="evenodd" d="M16 2C8.3 2 2 8.3 2 16C2 23.7 8.3 30.05 16 30.05C23.7 30.05 30 23.7 30 16C30 8.3 23.7 2 16 2ZM32 16C32 24.85 24.85 32 16 32C7.15 32 0 24.85 0 16C0 7.15 7.15 0 16 0C24.85 0 32 7.15 32 16ZM14.65 22.4C14.4 22.4 14.15 22.3 13.95 22.1L8.05 16L13.95 9.95001C14.35 9.55001 14.95 9.55001 15.35 9.95001C15.75 10.35 15.75 11 15.35 11.35L11.75 15H23C23.55 15 24 15.45 24 16C24 16.55 23.55 17 23 17H11.7L15.35 20.65C15.75 21.05 15.75 21.7 15.35 22.1C15.15 22.3 14.9 22.4 14.65 22.4Z" fill="#5C5C5C"/>
</svg>
