<svg width="32" height="32" viewBox="0 0 32 32" fill="none" xmlns="http://www.w3.org/2000/svg">
<path fill-rule="evenodd" clip-rule="evenodd" d="M16 2C8.3 2 2 8.3 2 16C2 23.7 8.3 30.05 16 30.05C23.7 30.05 30 23.7 30 16C30 8.3 23.7 2 16 2ZM16 0C24.85 0 32 7.15 32 16C32 24.85 24.85 32 16 32C7.15 32 0 24.85 0 16C0 7.15 7.15 0 16 0ZM16.65 22.1C16.25 21.7 16.25 21.05 16.65 20.65L20.3 17H9C8.45 17 8 16.55 8 16C8 15.45 8.45 15 9 15H20.25L16.65 11.35C16.25 11 16.25 10.35 16.65 9.95001C17.05 9.55001 17.65 9.55001 18.05 9.95001L23.95 16L18.05 22.1C17.85 22.3 17.6 22.4 17.35 22.4C17.1 22.4 16.85 22.3 16.65 22.1Z" fill="white"/>
</svg>
