<?xml version="1.0" encoding="utf-8"?><svg viewBox="0 0 64 64" xmlns="http://www.w3.org/2000/svg" xmlns:xlink="http://www.w3.org/1999/xlink"><style>:root>svg{display:none}:root>svg:target{display:block}</style><svg viewBox="0 0 17 16" id="arrow-btn" xmlns="http://www.w3.org/2000/svg"><path fill-rule="evenodd" clip-rule="evenodd" d="M1.5 1h14v14h-2V4.414l-11 11L1.086 14l11-11H1.5V1z"/></svg><svg viewBox="0 0 16 16" id="arrow-down" xmlns="http://www.w3.org/2000/svg"><g clip-path="url(#bclip0_3060_6210)"><path fill-rule="evenodd" clip-rule="evenodd" d="M9 .5v11.586l5.5-5.5L15.914 8 8 15.914.086 8 1.5 6.586l5.5 5.5V.5h2z"/></g><defs><clipPath id="bclip0_3060_6210"><path d="M0 0h16v16H0z"/></clipPath></defs></svg><svg viewBox="0 0 64 64" id="arrow-right" xmlns="http://www.w3.org/2000/svg"><path d="M13.333 32h37.333m0 0L32 13.333M50.666 32L32 50.667"/></svg><svg viewBox="0 0 24 24" id="cart" xmlns="http://www.w3.org/2000/svg"><path fill-rule="evenodd" clip-rule="evenodd" d="M19.745 18.375H9.927c-.327 0-.582-.225-.69-.563l-4-15.224c-.219-.713-.51-.713-.619-.713H1.491c-.4 0-.691-.337-.691-.75 0-.412.29-.75.69-.75h3.128c.436 0 1.527.188 2 1.8l1.164 4.163h15.454c.218 0 .436.112.582.3a.96.96 0 01.073.712l-3.455 10.537a.712.712 0 01-.69.488zm-9.273-1.5h8.764l2.946-9.037h-14l2.29 9.037zm7.346 3c.982 0 1.818.825 1.818 1.875 0 1.012-.836 1.875-1.818 1.875-1.018 0-1.818-.863-1.818-1.875 0-1.05.8-1.875 1.818-1.875zm-6.546 0c.982 0 1.819.825 1.819 1.875 0 1.012-.837 1.875-1.818 1.875-1.019 0-1.819-.863-1.819-1.875 0-1.05.8-1.875 1.819-1.875z"/></svg><svg viewBox="0 0 24 24" id="cart-widget" xmlns="http://www.w3.org/2000/svg"><path fill-rule="evenodd" clip-rule="evenodd" d="M19.613 18.375H9.487c-.337 0-.6-.225-.712-.563L4.65 2.588c-.225-.713-.525-.713-.638-.713H.787c-.412 0-.712-.337-.712-.75 0-.412.3-.75.712-.75h3.225c.45 0 1.575.188 2.063 1.8l1.2 4.163h1.912l4.725-4.088c.6-.6 1.538-.6 2.138 0l4.8 4.088h2.362c.226 0 .45.112.6.3.113.224.15.45.075.712l-3.562 10.537a.733.733 0 01-.712.488zm-9.563-1.5h9.037l3.038-9.037H7.687l2.363 9.037zm7.575 3A1.88 1.88 0 0119.5 21.75c0 1.012-.863 1.875-1.875 1.875a1.88 1.88 0 01-1.875-1.875c0-1.05.825-1.875 1.875-1.875zm-6.75 0a1.88 1.88 0 011.875 1.875c0 1.012-.863 1.875-1.875 1.875A1.88 1.88 0 019 21.75c0-1.05.825-1.875 1.875-1.875zM14.963 3.3L11.4 6.338h7.162l-3.6-3.038z"/></svg><svg viewBox="0 0 30 24" id="catalog" xmlns="http://www.w3.org/2000/svg"><path fill-rule="evenodd" clip-rule="evenodd" d="M25.5 24H18c-.825 0-1.5-.675-1.5-1.5V15c0-.825.675-1.5 1.5-1.5h7.5c.825 0 1.5.675 1.5 1.5v7.5c0 .825-.675 1.5-1.5 1.5zm0-9H18v7.5h7.5V15zm0-4.5H18c-.825 0-1.5-.675-1.5-1.5V1.5c0-.825.675-1.5 1.5-1.5h7.5c.825 0 1.5.675 1.5 1.5V9c0 .825-.675 1.5-1.5 1.5zm0-9H18V9h7.5V1.5zM12 24H4.5c-.825 0-1.5-.675-1.5-1.5V15c0-.825.675-1.5 1.5-1.5H12c.825 0 1.5.675 1.5 1.5v7.5c0 .825-.675 1.5-1.5 1.5zm0-9H4.5v7.5H12V15zm0-4.5H4.5C3.675 10.5 3 9.825 3 9V1.5C3 .675 3.675 0 4.5 0H12c.825 0 1.5.675 1.5 1.5V9c0 .825-.675 1.5-1.5 1.5zm0-9H4.5V9H12V1.5z"/></svg><svg viewBox="0 0 24 24" id="chevron-down" xmlns="http://www.w3.org/2000/svg"><path fill-rule="evenodd" clip-rule="evenodd" d="M5.47 8.47a.75.75 0 011.06 0L12 13.94l5.47-5.47a.75.75 0 111.06 1.06l-6 6a.75.75 0 01-1.06 0l-6-6a.75.75 0 010-1.06z"/></svg><svg viewBox="0 0 16 16" id="close" xmlns="http://www.w3.org/2000/svg"><g clip-path="url(#hclip0_1537_15465)"><path fill-rule="evenodd" clip-rule="evenodd" d="M.146.146a.5.5 0 01.708 0L8 7.293 15.146.146a.5.5 0 01.708.708L8.707 8l7.147 7.146a.5.5 0 01-.708.708L8 8.707.854 15.854a.5.5 0 01-.708-.708L7.293 8 .146.854a.5.5 0 010-.708z"/></g><defs><clipPath id="hclip0_1537_15465"><path d="M0 0h16v16H0z"/></clipPath></defs></svg><svg viewBox="0 0 24 24" id="download" xmlns="http://www.w3.org/2000/svg"><path d="M18.075 19.5a.752.752 0 01-.75-.75c0-.413.338-.75.75-.75h.225c2.55 0 4.238-2.85 4.238-5.4 0-2.813-2.438-5.063-5.213-5.1l-.525-.037-.188-.526C15.863 4.463 14.176 3 11.213 3 7.5 3 5.063 5.737 5.063 9.375l.038.037.038.675-.675.113c-1.65.3-2.963 1.988-2.963 3.863C1.5 16.2 3.15 18 5.063 18h.675c.412 0 .75.337.75.75s-.338.75-.75.75h-.676C2.325 19.5 0 17.025 0 14.062c0-2.4 1.5-4.5 3.6-5.175.262-4.2 3.263-7.387 7.613-7.387 3.375 0 5.624 1.725 6.675 4.5C21.261 6.375 24 9.15 24 12.6c0 3.225-2.175 6.825-5.925 6.9zM12 20.738l2.4-2.625c.225-.226.563-.226.75 0l.188.15c.225.187.225.45 0 .674l-2.775 3.038v.037l-.188.188a.537.537 0 01-.375.15c-.15 0-.3-.038-.375-.15l-.225-.188v-.037l-2.7-2.963a.589.589 0 010-.825l.188-.075a.501.501 0 01.75.038L12 20.738zm.037-9.15c.413 0 .75.337.75.75v8.25c0 .412-.337.75-.75.75a.752.752 0 01-.75-.75v-8.25c0-.413.338-.75.75-.75z"/></svg><svg viewBox="0 0 30 24" id="events" xmlns="http://www.w3.org/2000/svg"><path fill-rule="evenodd" clip-rule="evenodd" d="M25.5 24h-21c-.825 0-1.5-.675-1.5-1.5V3.75c0-.825.675-1.5 1.5-1.5h6V.75c0-.412.338-.75.75-.75s.75.338.75.75v1.5h6V.75c0-.412.337-.75.75-.75s.75.338.75.75v1.5h6c.825 0 1.5.675 1.5 1.5V22.5c0 .825-.675 1.5-1.5 1.5zm0-20.25h-6v.75c0 .412-.337.75-.75.75A.752.752 0 0118 4.5v-.75h-6v.75c0 .412-.338.75-.75.75a.752.752 0 01-.75-.75v-.75h-6V22.5h21V3.75zM20.25 9h1.5c.413 0 .75.338.75.75v1.5c0 .412-.337.75-.75.75h-1.5a.752.752 0 01-.75-.75v-1.5c0-.412.337-.75.75-.75zm0 6h1.5c.413 0 .75.338.75.75v1.5c0 .413-.337.75-.75.75h-1.5a.752.752 0 01-.75-.75v-1.5c0-.412.337-.75.75-.75zm-6 0h1.5c.413 0 .75.338.75.75v1.5c0 .413-.337.75-.75.75h-1.5a.752.752 0 01-.75-.75v-1.5c0-.412.338-.75.75-.75zm0-6h1.5c.413 0 .75.338.75.75v1.5c0 .412-.337.75-.75.75h-1.5a.752.752 0 01-.75-.75v-1.5c0-.412.338-.75.75-.75zm-6 0h1.5c.412 0 .75.338.75.75v1.5c0 .412-.338.75-.75.75h-1.5a.752.752 0 01-.75-.75v-1.5c0-.412.338-.75.75-.75zm0 6h1.5c.412 0 .75.338.75.75v1.5c0 .413-.338.75-.75.75h-1.5a.752.752 0 01-.75-.75v-1.5c0-.412.338-.75.75-.75z"/></svg><svg viewBox="0 0 20 20" id="file" xmlns="http://www.w3.org/2000/svg"><path fill-rule="evenodd" clip-rule="evenodd" d="M2.607.732A2.5 2.5 0 014.375 0h8.438c.165 0 .324.066.441.183l4.688 4.688a.625.625 0 01.183.441V17.5a2.5 2.5 0 01-2.5 2.5H4.375a2.5 2.5 0 01-2.5-2.5v-15A2.5 2.5 0 012.607.732zm14.268 4.84v.053H13.75a1.25 1.25 0 01-1.25-1.25V1.25h.054l4.321 4.321zM11.25 1.25v3.125a2.5 2.5 0 002.5 2.5h3.125V17.5a1.25 1.25 0 01-1.25 1.25H4.375a1.25 1.25 0 01-1.25-1.25v-15a1.25 1.25 0 011.25-1.25h6.875z"/></svg><svg viewBox="0 0 21 20" id="hand-down" xmlns="http://www.w3.org/2000/svg"><path fill-rule="evenodd" clip-rule="evenodd" d="M9.091 0c5.688 0 5.719.25 6.438.781.375.281 1.062.469 3.656.625.187.032.344.094.469.25.062.063 1.343 1.938 1.343 4.938 0 2.937-.937 4.312-.968 4.375a.648.648 0 01-.532.281c-2.093 0-5.03 2.688-7 7.406-.343.813-.406 1.344-1.656 1.344-.719 0-1.5-.5-1.906-1.156-.813-1.344-.406-4.219-.031-5.75-1.282.031-3.594.031-4.72.031-1.53 0-2.562-.906-2.593-2.25 0-.438.031-1.031.188-1.313-.344-.343-.782-.843-.813-1.5-.031-.874.531-1.5.875-1.874-.062-.25-.219-.594-.219-.97.032-.968.782-1.593 1.25-1.906-.03-.28-.062-.78.032-1.156C3.216.625 5.466 0 9.09 0zm9.75 2.687c-2.25-.187-3.437-.437-4.062-.906-.5-.375-.438-.531-5.688-.531-1.594 0-4.75.063-4.969 1.188-.093.437.344.874.344.874.125.313 0 .688-.312.813 0 0-1.25.438-1.282 1.156-.03.438.282.688.313.719.156.281.094.656-.188.844 0 0-.812.5-.78 1.187.03.531.718.875.75.906.155.094.25.25.28.407.032.187 0 .375-.093.5 0 0-.313.531-.313 1 .031 1 1.125 1.031 1.344 1.031H9.81c.219 0 .406.094.531.281.125.156.125.375.063.594-.625 1.75-.97 4.5-.407 5.438.188.28.22.562.844.562.094 0 .281-.063.5-.594 2.094-4.968 5.219-7.875 7.781-8.125.22-.5.625-1.562.625-3.437 0-1.938-.625-3.438-.906-3.907z"/></svg><svg viewBox="0 0 21 20" id="hand-up" xmlns="http://www.w3.org/2000/svg"><path fill-rule="evenodd" clip-rule="evenodd" d="M12.84 20c-5.688 0-5.719-.25-6.438-.781-.343-.282-1.062-.469-3.625-.625-.187-.032-.375-.094-.5-.25-.062-.063-1.343-1.938-1.343-4.938 0-2.937.937-4.312.968-4.375.125-.156.313-.281.532-.281 2.125 0 5.03-2.687 7-7.406C9.777.53 9.84 0 11.09 0c.719 0 1.531.5 1.906 1.156.813 1.344.406 4.219.031 5.75 1.282-.031 3.625-.031 4.72-.031 1.562 0 2.562.906 2.593 2.25.031.437-.031 1.031-.156 1.313.343.343.78.843.78 1.5.032.874-.53 1.5-.874 1.874.062.25.25.594.219.97-.032.968-.782 1.593-1.25 1.905.03.282.062.782 0 1.157-.344 1.531-2.594 2.156-6.22 2.156zm-9.75-2.688c2.25.188 3.437.438 4.094.907.468.375.406.531 5.656.531 1.625 0 4.75-.063 5-1.188.094-.437-.375-.875-.375-.875-.125-.312 0-.687.312-.812 0 0 1.25-.438 1.282-1.156.03-.438-.282-.688-.282-.719a.603.603 0 01.157-.844s.812-.5.78-1.187c0-.531-.718-.875-.718-.906a.663.663 0 01-.312-.407c-.032-.187 0-.375.125-.5 0 0 .312-.531.28-1 0-1-1.093-1.031-1.343-1.031h-5.625a.614.614 0 01-.531-.281.652.652 0 01-.031-.594c.593-1.75.937-4.5.375-5.437-.157-.282-.22-.563-.844-.563-.063 0-.281.063-.5.594C8.496 6.813 5.37 9.719 2.84 9.969c-.219.5-.656 1.562-.656 3.437 0 1.938.625 3.438.906 3.906z"/></svg><svg viewBox="0 0 24 22" id="heart" xmlns="http://www.w3.org/2000/svg"><path fill-rule="evenodd" clip-rule="evenodd" d="M6.725 1.684c.748 0 2.058.374 4.227 2.47L12 5.2l1.047-1.047c1.497-1.534 3.106-2.47 4.153-2.47 1.46 0 2.582.487 3.667 1.61 1.047 1.01 1.608 2.393 1.608 3.89.038 1.459-.56 2.843-1.608 3.89-.075.076-4.602 4.94-8.38 9.055a.8.8 0 01-.487.187.73.73 0 01-.486-.187c-.936-1.048-7.632-8.456-8.418-9.241-1.01-1.048-1.609-2.432-1.609-3.891 0-1.46.599-2.843 1.609-3.891 1.01-1.01 2.207-1.422 3.629-1.422zm0-1.496c-1.796 0-3.367.561-4.677 1.87a6.977 6.977 0 000 9.877c.786.786 8.38 9.241 8.38 9.241a2.27 2.27 0 001.572.636c.561 0 1.122-.224 1.534-.636 0 0 8.305-8.979 8.418-9.054 2.73-2.73 2.73-7.183 0-9.914C20.567.861 19.07.188 17.2.188c-1.758 0-3.74 1.422-5.2 2.918C10.466 1.61 8.558.188 6.725.188z"/></svg><svg viewBox="0 0 25 25" id="phone" xmlns="http://www.w3.org/2000/svg"><path fill-rule="evenodd" clip-rule="evenodd" d="M5.434 1.481h.075c.412.638 2.662 4.05 3.075 4.688 0 .075 0 .262-.15.487-.113.263-.563 1.013-1.163 2.1l-.487.825.562.75c.413.6 1.388 1.875 3.3 3.787 1.913 1.913 3.188 2.888 3.75 3.3l.788.526.825-.45c.787-.488 1.762-1.013 2.1-1.2.225-.113.412-.113.45-.113h.037c.563.337 4.05 2.662 4.688 3.113 0 .037 0 .187-.113.337-.937 1.313-2.287 2.7-2.85 2.888-2.812-.113-6.75-2.588-11.1-6.975-4.387-4.35-6.862-8.325-6.975-11.1.188-.563 1.538-1.913 2.85-2.85a.605.605 0 01.338-.113zm0-1.462c-.413 0-.825.15-1.2.375C4.234.43.67 2.944.746 4.406c.113 4.088 4.088 8.888 7.388 12.187 3.337 3.338 8.137 7.313 12.225 7.426h.037c1.425 0 3.975-3.488 3.975-3.525.675-.938.45-1.988-.15-2.4-.375-.263-4.387-2.926-4.912-3.226-.2-.125-.45-.187-.75-.187-.375 0-.75.075-1.163.3-.375.188-1.575.863-2.137 1.2-.488-.375-1.688-1.275-3.563-3.15-1.837-1.838-2.775-3.037-3.112-3.562.337-.563.975-1.725 1.2-2.1.375-.75.412-1.463.112-1.95-.3-.45-2.962-4.463-3.225-4.838C6.41.244 5.921.02 5.434.02z"/></svg><svg viewBox="0 0 20 20" id="pocket" xmlns="http://www.w3.org/2000/svg"><g clip-path="url(#pclip0_3186_4912)"><path fill-rule="evenodd" clip-rule="evenodd" d="M10.469 1.25c-.405 0-.781.376-.781.781v8.438c0 .405.376.781.78.781h6.563c.405 0 .782-.376.782-.781V5.938h-2.188a2.5 2.5 0 01-2.5-2.5V1.25h-2.656zm0-1.25C9.374 0 8.438.936 8.438 2.031v8.438c0 1.095.936 2.031 2.03 2.031h6.563c1.095 0 2.032-.936 2.032-2.031V4.375a.625.625 0 00-.184-.442L15.13.183A.625.625 0 0014.688 0h-4.22zm3.906 1.25v2.188a1.25 1.25 0 001.25 1.25h2.188v-.054L14.428 1.25h-.054zM5.312 5.625c.346 0 .625.28.625.625v8.25a.28.28 0 00.041.11.905.905 0 00.151.198c.06.06.13.114.198.151.07.038.106.041.11.041h6.375a.625.625 0 110 1.25H6.439c-.531 0-.964-.33-1.192-.558-.229-.228-.559-.661-.559-1.192V6.25c0-.345.28-.625.625-.625zm-3.75 3.75c.346 0 .625.28.625.625v8.25a.28.28 0 00.041.11.905.905 0 00.151.198c.06.06.13.114.198.151.07.038.106.041.11.041h6.376a.625.625 0 110 1.25H2.686c-.53 0-.963-.33-1.191-.558-.229-.228-.558-.661-.558-1.192V10c0-.345.28-.625.625-.625z"/></g><defs><clipPath id="pclip0_3186_4912"><path d="M0 0h20v20H0z"/></clipPath></defs></svg><svg viewBox="0 0 24 24" id="remove" xmlns="http://www.w3.org/2000/svg"><g clip-path="url(#qclip0_3077_421)"><path fill-rule="evenodd" clip-rule="evenodd" d="M.22.22a.75.75 0 011.06 0L12 10.94 22.72.22a.75.75 0 111.06 1.06L13.06 12l10.72 10.72a.75.75 0 11-1.06 1.06L12 13.06 1.28 23.78a.75.75 0 01-1.06-1.06L10.94 12 .22 1.28a.75.75 0 010-1.06z" fill-opacity=".6"/></g><defs><clipPath id="qclip0_3077_421"><path d="M0 0h24v24H0z"/></clipPath></defs></svg><svg viewBox="0 0 25 24" id="search" xmlns="http://www.w3.org/2000/svg"><path fill-rule="evenodd" clip-rule="evenodd" d="M23.85 23.775c-.3.3-.75.3-1.05 0l-7.275-7.313a9.354 9.354 0 01-6.15 2.288C4.2 18.75 0 14.55 0 9.375S4.2 0 9.375 0s9.375 4.2 9.375 9.375a9.333 9.333 0 01-2.175 6l7.275 7.35c.3.262.3.75 0 1.05zM1.5 9.375a7.874 7.874 0 007.875 7.875 7.874 7.874 0 007.875-7.875A7.874 7.874 0 009.375 1.5 7.874 7.874 0 001.5 9.375z" fill-opacity=".4"/></svg><svg viewBox="0 0 21 20" id="search-btn" xmlns="http://www.w3.org/2000/svg"><path fill-rule="evenodd" clip-rule="evenodd" d="M20.813 19.813a.604.604 0 01-.875 0l-6.063-6.094a7.795 7.795 0 01-5.125 1.906A7.815 7.815 0 01.937 7.812C.938 3.5 4.438 0 8.75 0s7.813 3.5 7.813 7.813a7.778 7.778 0 01-1.813 5l6.063 6.124c.25.22.25.625 0 .875zm-18.625-12a6.562 6.562 0 006.562 6.562 6.562 6.562 0 006.563-6.563A6.562 6.562 0 008.75 1.25a6.562 6.562 0 00-6.563 6.563z"/></svg><svg viewBox="0 0 30 24" id="service" xmlns="http://www.w3.org/2000/svg"><path fill-rule="evenodd" clip-rule="evenodd" d="M26.588 5.063c-.263-.113-.563-.075-.75.112L22.05 8.588l-3.412-3.525 3.375-3.9a.691.691 0 00.112-.75.693.693 0 00-.637-.413h-.225C19.2 0 15.6.15 13.988 1.8l-.338.337c-1.725 1.725-2.025 4.613-1.125 6.788l-8.662 8.85c-1.163 1.163-1.163 3.113 0 4.275l1.087 1.087a2.95 2.95 0 002.1.863c.75 0 1.538-.3 2.1-.863l8.775-8.85c.863.45 1.988.713 2.925.713 1.538 0 3-.6 4.088-1.725l.337-.338C27.038 11.175 27 7.388 27 5.737c0-.3-.15-.562-.412-.675zm-2.363 6.862l-.262.337A4.426 4.426 0 0120.85 13.5c-.562 0-1.312-.113-1.837-.3a4.83 4.83 0 01-1.313-.825L8.1 22.05c-.3.3-.675.45-1.05.45-.412 0-.787-.15-1.05-.45L4.95 21c-.6-.6-.6-1.575 0-2.175l9.375-9.563c-.3-.45-.525-.975-.675-1.5-.337-1.462-.15-3.45 1.013-4.612l.3-.337c.975-.976 3.525-1.275 4.912-1.35l-2.737 3.15a.741.741 0 000 .975l4.35 4.462c.262.3.712.3.975.037l3.075-2.737c-.075 1.462-.375 3.638-1.313 4.575z"/></svg><svg viewBox="0 0 32 32" id="slider-next" xmlns="http://www.w3.org/2000/svg"><path fill-rule="evenodd" clip-rule="evenodd" d="M16 2C8.3 2 2 8.3 2 16s6.3 14.05 14 14.05S30 23.7 30 16c0-7.7-6.3-14-14-14zm0-2c8.85 0 16 7.15 16 16s-7.15 16-16 16S0 24.85 0 16 7.15 0 16 0zm.65 22.1c-.4-.4-.4-1.05 0-1.45L20.3 17H9c-.55 0-1-.45-1-1s.45-1 1-1h11.25l-3.6-3.65c-.4-.35-.4-1 0-1.4.4-.4 1-.4 1.4 0l5.9 6.05-5.9 6.1c-.2.2-.45.3-.7.3-.25 0-.5-.1-.7-.3z"/></svg><svg viewBox="0 0 32 32" id="slider-prev" xmlns="http://www.w3.org/2000/svg"><path fill-rule="evenodd" clip-rule="evenodd" d="M16 2C8.3 2 2 8.3 2 16s6.3 14.05 14 14.05S30 23.7 30 16c0-7.7-6.3-14-14-14zm16 14c0 8.85-7.15 16-16 16S0 24.85 0 16 7.15 0 16 0s16 7.15 16 16zm-17.35 6.4c-.25 0-.5-.1-.7-.3L8.05 16l5.9-6.05c.4-.4 1-.4 1.4 0 .4.4.4 1.05 0 1.4L11.75 15H23c.55 0 1 .45 1 1s-.45 1-1 1H11.7l3.65 3.65c.4.4.4 1.05 0 1.45-.2.2-.45.3-.7.3z"/></svg><svg viewBox="0 0 30 24" id="study" xmlns="http://www.w3.org/2000/svg"><g clip-path="url(#wclip0_3018_12698)"><path fill-rule="evenodd" clip-rule="evenodd" d="M29.29 9.61l-.697.367v7.266a1.862 1.862 0 11-1.405.004v-6.528l-3.96 2.091c.03.118.044.248.044.385v8.077c0 .28-.126.545-.342.72-.207.17-2.193 1.651-8.085 1.651-5.893 0-7.847-1.568-8.049-1.747a.933.933 0 01-.312-.695v-7.875c0-.183.01-.354.046-.498L.49 9.613a.93.93 0 01-.012-1.631L14.404.48a.932.932 0 01.9-.003l14.003 7.49a.931.931 0 01-.018 1.641zM7.774 21.146c.684.354 3.14 1.247 7.062 1.247 3.923 0 6.298-.848 7.03-1.2V13.53l-6.605 3.488a.924.924 0 01-.873-.005l-6.614-3.52v7.656zm7.084-19.474L1.84 8.783l12.997 6.926 13.077-7.058-13.056-6.978z"/></g><defs><clipPath id="wclip0_3018_12698"><path d="M0 0h30v24H0z"/></clipPath></defs></svg><svg viewBox="0 0 25 25" id="widget-phone" xmlns="http://www.w3.org/2000/svg"><path fill-rule="evenodd" clip-rule="evenodd" d="M4.706 1.481h.075c.413.638 2.663 4.05 3.075 4.688 0 .075 0 .262-.15.487-.112.263-.562 1.013-1.162 2.1l-.488.825.563.75c.412.6 1.388 1.875 3.3 3.787 1.912 1.913 3.188 2.888 3.75 3.3l.787.526.825-.45c.788-.488 1.763-1.013 2.1-1.2.226-.113.413-.113.45-.113h.038c.563.337 4.05 2.662 4.688 3.113 0 .037 0 .187-.113.337-.938 1.313-2.287 2.7-2.85 2.888-2.813-.113-6.75-2.588-11.1-6.975-4.388-4.35-6.863-8.325-6.975-11.1.187-.563 1.537-1.913 2.85-2.85a.605.605 0 01.337-.113zm0-1.462c-.412 0-.824.15-1.2.375C3.507.43-.055 2.944.02 4.406c.112 4.088 4.087 8.888 7.387 12.187 3.338 3.338 8.138 7.313 12.226 7.426h.037c1.425 0 3.975-3.488 3.975-3.525.675-.938.45-1.988-.15-2.4-.375-.263-4.387-2.926-4.913-3.226-.2-.125-.45-.187-.75-.187-.375 0-.75.075-1.162.3-.375.188-1.575.863-2.138 1.2-.487-.375-1.687-1.275-3.562-3.15-1.838-1.838-2.775-3.037-3.112-3.562.337-.563.974-1.725 1.2-2.1.374-.75.412-1.463.112-1.95-.3-.45-2.962-4.463-3.225-4.838C5.682.244 5.194.02 4.706.02z" fill-opacity=".8"/></svg></svg>