<svg width="32" height="32" viewBox="0 0 32 32" fill="none" xmlns="http://www.w3.org/2000/svg">
<path fill-rule="evenodd" clip-rule="evenodd" d="M15.9906 2.00627C15.9906 2.00627 13.2821 4.81506 10.5235 5.46709C8.81818 5.9185 7.06269 5.96866 6.0094 5.96866C5.35736 5.96866 5.00627 5.96866 5.00627 5.96866C5.00627 5.96866 5.00627 6.57054 5.00627 10.9843C5.00627 28.0376 15.9906 29.9937 15.9906 29.9937C15.9906 29.9937 27.0752 28.0376 27.0752 10.9843C27.0752 6.57054 27.0752 5.96866 27.0752 5.96866C27.0752 5.96866 26.7241 5.96866 26.0721 5.96866C25.0689 5.96866 23.3135 5.9185 21.6081 5.46709C18.8495 4.81506 15.9906 2.00627 15.9906 2.00627ZM15.9906 0C16.3919 0 16.7931 0.100332 17.094 0.300959C17.7962 0.752369 20.1034 3.05956 22.1097 3.51097C23.6144 3.91222 25.2696 3.96239 26.0721 3.96239C26.6238 3.96239 26.9247 3.96239 26.9749 3.96239C27.0083 3.96239 27.0418 3.96239 27.0752 3.96239C27.5768 3.96239 28.0783 4.11286 28.4796 4.46396C28.8808 4.86521 29.0815 5.36678 29.0815 5.96866V10.9843C29.0815 29.4922 16.8934 31.8997 16.3417 32C16.2414 32 16.1243 32 15.9906 32C15.8903 32 15.7732 32 15.6395 32C15.1379 31.8997 3 29.4922 3 10.9843V5.96866C3 5.36678 3.25078 4.86521 3.65203 4.46396C4.00313 4.11286 4.5047 3.96239 5.00627 3.96239C5.03971 3.96239 5.08986 3.96239 5.15673 3.96239C5.15673 3.96239 5.50783 3.96239 6.0094 3.96239C6.81191 3.96239 8.51724 3.91222 10.0219 3.51097C12.3793 2.95925 14.7868 0.351115 14.8871 0.300959C15.2382 0.100332 15.5893 0 15.9906 0Z" fill="black"/>
<path fill-rule="evenodd" clip-rule="evenodd" d="M22.3739 13.2929C22.7645 13.6834 22.7645 14.3166 22.3739 14.7071L16.2073 20.8738C16.0197 21.0613 15.7654 21.1667 15.5002 21.1667C15.2349 21.1667 14.9806 21.0613 14.7931 20.8738L10.6264 16.7071C10.2359 16.3166 10.2359 15.6834 10.6264 15.2929C11.0169 14.9024 11.6501 14.9024 12.0406 15.2929L15.5002 18.7525L20.9597 13.2929C21.3502 12.9024 21.9834 12.9024 22.3739 13.2929Z" fill="black"/>
</svg>
