<svg width="32" height="33" viewBox="0 0 32 33" fill="none" xmlns="http://www.w3.org/2000/svg">
<path fill-rule="evenodd" clip-rule="evenodd" d="M1.06609 32.6504H0.0701855V31.6545C0.0701855 26.6252 1.06609 25.5794 3.20728 24.5337C3.70524 24.2848 4.25299 24.0358 4.80074 23.5877L5.99584 25.1313C5.2987 25.6791 4.60155 26.0276 4.10359 26.2766C2.80891 26.9239 2.16159 27.3223 2.062 30.6586C5.54767 30.5092 5.94603 29.6627 6.54357 28.368C6.79255 27.8701 7.09132 27.2725 7.53948 26.675L8.98356 28.0194C8.63499 28.617 8.53539 28.9158 8.28641 29.3639C7.2905 31.4553 6.34439 32.6504 1.06609 32.6504ZM21.9801 14.7241C19.7891 14.7241 17.9965 12.9315 17.9965 10.7405C17.9965 8.54947 19.7891 6.75684 21.9801 6.75684C24.1711 6.75684 25.9637 8.54947 25.9637 10.7405C25.9637 12.9315 24.1711 14.7241 21.9801 14.7241ZM21.9801 8.74865C20.8846 8.74865 19.9883 9.64497 19.9883 10.7405C19.9883 11.836 20.8846 12.7323 21.9801 12.7323C23.0756 12.7323 23.9719 11.836 23.9719 10.7405C23.9719 9.64497 23.0756 8.74865 21.9801 8.74865ZM13.3157 32.7998C13.2161 32.7998 13.1166 32.7832 13.017 32.75C12.6684 32.6504 12.4194 32.3516 12.3198 32.0529L11.1247 26.9239L8.88396 24.3844C7.78846 23.1893 7.14113 22.4424 6.74277 21.9444L0.767332 20.6C0.418765 20.5502 0.169776 20.2514 0.0701855 19.9526C-0.0792004 19.604 0.0204024 19.2555 0.269379 18.9567L3.90443 15.0228C4.10361 14.8237 4.35259 14.6743 4.65136 14.6743H10.1786C10.5272 14.0768 10.9256 13.2303 11.3737 12.3837C12.4692 10.1927 13.7141 7.55354 14.959 6.10948C16.4529 4.31685 18.0961 3.17159 20.0381 2.47446C25.416 0.43285 30.9931 0.831188 30.9931 0.831188C31.491 0.880984 31.8894 1.27936 31.8894 1.77731C31.9392 2.02629 32.2878 8.2507 30.5947 12.7323C29.8976 14.6245 29.2004 15.9192 27.2086 17.662C25.8144 18.9069 22.4781 20.5003 20.1875 21.7452C19.3908 22.1934 18.4944 22.6913 17.9965 22.9901V28.119C17.9965 28.4178 17.8471 28.7166 17.6479 28.866L13.9631 32.5508C13.7639 32.7002 13.5647 32.7998 13.3157 32.7998ZM7.98765 20.4008C8.18683 20.6497 10.9256 23.737 12.768 25.7786C12.9008 25.8782 12.9838 26.011 13.017 26.177L13.9133 29.9614L16.0047 27.6709V22.4921C16.0047 22.1436 16.1541 21.8946 16.3533 21.6954C16.7516 21.3469 17.6977 20.8489 19.2414 20.0024C21.283 18.8571 24.6691 17.2637 25.914 16.1682C27.5572 14.7241 28.1049 13.7282 28.7523 12.0849C29.8976 8.89801 29.9972 4.66543 29.9474 2.823C28.2045 2.823 24.4201 2.92259 20.7352 4.31686C19.092 4.9144 17.7973 5.86055 16.5026 7.4042C15.4071 8.64909 14.1622 11.2882 13.1663 13.28C12.5688 14.4751 12.0709 15.471 11.6227 16.2179C11.4235 16.5167 11.1247 16.6661 10.7762 16.6661H5.0995L2.85871 19.0563L7.43988 20.102C7.63906 20.1518 7.83826 20.2514 7.98765 20.4008Z" fill="black"/>
</svg>
