<svg width="25" height="24" viewBox="0 0 25 24" fill="none" xmlns="http://www.w3.org/2000/svg">
<path fill-rule="evenodd" clip-rule="evenodd" d="M23.85 23.775C23.55 24.075 23.1 24.075 22.8 23.775L15.525 16.4625C13.875 17.8875 11.7375 18.75 9.375 18.75C4.2 18.75 0 14.55 0 9.375C0 4.2 4.2 0 9.375 0C14.55 0 18.75 4.2 18.75 9.375C18.75 11.6625 17.925 13.7625 16.575 15.375L23.85 22.725C24.15 22.9875 24.15 23.475 23.85 23.775ZM1.5 9.375C1.5 13.725 5.025 17.25 9.375 17.25C13.725 17.25 17.25 13.725 17.25 9.375C17.25 5.025 13.725 1.5 9.375 1.5C5.025 1.5 1.5 5.025 1.5 9.375Z" fill="white" fill-opacity="0.6"/>
</svg>
