<svg width="24" height="24" viewBox="0 0 24 24" fill="none" xmlns="http://www.w3.org/2000/svg">
<path d="M14.7013 6.29998C14.5181 6.48691 14.4155 6.73823 14.4155 6.99998C14.4155 7.26173 14.5181 7.51305 14.7013 7.69998L16.3013 9.29998C16.4882 9.48321 16.7396 9.58584 17.0013 9.58584C17.2631 9.58584 17.5144 9.48321 17.7013 9.29998L21.4713 5.52998C21.9742 6.64117 22.1264 7.87921 21.9078 9.07913C21.6892 10.279 21.11 11.3838 20.2476 12.2463C19.3852 13.1087 18.2804 13.6878 17.0805 13.9064C15.8806 14.1251 14.6425 13.9728 13.5313 13.47L6.62132 20.38C6.2235 20.7778 5.68393 21.0013 5.12132 21.0013C4.55871 21.0013 4.01914 20.7778 3.62132 20.38C3.2235 19.9822 3 19.4426 3 18.88C3 18.3174 3.2235 17.7778 3.62132 17.38L10.5313 10.47C10.0285 9.35879 9.87624 8.12075 10.0949 6.92083C10.3135 5.72092 10.8926 4.61614 11.755 3.7537C12.6175 2.89127 13.7223 2.31215 14.9222 2.09352C16.1221 1.8749 17.3601 2.02714 18.4713 2.52998L14.7013 6.29998Z" stroke="#5C5C5C" stroke-width="2" stroke-linecap="round" stroke-linejoin="round"/>
</svg>
