<svg width="25" height="24" viewBox="0 0 25 24" fill="none" xmlns="http://www.w3.org/2000/svg">
<path d="M15.2013 6.29998C15.0181 6.48691 14.9155 6.73823 14.9155 6.99998C14.9155 7.26173 15.0181 7.51305 15.2013 7.69998L16.8013 9.29998C16.9882 9.48321 17.2396 9.58584 17.5013 9.58584C17.7631 9.58584 18.0144 9.48321 18.2013 9.29998L21.9713 5.52998C22.4742 6.64117 22.6264 7.87921 22.4078 9.07913C22.1892 10.279 21.61 11.3838 20.7476 12.2463C19.8852 13.1087 18.7804 13.6878 17.5805 13.9064C16.3806 14.1251 15.1425 13.9728 14.0313 13.47L7.12132 20.38C6.7235 20.7778 6.18393 21.0013 5.62132 21.0013C5.05871 21.0013 4.51914 20.7778 4.12132 20.38C3.7235 19.9822 3.5 19.4426 3.5 18.88C3.5 18.3174 3.7235 17.7778 4.12132 17.38L11.0313 10.47C10.5285 9.35879 10.3762 8.12075 10.5949 6.92083C10.8135 5.72092 11.3926 4.61614 12.255 3.7537C13.1175 2.89127 14.2223 2.31215 15.4222 2.09352C16.6221 1.8749 17.8601 2.02714 18.9713 2.52998L15.2013 6.29998Z" stroke="#333399" stroke-width="2" stroke-linecap="round" stroke-linejoin="round"/>
</svg>
