<svg width="25" height="24" viewBox="0 0 25 24" fill="none" xmlns="http://www.w3.org/2000/svg">
<path d="M15.1209 17.897L4.44094 14.984M9.49894 7.99998C7.69494 10.71 5.52894 11.46 2.91594 11.948C2.82926 11.9638 2.7482 12.0019 2.68075 12.0587C2.6133 12.1154 2.5618 12.1887 2.53131 12.2713C2.50082 12.354 2.49241 12.4432 2.5069 12.5301C2.52139 12.617 2.55829 12.6987 2.61394 12.767L9.93394 21.65C10.0826 21.8079 10.2786 21.9132 10.4924 21.95C10.7061 21.9868 10.926 21.9531 11.1189 21.854C13.2339 20.405 16.4989 16.792 16.4989 15M18.8749 2.62198C19.0721 2.42486 19.3061 2.26851 19.5636 2.16183C19.8212 2.05515 20.0972 2.00024 20.3759 2.00024C20.6547 2.00024 20.9307 2.05515 21.1883 2.16183C21.4458 2.26851 21.6798 2.42486 21.8769 2.62198C22.0741 2.81909 22.2304 3.0531 22.3371 3.31064C22.4438 3.56819 22.4987 3.84422 22.4987 4.12298C22.4987 4.40174 22.4438 4.67777 22.3371 4.93531C22.2304 5.19286 22.0741 5.42686 21.8769 5.62398L17.8589 9.64298C17.7652 9.73674 17.7126 9.8639 17.7126 9.99648C17.7126 10.1291 17.7652 10.2562 17.8589 10.35L18.8029 11.294C19.2548 11.7459 19.5087 12.3589 19.5087 12.998C19.5087 13.6371 19.2548 14.25 18.8029 14.702L17.8589 15.646C17.7652 15.7397 17.638 15.7924 17.5054 15.7924C17.3729 15.7924 17.2457 15.7397 17.1519 15.646L8.85294 7.34798C8.75921 7.25421 8.70655 7.12706 8.70655 6.99448C8.70655 6.8619 8.75921 6.73474 8.85294 6.64098L9.79694 5.69698C10.2489 5.24509 10.8618 4.99123 11.5009 4.99123C12.1401 4.99123 12.753 5.24509 13.2049 5.69698L14.1489 6.64098C14.2427 6.73471 14.3699 6.78737 14.5024 6.78737C14.635 6.78737 14.7622 6.73471 14.8559 6.64098L18.8749 2.62198Z" stroke="#333399" stroke-width="2" stroke-linecap="round" stroke-linejoin="round"/>
</svg>
