<svg width="25" height="24" viewBox="0 0 25 24" fill="none" xmlns="http://www.w3.org/2000/svg">
<path d="M12.5 20C14.6217 20 16.6566 19.1571 18.1569 17.6569C19.6571 16.1566 20.5 14.1217 20.5 12C20.5 9.87827 19.6571 7.84344 18.1569 6.34315C16.6566 4.84285 14.6217 4 12.5 4M12.5 20C10.3783 20 8.34344 19.1571 6.84315 17.6569C5.34285 16.1566 4.5 14.1217 4.5 12M12.5 20V22M12.5 4C10.3783 4 8.34344 4.84285 6.84315 6.34315C5.34285 7.84344 4.5 9.87827 4.5 12M12.5 4V2M4.5 12H2.5M14.5 12C14.5 12.5304 14.2893 13.0391 13.9142 13.4142C13.5391 13.7893 13.0304 14 12.5 14C11.9696 14 11.4609 13.7893 11.0858 13.4142C10.7107 13.0391 10.5 12.5304 10.5 12C10.5 11.4696 10.7107 10.9609 11.0858 10.5858C11.4609 10.2107 11.9696 10 12.5 10C13.0304 10 13.5391 10.2107 13.9142 10.5858C14.2893 10.9609 14.5 11.4696 14.5 12ZM14.5 12H22.5M17.5 20.66L16.5 18.93M11.5 10.27L7.5 3.34M21.16 17L19.43 16M3.84 7L5.57 8M21.16 7L19.43 8M3.84 17L5.57 16M17.5 3.34L16.5 5.07M11.5 13.73L7.5 20.66" stroke="#333399" stroke-width="2" stroke-linecap="round" stroke-linejoin="round"/>
</svg>
