<svg width="25" height="24" viewBox="0 0 25 24" fill="none" xmlns="http://www.w3.org/2000/svg">
<path d="M14.5 18V6C14.5 5.46957 14.2893 4.96086 13.9142 4.58579C13.5391 4.21071 13.0304 4 12.5 4H4.5C3.96957 4 3.46086 4.21071 3.08579 4.58579C2.71071 4.96086 2.5 5.46957 2.5 6V17C2.5 17.2652 2.60536 17.5196 2.79289 17.7071C2.98043 17.8946 3.23478 18 3.5 18H5.5M5.5 18C5.5 19.1046 6.39543 20 7.5 20C8.60457 20 9.5 19.1046 9.5 18M5.5 18C5.5 16.8954 6.39543 16 7.5 16C8.60457 16 9.5 16.8954 9.5 18M15.5 18H9.5M15.5 18C15.5 19.1046 16.3954 20 17.5 20C18.6046 20 19.5 19.1046 19.5 18M15.5 18C15.5 16.8954 16.3954 16 17.5 16C18.6046 16 19.5 16.8954 19.5 18M19.5 18H21.5C21.7652 18 22.0196 17.8946 22.2071 17.7071C22.3946 17.5196 22.5 17.2652 22.5 17V13.35C22.4996 13.1231 22.422 12.903 22.28 12.726L18.8 8.376C18.7065 8.25888 18.5878 8.16428 18.4528 8.0992C18.3178 8.03412 18.1699 8.00021 18.02 8H14.5" stroke="#333399" stroke-width="2" stroke-linecap="round" stroke-linejoin="round"/>
</svg>
