<svg width="25" height="24" viewBox="0 0 25 24" fill="none" xmlns="http://www.w3.org/2000/svg">
<path d="M17.5 21V19M17.5 19C17.2348 19 16.9804 18.8946 16.7929 18.7071C16.6054 18.5196 16.5 18.2652 16.5 18V17C16.5 16.4696 16.7107 15.9609 17.0858 15.5858C17.4609 15.2107 17.9696 15 18.5 15H20.5C21.0304 15 21.5391 15.2107 21.9142 15.5858C22.2893 15.9609 22.5 16.4696 22.5 17V18C22.5 18.2652 22.3946 18.5196 22.2071 18.7071C22.0196 18.8946 21.7652 19 21.5 19M17.5 19H21.5M21.5 19V21M19.5 15V6.5C19.5 5.57174 19.1313 4.6815 18.4749 4.02513C17.8185 3.36875 16.9283 3 16 3C15.0717 3 14.1815 3.36875 13.5251 4.02513C12.8687 4.6815 12.5 5.57174 12.5 6.5V17.5C12.5 18.4283 12.1313 19.3185 11.4749 19.9749C10.8185 20.6313 9.92826 21 9 21C8.07174 21 7.1815 20.6313 6.52513 19.9749C5.86875 19.3185 5.5 18.4283 5.5 17.5V9M3.5 5H7.5M3.5 5C3.23478 5 2.98043 5.10536 2.79289 5.29289C2.60536 5.48043 2.5 5.73478 2.5 6V7C2.5 7.53043 2.71071 8.03914 3.08579 8.41421C3.46086 8.78929 3.96957 9 4.5 9H6.5C7.03043 9 7.53914 8.78929 7.91421 8.41421C8.28929 8.03914 8.5 7.53043 8.5 7V6C8.5 5.73478 8.39464 5.48043 8.20711 5.29289C8.01957 5.10536 7.76522 5 7.5 5M3.5 5V3M7.5 5V3" stroke="#333399" stroke-width="2" stroke-linecap="round" stroke-linejoin="round"/>
</svg>
