<svg width="236" height="28" viewBox="0 0 236 28" fill="none" xmlns="http://www.w3.org/2000/svg">
<g clip-path="url(#clip0_266_497)">
<path d="M0.464844 0.199219H6.73308C8.33017 0.199219 9.586 0.640099 10.3859 1.43971C11.0056 2.06132 11.3251 2.81985 11.3251 3.80294C11.3251 5.4843 10.3668 6.38523 9.32938 6.92743C10.9647 7.4888 12.1031 8.42807 12.1031 10.3723C12.1031 12.8752 10.0474 14.217 6.93511 14.217H0.464844V0.199219ZM6.23348 6.10592C7.81146 6.10592 8.86799 5.4843 8.86799 4.1644C8.86799 3.06357 7.98891 2.38171 6.41366 2.38171H2.88095V6.10592H6.23348ZM6.95149 12.0318C8.62775 12.0318 9.64606 11.3718 9.64606 10.0684C9.64606 8.88812 8.70692 8.18709 6.7713 8.18709H2.87822V12.0318H6.95149Z" fill="white"/>
<path d="M18.8711 0.199219H29.229V2.40088H21.3254V6.04567H28.3308V8.24734H21.3254V12.0099H29.33V14.2115H18.8711V0.199219Z" fill="white"/>
<path d="M41.189 0.101562H43.4659L49.614 14.2152H47.0205L45.6036 10.8306H38.9968L37.5608 14.2152H35.0464L41.189 0.101562ZM44.7026 8.6508L42.2865 3.04533L39.8923 8.6508H44.7026Z" fill="white"/>
<path d="M55.2845 8.26924V0.199219H57.7388V8.16792C57.7388 10.7694 59.0765 12.1714 61.2715 12.1714C63.4665 12.1714 64.7851 10.8488 64.7851 8.26651V0.199219H67.2394V8.14875C67.2394 12.333 64.8834 14.4361 61.2306 14.4361C57.5777 14.4361 55.2817 12.333 55.2817 8.26924H55.2845Z" fill="white"/>
<path d="M78.0422 2.48303H73.6113V0.199219H84.9493V2.48029H80.5184V14.2143H78.0422V2.48303Z" fill="white"/>
<path d="M95.6513 8.68822L90.1011 0.199219H92.9949L96.9071 6.4044L100.86 0.199219H103.675L98.1247 8.62797V14.2143H95.6486V8.68822H95.6513Z" fill="white"/>
<path d="M118.868 12.1721L120.345 10.4113C121.683 11.5724 123.02 12.2324 124.757 12.2324C126.275 12.2324 127.233 11.5313 127.233 10.4305C127.233 9.42826 126.673 8.8888 124.08 8.26719C121.107 7.56616 119.428 6.6844 119.428 4.06377C119.428 1.6622 121.423 0 124.197 0C126.234 0 127.85 0.621614 129.267 1.76078L127.948 3.62288C126.69 2.68088 125.434 2.18249 124.156 2.18249C122.72 2.18249 121.879 2.92186 121.879 3.88303C121.879 4.96469 122.518 5.44391 125.194 6.08469C128.147 6.80489 129.684 7.86738 129.684 10.2279C129.684 12.8512 127.629 14.4121 124.694 14.4121C122.559 14.4121 120.541 13.6728 118.865 12.1694L118.868 12.1721Z" fill="white"/>
<path d="M140.089 8.68822L134.541 0.199219H137.435L141.347 6.4044L145.3 0.199219H148.115L142.565 8.62797V14.2143H140.089V8.68822Z" fill="white"/>
<path d="M152.628 12.1721L154.105 10.4113C155.442 11.5724 156.78 12.2324 158.516 12.2324C160.034 12.2324 160.993 11.5313 160.993 10.4305C160.993 9.42826 160.433 8.8888 157.839 8.26719C154.866 7.56616 153.187 6.6844 153.187 4.06377C153.187 1.6622 155.183 0 157.957 0C159.993 0 161.61 0.621614 163.027 1.76078L161.708 3.62288C160.449 2.68088 159.194 2.18249 157.916 2.18249C156.48 2.18249 155.639 2.92186 155.639 3.88303C155.639 4.96469 156.278 5.44391 158.953 6.08469C161.907 6.80489 163.444 7.86738 163.444 10.2279C163.444 12.8512 161.389 14.4121 158.454 14.4121C156.319 14.4121 154.301 13.6728 152.625 12.1694L152.628 12.1721Z" fill="white"/>
<path d="M173.469 2.48303H169.038V0.199219H180.376V2.48029H175.945V14.2143H173.469V2.48303Z" fill="white"/>
<path d="M186.964 0.199219H197.322V2.40088H189.418V6.04567H196.424V8.24734H189.418V12.0099H197.423V14.2115H186.964V0.199219Z" fill="white"/>
<path d="M204.333 0.199219H206.948L211.199 6.82611L215.45 0.199219H218.065V14.2143H215.611V4.1644L211.199 10.7721H211.12L206.749 4.20548V14.217H204.333V0.199219Z" fill="white"/>
<path d="M224.715 12.1721L226.192 10.4113C227.529 11.5724 228.867 12.2324 230.603 12.2324C232.121 12.2324 233.08 11.5313 233.08 10.4305C233.08 9.42826 232.52 8.8888 229.926 8.26719C226.953 7.56616 225.274 6.6844 225.274 4.06377C225.274 1.6622 227.27 0 230.044 0C232.08 0 233.697 0.621614 235.113 1.76078L233.795 3.62288C232.536 2.68088 231.28 2.18249 230.003 2.18249C228.567 2.18249 227.726 2.92186 227.726 3.88303C227.726 4.96469 228.365 5.44391 231.04 6.08469C233.994 6.80489 235.531 7.86738 235.531 10.2279C235.531 12.8512 233.475 14.4121 230.541 14.4121C228.406 14.4121 226.388 13.6728 224.712 12.1694L224.715 12.1721Z" fill="white"/>
<path d="M1.19922 22.7148H4.59542V27.036H4.10947V23.1612H1.68517V27.036H1.19922V22.7148Z" fill="white"/>
<path d="M7.0415 22.7148H8.65497C9.62688 22.7148 10.2657 23.2324 10.2657 24.0977C10.2657 25.0288 9.49038 25.5107 8.57307 25.5107H7.52746V27.036H7.0415V22.7148ZM8.59218 25.0671C9.30746 25.0671 9.7743 24.6837 9.7743 24.1032C9.7743 23.4871 9.31292 23.1639 8.61675 23.1639H7.52746V25.0644H8.59218V25.0671Z" fill="white"/>
<path d="M12.1904 24.8761C12.1904 23.6849 13.0832 22.6416 14.3936 22.6416C15.704 22.6416 16.5831 23.6712 16.5831 24.8761C16.5831 26.081 15.6904 27.1106 14.3799 27.1106C13.0695 27.1106 12.1904 26.081 12.1904 24.8761ZM16.078 24.8761C16.078 23.8958 15.3655 23.0934 14.3799 23.0934C13.3944 23.0934 12.6928 23.8848 12.6928 24.8761C12.6928 25.8674 13.4053 26.6588 14.3909 26.6588C15.3764 26.6588 16.078 25.8674 16.078 24.8761Z" fill="white"/>
<path d="M20.7465 26.7211C19.3541 26.7211 18.5679 25.9817 18.5679 24.8563C18.5679 23.7308 19.3623 22.9996 20.7465 22.9996V22.5752H21.2324V22.9996C22.6166 22.9996 23.411 23.7335 23.411 24.8563C23.411 25.979 22.622 26.7211 21.2324 26.7211V27.1976H20.7465V26.7211ZM20.7465 23.4433C19.6817 23.4433 19.0729 23.9499 19.0729 24.8617C19.0729 25.7736 19.6817 26.2748 20.7465 26.2748V23.4405V23.4433ZM22.906 24.8617C22.906 23.9471 22.2971 23.4433 21.2324 23.4433V26.2775C22.2971 26.2775 22.906 25.7846 22.906 24.8645V24.8617Z" fill="white"/>
<path d="M25.5869 22.7156H28.6992V23.1592H26.0729V24.6352H28.4235V25.0789H26.0729V26.5904H28.732V27.0341H25.5869V22.7129V22.7156Z" fill="white"/>
<path d="M30.7466 24.8761C30.7466 23.6548 31.6557 22.6416 32.9252 22.6416C33.706 22.6416 34.1619 22.9319 34.5932 23.3399L34.2738 23.6849C33.9107 23.3399 33.504 23.0934 32.9197 23.0934C31.9669 23.0934 31.2516 23.8711 31.2516 24.8761C31.2516 25.8811 31.9724 26.6588 32.9197 26.6588C33.5094 26.6588 33.8971 26.4315 34.3093 26.0345L34.6287 26.374C34.1783 26.8313 33.6869 27.1079 32.9061 27.1079C31.6639 27.1079 30.7466 26.1276 30.7466 24.8734V24.8761Z" fill="white"/>
<path d="M36.5156 24.8761C36.5156 23.6548 37.4275 22.6416 38.6942 22.6416C39.475 22.6416 39.9309 22.9319 40.3623 23.3399L40.0429 23.6849C39.6798 23.3399 39.273 23.0934 38.6888 23.0934C37.736 23.0934 37.0207 23.8711 37.0207 24.8761C37.0207 25.8811 37.7414 26.6588 38.6888 26.6588C39.2785 26.6588 39.6661 26.4315 40.0784 26.0345L40.3978 26.374C39.9473 26.8313 39.4559 27.1079 38.6751 27.1079C37.4329 27.1079 36.5156 26.1276 36.5156 24.8734V24.8761Z" fill="white"/>
<path d="M42.4749 22.7148H42.9609V26.3021L45.5326 22.7148H45.994V27.036H45.5135V23.4487L42.9472 27.036H42.4722V22.7148H42.4749Z" fill="white"/>
<path d="M48.252 24.8761C48.252 23.6849 49.1447 22.6416 50.4551 22.6416C51.7656 22.6416 52.6446 23.6712 52.6446 24.8761C52.6446 26.081 51.7519 27.1106 50.4415 27.1106C49.131 27.1106 48.252 26.081 48.252 24.8761ZM52.1423 24.8761C52.1423 23.8958 51.427 23.0934 50.4442 23.0934C49.4614 23.0934 48.757 23.8848 48.757 24.8761C48.757 25.8674 49.4696 26.6588 50.4551 26.6588C51.4407 26.6588 52.1423 25.8674 52.1423 24.8761Z" fill="white"/>
<path d="M54.8999 22.7148H55.3859V24.6345H57.8729V22.7148H58.3589V27.036H57.8729V25.0918H55.3859V27.036H54.8999V22.7148Z" fill="white"/>
<path d="M62.3992 22.6855H62.8552L64.8181 27.0368H64.2939L63.7888 25.8949H61.4437L60.9332 27.0368H60.4336L62.3965 22.6855H62.3992ZM63.6005 25.4568L62.6231 23.2524L61.6376 25.4568H63.6005Z" fill="white"/>
<path d="M66.2539 26.9814L66.3522 26.5871C66.4204 26.6172 66.5979 26.6474 66.7344 26.6474C67.0675 26.6474 67.6271 26.4447 67.6271 23.501V22.7178H70.4145V27.0389H69.9286V23.1641H68.094V23.6324C68.094 26.6638 67.4797 27.0882 66.8136 27.0882C66.6225 27.0882 66.3631 27.028 66.2539 26.9842V26.9814Z" fill="white"/>
<path d="M72.8608 22.7148H73.3468V24.388H74.4361C75.3589 24.388 76.1096 24.7577 76.1096 25.6586C76.1096 26.5048 75.4872 27.036 74.5098 27.036H72.8608V22.7148ZM74.4962 26.5897C75.1841 26.5897 75.6237 26.2802 75.6237 25.6696C75.6237 25.1082 75.1814 24.8234 74.4661 24.8234H73.3468V26.5897H74.4989H74.4962Z" fill="white"/>
<path d="M78.2256 22.7148H78.7115V24.6345H81.1986V22.7148H81.6846V27.036H81.1986V25.0918H78.7115V27.036H78.2256V22.7148Z" fill="white"/>
<path d="M83.9395 24.8761C83.9395 23.6849 84.8322 22.6416 86.1426 22.6416C87.453 22.6416 88.3321 23.6712 88.3321 24.8761C88.3321 26.081 87.4394 27.1106 86.129 27.1106C84.8185 27.1106 83.9395 26.081 83.9395 24.8761ZM87.8298 24.8761C87.8298 23.8958 87.1145 23.0934 86.1317 23.0934C85.1489 23.0934 84.4445 23.8848 84.4445 24.8761C84.4445 25.8674 85.1571 26.6588 86.1426 26.6588C87.1282 26.6588 87.8298 25.8674 87.8298 24.8761Z" fill="white"/>
<path d="M90.5869 22.7156H93.6992V23.1592H91.0729V24.6352H93.4235V25.0789H91.0729V26.5904H93.732V27.0341H90.5869V22.7129V22.7156Z" fill="white"/>
<path d="M99.0149 22.7148H99.5063L101.076 25.0726L102.646 22.7148H103.137V27.036H102.651V23.5364L101.082 25.8503H101.057L99.4872 23.5418V27.036H99.0122V22.7148H99.0149Z" fill="white"/>
<path d="M105.584 22.7156H108.696V23.1592H106.07V24.6352H108.421V25.0789H106.07V26.5904H108.729V27.0341H105.584V22.7129V22.7156Z" fill="white"/>
<path d="M110.388 26.5926H110.831C111.243 25.9326 111.483 24.8701 111.483 23.4708V22.7178H114.301V26.5926H114.86L114.787 28.0001H114.38V27.0362H110.885L110.798 28.0001H110.386V26.5926H110.388ZM113.815 26.5926V23.1614H111.95V23.7228C111.95 24.84 111.734 26.0011 111.377 26.5926H113.812H113.815Z" fill="white"/>
<path d="M116.804 22.7148H117.29V26.3021L119.862 22.7148H120.324V27.036H119.843V23.4487L117.277 27.036H116.802V22.7148H116.804Z" fill="white"/>
<path d="M126.283 27.036H122.77V22.7148H123.255V26.5897H125.718V22.7148H126.204V26.5897H126.764L126.69 27.9972H126.283V27.0333V27.036Z" fill="white"/>
<path d="M128.704 22.7148H129.19V26.3021L131.762 22.7148H132.223V27.036H131.742V23.4487L129.176 27.036H128.701V22.7148H128.704Z" fill="white"/>
<path d="M134.672 22.7148H135.158V24.6345H137.645V22.7148H138.131V27.036H137.645V25.0918H135.158V27.036H134.672V22.7148Z" fill="white"/>
<path d="M140.384 24.8761C140.384 23.6548 141.296 22.6416 142.562 22.6416C143.343 22.6416 143.799 22.9319 144.23 23.3399L143.911 23.6849C143.548 23.3399 143.141 23.0934 142.557 23.0934C141.604 23.0934 140.889 23.8711 140.889 24.8761C140.889 25.8811 141.61 26.6588 142.557 26.6588C143.147 26.6588 143.534 26.4315 143.947 26.0345L144.266 26.374C143.815 26.8313 143.324 27.1079 142.543 27.1079C141.301 27.1079 140.384 26.1276 140.384 24.8734V24.8761Z" fill="white"/>
<path d="M146.347 22.7148H146.833V25.2944L149.306 22.7148H149.934L148.088 24.6043L150.013 27.036H149.404L147.75 24.9439L146.833 25.8749V27.036H146.347V22.7148Z" fill="white"/>
<path d="M151.623 24.8761C151.623 23.6849 152.516 22.6416 153.826 22.6416C155.137 22.6416 156.016 23.6712 156.016 24.8761C156.016 26.081 155.123 27.1106 153.813 27.1106C152.502 27.1106 151.623 26.081 151.623 24.8761ZM155.513 24.8761C155.513 23.8958 154.798 23.0934 153.815 23.0934C152.832 23.0934 152.128 23.8848 152.128 24.8761C152.128 25.8674 152.841 26.6588 153.826 26.6588C154.812 26.6588 155.513 25.8674 155.513 24.8761Z" fill="white"/>
<path d="M158.271 22.7156H161.384V23.1592H158.757V24.6352H161.108V25.0789H158.757V26.5904H161.417V27.0341H158.271V22.7129V22.7156Z" fill="white"/>
<path d="M166.508 24.8761C166.508 23.6849 167.401 22.6416 168.711 22.6416C170.021 22.6416 170.9 23.6712 170.9 24.8761C170.9 26.081 170.008 27.1106 168.697 27.1106C167.387 27.1106 166.508 26.081 166.508 24.8761ZM170.398 24.8761C170.398 23.8958 169.683 23.0934 168.7 23.0934C167.717 23.0934 167.013 23.8848 167.013 24.8761C167.013 25.8674 167.725 26.6588 168.711 26.6588C169.697 26.6588 170.398 25.8674 170.398 24.8761Z" fill="white"/>
<path d="M173.155 22.7148H176.246V23.1585H173.641V24.4866H174.916C175.833 24.4866 176.551 24.8754 176.551 25.7462C176.551 26.617 175.924 27.036 174.965 27.036H173.155V22.7148ZM174.927 26.5897C175.623 26.5897 176.066 26.3432 176.066 25.7189C176.066 25.1767 175.618 24.9165 174.903 24.9165H173.641V26.5897H174.927Z" fill="white"/>
<path d="M178.55 24.8761C178.55 23.6849 179.443 22.6416 180.753 22.6416C182.063 22.6416 182.942 23.6712 182.942 24.8761C182.942 26.081 182.05 27.1106 180.739 27.1106C179.429 27.1106 178.55 26.081 178.55 24.8761ZM182.437 24.8761C182.437 23.8958 181.725 23.0934 180.739 23.0934C179.754 23.0934 179.052 23.8848 179.052 24.8761C179.052 25.8674 179.765 26.6588 180.75 26.6588C181.736 26.6588 182.437 25.8674 182.437 24.8761Z" fill="white"/>
<path d="M185.2 22.7148H186.814C187.786 22.7148 188.424 23.2324 188.424 24.0977C188.424 25.0288 187.649 25.5107 186.732 25.5107H185.686V27.036H185.2V22.7148ZM186.751 25.0671C187.466 25.0671 187.933 24.6837 187.933 24.1032C187.933 23.4871 187.472 23.1639 186.775 23.1639H185.686V25.0644H186.751V25.0671Z" fill="white"/>
<path d="M190.262 26.932L190.453 26.5431C190.625 26.6362 190.772 26.6718 191.001 26.6718C191.296 26.6718 191.61 26.5048 191.861 26.0228L189.967 22.7148H190.521L192.107 25.5354L193.48 22.7148H194.01L192.306 26.1269C191.954 26.8361 191.501 27.1072 190.991 27.1072C190.707 27.1072 190.494 27.0442 190.264 26.9292L190.262 26.932Z" fill="white"/>
<path d="M195.274 26.5926H195.716C196.129 25.9326 196.369 24.8701 196.369 23.4708V22.7178H199.186V26.5926H199.746L199.672 28.0001H199.266V27.0362H195.771L195.684 28.0001H195.271V26.5926H195.274ZM198.7 26.5926V23.1614H196.836V23.7228C196.836 24.84 196.62 26.0011 196.263 26.5926H198.698H198.7Z" fill="white"/>
<path d="M201.499 24.8761C201.499 23.6849 202.392 22.6416 203.702 22.6416C205.013 22.6416 205.892 23.6712 205.892 24.8761C205.892 26.081 204.999 27.1106 203.689 27.1106C202.378 27.1106 201.499 26.081 201.499 24.8761ZM205.389 24.8761C205.389 23.8958 204.674 23.0934 203.691 23.0934C202.708 23.0934 202.004 23.8848 202.004 24.8761C202.004 25.8674 202.717 26.6588 203.702 26.6588C204.688 26.6588 205.389 25.8674 205.389 24.8761Z" fill="white"/>
<path d="M208.148 22.7148H209.983C210.474 22.7148 210.87 22.8518 211.111 23.0982C211.288 23.2844 211.386 23.5117 211.386 23.802C211.386 24.3634 211.042 24.6536 210.704 24.8015C211.214 24.9548 211.627 25.2533 211.627 25.8558C211.627 26.5951 211.004 27.036 210.062 27.036H208.148V22.7148ZM209.901 24.6399C210.485 24.6399 210.892 24.3743 210.892 23.8568C210.892 23.4323 210.554 23.153 209.939 23.153H208.629V24.6399H209.901ZM210.073 26.5951C210.726 26.5951 211.132 26.3049 211.132 25.812C211.132 25.3191 210.739 25.0726 209.989 25.0726H208.629V26.5979H210.076L210.073 26.5951Z" fill="white"/>
<path d="M215.292 22.6855H215.748L217.711 27.0368H217.186L216.681 25.8949H214.336L213.826 27.0368H213.326L215.289 22.6855H215.292ZM216.493 25.4568L215.516 23.2524L214.53 25.4568H216.493Z" fill="white"/>
<path d="M219.785 22.7148H220.271V24.6345H222.758V22.7148H223.244V27.036H222.758V25.0918H220.271V27.036H219.785V22.7148Z" fill="white"/>
<path d="M225.69 22.7148H226.176V26.3021L228.748 22.7148H229.209V27.036H228.729V23.4487L226.163 27.036H225.688V22.7148H225.69Z" fill="white"/>
<path d="M231.657 22.7156H234.769V23.1592H232.143V24.6352H234.494V25.0789H232.143V26.5904H234.802V27.0341H231.657V22.7129V22.7156Z" fill="white"/>
</g>
<defs>
<clipPath id="clip0_266_497">
<rect width="235.07" height="28" fill="white" transform="translate(0.464844)"/>
</clipPath>
</defs>
</svg>
