<svg width="269" height="32" viewBox="0 0 269 32" fill="none" xmlns="http://www.w3.org/2000/svg">
<g clip-path="url(#clip0_267_643)">
<path d="M0 0.228462H7.1637C8.98895 0.228462 10.4242 0.732325 11.3384 1.64616C12.0466 2.35658 12.4117 3.22347 12.4117 4.347C12.4117 6.26856 11.3165 7.29819 10.1309 7.91785C11.9998 8.55942 13.3009 9.63286 13.3009 11.8549C13.3009 14.7153 10.9515 16.2488 7.39459 16.2488H0V0.228462ZM6.59272 6.97898C8.39613 6.97898 9.6036 6.26856 9.6036 4.7601C9.6036 3.50201 8.59894 2.72274 6.79865 2.72274H2.76127V6.97898H6.59272ZM7.41331 13.7514C9.32903 13.7514 10.4928 12.9972 10.4928 11.5075C10.4928 10.1586 9.41952 9.35746 7.20738 9.35746H2.75815V13.7514H7.41331Z" fill="black"/>
<path d="M21.0356 0.228462H32.8732V2.74465H23.8406V6.91013H31.8467V9.42631H23.8406V13.7264H32.9887V16.2425H21.0356V0.228462Z" fill="black"/>
<path d="M46.5421 0.115791H49.1443L56.1707 16.2457H53.2066L51.5873 12.3775H44.0367L42.3956 16.2457H39.522L46.5421 0.115791ZM50.5577 9.88635L47.7964 3.48009L45.0601 9.88635H50.5577Z" fill="black"/>
<path d="M62.6511 9.45135V0.228462H65.456V9.33555C65.456 12.3087 66.9849 13.911 69.4934 13.911C72.0019 13.911 73.5089 12.3994 73.5089 9.44822V0.228462H76.3139V9.31365C76.3139 14.0957 73.6213 16.4992 69.4466 16.4992C65.2719 16.4992 62.6479 14.0957 62.6479 9.45135H62.6511Z" fill="black"/>
<path d="M88.6601 2.83854H83.5962V0.228462H96.5539V2.83541H91.49V16.2457H88.6601V2.83854Z" fill="black"/>
<path d="M108.785 9.93017L102.441 0.228462H105.749L110.22 7.3201L114.738 0.228462H117.954L111.611 9.86132V16.2457H108.781V9.93017H108.785Z" fill="black"/>
<path d="M135.318 13.911L137.006 11.8987C138.535 13.2256 140.064 13.9799 142.048 13.9799C143.783 13.9799 144.878 13.1787 144.878 11.9206C144.878 10.7752 144.238 10.1586 141.274 9.44821C137.877 8.64704 135.958 7.63931 135.958 4.6443C135.958 1.89966 138.238 0 141.408 0C143.736 0 145.583 0.710416 147.202 2.01232L145.695 4.14044C144.257 3.06386 142.822 2.49428 141.362 2.49428C139.72 2.49428 138.76 3.33927 138.76 4.43775C138.76 5.67394 139.49 6.22161 142.547 6.95394C145.923 7.77702 147.68 8.99129 147.68 11.689C147.68 14.6871 145.33 16.471 141.976 16.471C139.536 16.471 137.231 15.626 135.315 13.9079L135.318 13.911Z" fill="black"/>
<path d="M159.57 9.93017L153.23 0.228462H156.537L161.008 7.3201L165.526 0.228462H168.743L162.4 9.86132V16.2457H159.57V9.93017Z" fill="black"/>
<path d="M173.901 13.911L175.589 11.8987C177.117 13.2256 178.646 13.9799 180.631 13.9799C182.365 13.9799 183.461 13.1787 183.461 11.9206C183.461 10.7752 182.821 10.1586 179.857 9.44821C176.459 8.64704 174.54 7.63931 174.54 4.6443C174.54 1.89966 176.821 0 179.991 0C182.319 0 184.166 0.710416 185.785 2.01232L184.278 4.14044C182.84 3.06386 181.404 2.49428 179.944 2.49428C178.303 2.49428 177.342 3.33927 177.342 4.43775C177.342 5.67394 178.072 6.22161 181.13 6.95394C184.506 7.77702 186.262 8.99129 186.262 11.689C186.262 14.6871 183.913 16.471 180.559 16.471C178.119 16.471 175.813 15.626 173.897 13.9079L173.901 13.911Z" fill="black"/>
<path d="M197.719 2.83854H192.655V0.228462H205.613V2.83541H200.549V16.2457H197.719V2.83854Z" fill="black"/>
<path d="M213.142 0.228462H224.98V2.74465H215.947V6.91013H223.953V9.42631H215.947V13.7264H225.095V16.2425H213.142V0.228462Z" fill="black"/>
<path d="M232.992 0.228462H235.981L240.839 7.80206L245.697 0.228462H248.686V16.2457H245.881V4.7601L240.839 12.3118H240.748L235.753 4.80704V16.2488H232.992V0.228462Z" fill="black"/>
<path d="M256.286 13.911L257.974 11.8987C259.503 13.2256 261.032 13.9799 263.016 13.9799C264.751 13.9799 265.846 13.1787 265.846 11.9206C265.846 10.7752 265.207 10.1586 262.243 9.44821C258.845 8.64704 256.926 7.63931 256.926 4.6443C256.926 1.89966 259.207 0 262.377 0C264.704 0 266.551 0.710416 268.171 2.01232L266.664 4.14044C265.225 3.06386 263.79 2.49428 262.33 2.49428C260.689 2.49428 259.728 3.33927 259.728 4.43775C259.728 5.67394 260.458 6.22161 263.516 6.95394C266.891 7.77702 268.648 8.99129 268.648 11.689C268.648 14.6871 266.299 16.471 262.945 16.471C260.505 16.471 258.199 15.626 256.283 13.9079L256.286 13.911Z" fill="black"/>
<path d="M0.839355 25.9599H4.72073V30.8984H4.16536V26.47H1.39473V30.8984H0.839355V25.9599Z" fill="black"/>
<path d="M7.51611 25.9599H9.36008C10.4708 25.9599 11.2009 26.5514 11.2009 27.5403C11.2009 28.6044 10.3148 29.1552 9.26648 29.1552H8.07149V30.8984H7.51611V25.9599ZM9.28832 28.6482C10.1058 28.6482 10.6393 28.2101 10.6393 27.5466C10.6393 26.8424 10.112 26.4732 9.3164 26.4732H8.07149V28.6451H9.28832V28.6482Z" fill="black"/>
<path d="M13.4009 28.4291C13.4009 27.0678 14.4211 25.8754 15.9188 25.8754C17.4164 25.8754 18.4211 27.0521 18.4211 28.4291C18.4211 29.8062 17.4008 30.9829 15.9032 30.9829C14.4055 30.9829 13.4009 29.8062 13.4009 28.4291ZM17.8439 28.4291C17.8439 27.3088 17.0295 26.3918 15.9032 26.3918C14.7768 26.3918 13.975 27.2962 13.975 28.4291C13.975 29.5621 14.7893 30.4665 15.9157 30.4665C17.042 30.4665 17.8439 29.5621 17.8439 28.4291Z" fill="black"/>
<path d="M23.1793 30.5385C21.588 30.5385 20.6895 29.6935 20.6895 28.4072C20.6895 27.121 21.5974 26.2854 23.1793 26.2854V25.8003H23.7346V26.2854C25.3165 26.2854 26.2245 27.1241 26.2245 28.4072C26.2245 29.6904 25.3228 30.5385 23.7346 30.5385V31.083H23.1793V30.5385ZM23.1793 26.7924C21.9624 26.7924 21.2667 27.3713 21.2667 28.4135C21.2667 29.4556 21.9624 30.0284 23.1793 30.0284V26.7892V26.7924ZM25.6473 28.4135C25.6473 27.3682 24.9515 26.7924 23.7346 26.7924V30.0315C24.9515 30.0315 25.6473 29.4682 25.6473 28.4166V28.4135Z" fill="black"/>
<path d="M28.7109 25.9599H32.2678V26.4669H29.2663V28.1537H31.9527V28.6607H29.2663V30.3883H32.3053V30.8953H28.7109V25.9568V25.9599Z" fill="black"/>
<path d="M34.6079 28.4291C34.6079 27.0333 35.6469 25.8754 37.0977 25.8754C37.9901 25.8754 38.5111 26.2071 39.0041 26.6734L38.6391 27.0678C38.2241 26.6734 37.7592 26.3918 37.0915 26.3918C36.0026 26.3918 35.1851 27.2806 35.1851 28.4291C35.1851 29.5777 36.0088 30.4665 37.0915 30.4665C37.7654 30.4665 38.2085 30.2067 38.6796 29.753L39.0447 30.141C38.5298 30.6637 37.9682 30.9798 37.0759 30.9798C35.6563 30.9798 34.6079 29.8594 34.6079 28.426V28.4291Z" fill="black"/>
<path d="M41.2007 28.4291C41.2007 27.0333 42.2428 25.8754 43.6905 25.8754C44.5828 25.8754 45.1039 26.2071 45.5969 26.6734L45.2318 27.0678C44.8169 26.6734 44.352 26.3918 43.6843 26.3918C42.5954 26.3918 41.7779 27.2806 41.7779 28.4291C41.7779 29.5777 42.6016 30.4665 43.6843 30.4665C44.3582 30.4665 44.8013 30.2067 45.2724 29.753L45.6374 30.141C45.1226 30.6637 44.561 30.9798 43.6687 30.9798C42.249 30.9798 41.2007 29.8594 41.2007 28.426V28.4291Z" fill="black"/>
<path d="M48.0119 25.9599H48.5673V30.0597L51.5064 25.9599H52.0337V30.8984H51.4846V26.7986L48.5517 30.8984H48.0088V25.9599H48.0119Z" fill="black"/>
<path d="M54.6138 28.4291C54.6138 27.0678 55.634 25.8754 57.1317 25.8754C58.6293 25.8754 59.634 27.0521 59.634 28.4291C59.634 29.8062 58.6137 30.9829 57.1161 30.9829C55.6184 30.9829 54.6138 29.8062 54.6138 28.4291ZM59.0599 28.4291C59.0599 27.3088 58.2424 26.3918 57.1192 26.3918C55.996 26.3918 55.191 27.2962 55.191 28.4291C55.191 29.5621 56.0053 30.4665 57.1317 30.4665C58.258 30.4665 59.0599 29.5621 59.0599 28.4291Z" fill="black"/>
<path d="M62.2114 25.9599H62.7668V28.1537H65.6092V25.9599H66.1646V30.8984H65.6092V28.6764H62.7668V30.8984H62.2114V25.9599Z" fill="black"/>
<path d="M70.7821 25.9255H71.3032L73.5465 30.8984H72.9474L72.3702 29.5933H69.6901L69.1066 30.8984H68.5356L70.779 25.9255H70.7821ZM72.1549 29.0926L71.0379 26.5733L69.9116 29.0926H72.1549Z" fill="black"/>
<path d="M75.1875 30.8358L75.2998 30.3851C75.3778 30.4196 75.5806 30.454 75.7366 30.454C76.1173 30.454 76.7569 30.2224 76.7569 26.8581V25.963H79.9425V30.9015H79.3871V26.4732H77.2904V27.0083C77.2904 30.4728 76.5884 30.9579 75.8271 30.9579C75.6087 30.9579 75.3123 30.889 75.1875 30.8389V30.8358Z" fill="black"/>
<path d="M82.7383 25.9599H83.2937V27.8721H84.5386C85.5932 27.8721 86.4512 28.2946 86.4512 29.3242C86.4512 30.2912 85.7398 30.8984 84.6228 30.8984H82.7383V25.9599ZM84.6072 30.3883C85.3935 30.3883 85.8958 30.0346 85.8958 29.3367C85.8958 28.6952 85.3903 28.3697 84.5729 28.3697H83.2937V30.3883H84.6103H84.6072Z" fill="black"/>
<path d="M88.8691 25.9599H89.4245V28.1537H92.2669V25.9599H92.8223V30.8984H92.2669V28.6764H89.4245V30.8984H88.8691V25.9599Z" fill="black"/>
<path d="M95.3994 28.4291C95.3994 27.0678 96.4197 25.8754 97.9173 25.8754C99.4149 25.8754 100.42 27.0521 100.42 28.4291C100.42 29.8062 99.3994 30.9829 97.9017 30.9829C96.4041 30.9829 95.3994 29.8062 95.3994 28.4291ZM99.8455 28.4291C99.8455 27.3088 99.0281 26.3918 97.9048 26.3918C96.7816 26.3918 95.9766 27.2962 95.9766 28.4291C95.9766 29.5621 96.791 30.4665 97.9173 30.4665C99.0437 30.4665 99.8455 29.5621 99.8455 28.4291Z" fill="black"/>
<path d="M102.997 25.9599H106.554V26.4669H103.552V28.1537H106.239V28.6607H103.552V30.3883H106.591V30.8953H102.997V25.9568V25.9599Z" fill="black"/>
<path d="M112.629 25.9599H113.19L114.984 28.6545L116.778 25.9599H117.34V30.8984H116.785V26.8988L114.991 29.5433H114.962L113.168 26.905V30.8984H112.625V25.9599H112.629Z" fill="black"/>
<path d="M120.135 25.9599H123.692V26.4669H120.691V28.1537H123.377V28.6607H120.691V30.3883H123.73V30.8953H120.135V25.9568V25.9599Z" fill="black"/>
<path d="M125.627 30.3914H126.132C126.603 29.6372 126.878 28.4229 126.878 26.8237V25.963H130.098V30.3914H130.737L130.653 32H130.188V30.8984H126.195L126.095 32H125.624V30.3914H125.627ZM129.542 30.3914V26.47H127.411V27.1116C127.411 28.3885 127.165 29.7154 126.756 30.3914H129.539H129.542Z" fill="black"/>
<path d="M132.959 25.9599H133.515V30.0597L136.454 25.9599H136.981V30.8984H136.432V26.7986L133.499 30.8984H132.956V25.9599H132.959Z" fill="black"/>
<path d="M143.792 30.8984H139.776V25.9599H140.332V30.3883H143.146V25.9599H143.701V30.3883H144.341L144.257 31.9969H143.792V30.8953V30.8984Z" fill="black"/>
<path d="M146.559 25.9599H147.115V30.0597L150.054 25.9599H150.581V30.8984H150.032V26.7986L147.099 30.8984H146.556V25.9599H146.559Z" fill="black"/>
<path d="M153.38 25.9599H153.935V28.1537H156.778V25.9599H157.333V30.8984H156.778V28.6764H153.935V30.8984H153.38V25.9599Z" fill="black"/>
<path d="M159.907 28.4291C159.907 27.0333 160.949 25.8754 162.397 25.8754C163.289 25.8754 163.81 26.2071 164.303 26.6734L163.938 27.0678C163.523 26.6734 163.058 26.3918 162.391 26.3918C161.302 26.3918 160.484 27.2806 160.484 28.4291C160.484 29.5777 161.308 30.4665 162.391 30.4665C163.065 30.4665 163.508 30.2067 163.979 29.753L164.344 30.141C163.829 30.6637 163.268 30.9798 162.375 30.9798C160.956 30.9798 159.907 29.8594 159.907 28.426V28.4291Z" fill="black"/>
<path d="M166.721 25.9599H167.277V28.908L170.103 25.9599H170.821L168.712 28.1193L170.911 30.8984H170.216L168.325 28.5074L167.277 29.5714V30.8984H166.721V25.9599Z" fill="black"/>
<path d="M172.752 28.4291C172.752 27.0678 173.773 25.8754 175.27 25.8754C176.768 25.8754 177.773 27.0521 177.773 28.4291C177.773 29.8062 176.752 30.9829 175.255 30.9829C173.757 30.9829 172.752 29.8062 172.752 28.4291ZM177.199 28.4291C177.199 27.3088 176.381 26.3918 175.258 26.3918C174.135 26.3918 173.33 27.2962 173.33 28.4291C173.33 29.5621 174.144 30.4665 175.27 30.4665C176.397 30.4665 177.199 29.5621 177.199 28.4291Z" fill="black"/>
<path d="M180.35 25.9599H183.907V26.4669H180.905V28.1537H183.592V28.6607H180.905V30.3883H183.944V30.8953H180.35V25.9568V25.9599Z" fill="black"/>
<path d="M189.763 28.4291C189.763 27.0678 190.783 25.8754 192.281 25.8754C193.779 25.8754 194.783 27.0521 194.783 28.4291C194.783 29.8062 193.763 30.9829 192.265 30.9829C190.768 30.9829 189.763 29.8062 189.763 28.4291ZM194.209 28.4291C194.209 27.3088 193.392 26.3918 192.269 26.3918C191.145 26.3918 190.34 27.2962 190.34 28.4291C190.34 29.5621 191.155 30.4665 192.281 30.4665C193.407 30.4665 194.209 29.5621 194.209 28.4291Z" fill="black"/>
<path d="M197.36 25.9599H200.892V26.4669H197.916V27.9847H199.373C200.421 27.9847 201.242 28.4291 201.242 29.4243C201.242 30.4196 200.524 30.8984 199.429 30.8984H197.36V25.9599ZM199.385 30.3883C200.181 30.3883 200.686 30.1066 200.686 29.3931C200.686 28.7734 200.175 28.4761 199.357 28.4761H197.916V30.3883H199.385Z" fill="black"/>
<path d="M203.526 28.4291C203.526 27.0678 204.546 25.8754 206.044 25.8754C207.541 25.8754 208.546 27.0521 208.546 28.4291C208.546 29.8062 207.526 30.9829 206.028 30.9829C204.531 30.9829 203.526 29.8062 203.526 28.4291ZM207.969 28.4291C207.969 27.3088 207.155 26.3918 206.028 26.3918C204.902 26.3918 204.1 27.2962 204.1 28.4291C204.1 29.5621 204.914 30.4665 206.041 30.4665C207.167 30.4665 207.969 29.5621 207.969 28.4291Z" fill="black"/>
<path d="M211.126 25.9599H212.97C214.081 25.9599 214.811 26.5514 214.811 27.5403C214.811 28.6044 213.925 29.1552 212.877 29.1552H211.682V30.8984H211.126V25.9599ZM212.899 28.6482C213.716 28.6482 214.25 28.2101 214.25 27.5466C214.25 26.8424 213.722 26.4732 212.927 26.4732H211.682V28.6451H212.899V28.6482Z" fill="black"/>
<path d="M216.911 30.7795L217.129 30.3351C217.326 30.4415 217.494 30.4822 217.756 30.4822C218.093 30.4822 218.452 30.2912 218.739 29.7404L216.574 25.9599H217.207L219.02 29.1834L220.589 25.9599H221.195L219.248 29.8594C218.845 30.6699 218.327 30.9798 217.744 30.9798C217.419 30.9798 217.176 30.9078 216.914 30.7763L216.911 30.7795Z" fill="black"/>
<path d="M222.639 30.3914H223.145C223.616 29.6372 223.891 28.4229 223.891 26.8237V25.963H227.11V30.3914H227.75L227.666 32H227.201V30.8984H223.207L223.107 32H222.636V30.3914H222.639ZM226.555 30.3914V26.47H224.424V27.1116C224.424 28.3885 224.178 29.7154 223.769 30.3914H226.552H226.555Z" fill="black"/>
<path d="M229.753 28.4291C229.753 27.0678 230.773 25.8754 232.271 25.8754C233.768 25.8754 234.773 27.0521 234.773 28.4291C234.773 29.8062 233.753 30.9829 232.255 30.9829C230.758 30.9829 229.753 29.8062 229.753 28.4291ZM234.199 28.4291C234.199 27.3088 233.382 26.3918 232.258 26.3918C231.135 26.3918 230.33 27.2962 230.33 28.4291C230.33 29.5621 231.144 30.4665 232.271 30.4665C233.397 30.4665 234.199 29.5621 234.199 28.4291Z" fill="black"/>
<path d="M237.354 25.9599H239.45C240.012 25.9599 240.464 26.1164 240.739 26.398C240.942 26.6109 241.054 26.8706 241.054 27.2023C241.054 27.8439 240.661 28.1756 240.274 28.3446C240.857 28.5199 241.328 28.861 241.328 29.5495C241.328 30.3945 240.617 30.8984 239.541 30.8984H237.354V25.9599ZM239.357 28.16C240.024 28.16 240.489 27.8564 240.489 27.2649C240.489 26.7799 240.102 26.4606 239.4 26.4606H237.903V28.16H239.357ZM239.553 30.3945C240.299 30.3945 240.764 30.0628 240.764 29.4995C240.764 28.9361 240.314 28.6545 239.456 28.6545H237.903V30.3977H239.556L239.553 30.3945Z" fill="black"/>
<path d="M245.516 25.9255H246.037L248.28 30.8984H247.681L247.104 29.5933H244.424L243.841 30.8984H243.27L245.513 25.9255H245.516ZM246.889 29.0926L245.772 26.5733L244.645 29.0926H246.889Z" fill="black"/>
<path d="M250.651 25.9599H251.207V28.1537H254.049V25.9599H254.605V30.8984H254.049V28.6764H251.207V30.8984H250.651V25.9599Z" fill="black"/>
<path d="M257.4 25.9599H257.955V30.0597L260.895 25.9599H261.422V30.8984H260.873V26.7986L257.94 30.8984H257.397V25.9599H257.4Z" fill="black"/>
<path d="M264.221 25.9599H267.778V26.4669H264.776V28.1537H267.462V28.6607H264.776V30.3883H267.815V30.8953H264.221V25.9568V25.9599Z" fill="black"/>
</g>
<defs>
<clipPath id="clip0_267_643">
<rect width="268.651" height="32" fill="white"/>
</clipPath>
</defs>
</svg>
