<svg width="24" height="24" viewBox="0 0 24 24" fill="none" xmlns="http://www.w3.org/2000/svg">
<g clip-path="url(#clip0_500_103)">
<path d="M16.2554 0.766602H7.82091C3.91037 0.766602 0.766602 3.91037 0.766602 7.82091V16.2554C0.766602 20.166 3.91037 23.3097 7.82091 23.3097H16.2554C20.166 23.3097 23.3097 20.166 23.3097 16.2554V7.82091C23.3097 3.91037 20.166 0.766602 16.2554 0.766602Z" stroke="#333399" stroke-width="2" stroke-miterlimit="10"/>
<path d="M21.6996 11.8083C20.9329 11.8083 20.1661 11.7316 19.3993 11.655C18.6326 11.655 17.8658 11.5016 17.1757 11.2716C16.4856 11.1182 15.7955 10.8115 15.1821 10.3514C14.6453 9.96805 14.1853 9.50799 13.7252 8.97125C13.1885 8.20447 12.8818 7.36102 12.6517 6.51757C12.4984 5.7508 12.4217 4.98403 12.345 4.21725C12.345 3.60383 12.345 3.06709 12.2683 2.45367C12.2683 1.6869 12.2683 0.996805 12.1917 0.230032C12.1917 0.153355 12.1917 0.0766773 12.1917 0H11.885C11.885 0.153355 11.885 0.306709 11.885 0.460064C11.885 1.15016 11.885 1.91693 11.8083 2.60703C11.8083 3.14377 11.8083 3.68051 11.7316 4.21725C11.7316 4.90735 11.5782 5.59744 11.4249 6.28754C11.2715 7.05431 11.0415 7.74441 10.6581 8.4345C10.3514 9.04792 9.89134 9.50799 9.3546 9.96805C8.58783 10.5815 7.74438 10.9649 6.82425 11.1949C6.28751 11.3482 5.82744 11.4249 5.2907 11.5016C4.83064 11.5016 4.44725 11.5783 3.98719 11.655C3.52712 11.655 2.99038 11.655 2.53032 11.7316C1.84022 11.7316 1.15013 11.7316 0.46003 11.8083C0.383352 11.8083 0.229998 11.8083 0.15332 11.8083V12.0383C0.15332 12.0383 0.15332 12.0383 0.229998 12.0383C0.536707 12.0383 0.920094 12.0383 1.2268 12.0383C1.99358 12.0383 2.68367 12.0383 3.45045 12.115C3.98719 12.115 4.60061 12.1917 5.13735 12.2684C5.82744 12.345 6.51754 12.4984 7.20763 12.6518C8.28112 12.9585 9.20124 13.4952 9.96802 14.3387C10.5048 14.9521 10.8881 15.6422 11.1949 16.4089C11.5016 17.3291 11.6549 18.2492 11.7316 19.1693C11.7316 20.0128 11.885 20.9329 11.885 21.7764C11.885 22.3898 11.885 23.0032 11.885 23.6933C11.885 23.6933 11.885 23.77 11.885 23.8466H12.115C12.115 23.8466 12.115 23.8466 12.115 23.77C12.115 23.4633 12.115 23.2332 12.115 22.9265C12.115 22.3131 12.115 21.623 12.1917 21.0096C12.1917 20.2428 12.2683 19.5527 12.345 18.7859C12.345 18.0958 12.575 17.4058 12.7284 16.7923C13.0351 15.7188 13.5719 14.7987 14.4153 14.0319C15.1054 13.4185 15.8722 13.0351 16.7156 12.7284C17.6357 12.4217 18.5559 12.2684 19.5527 12.1917C20.2428 12.1917 20.8562 12.115 21.5463 12.0383C22.2364 12.0383 22.9265 12.0383 23.6933 11.9617C23.7699 11.9617 23.9233 11.9617 24 11.9617V11.7316C23.5399 11.7316 23.0032 11.7316 22.5431 11.7316C22.2364 11.7316 21.9297 11.7316 21.6996 11.7316V11.8083Z" fill="#333399"/>
</g>
<defs>
<clipPath id="clip0_500_103">
<rect width="24" height="24" fill="white"/>
</clipPath>
</defs>
</svg>
