<svg width="65" height="64" viewBox="0 0 65 64" fill="none" xmlns="http://www.w3.org/2000/svg">
<g clip-path="url(#clip0_1002_12735)">
<path d="M63.22 32.7111C63.22 30.08 63.0065 28.16 62.5445 26.1689H32.5V38.0444H50.1354C49.78 40.9956 47.86 45.44 43.5933 48.4265L43.5334 48.8241L53.0329 56.1833L53.6911 56.2489C59.7354 50.6667 63.22 42.4533 63.22 32.7111Z" fill="#4285F4"/>
<path d="M32.5008 63.9999C41.1407 63.9999 48.3939 61.1554 53.6919 56.2489L43.5941 48.4264C40.8919 50.3109 37.2651 51.6264 32.5008 51.6264C24.0386 51.6264 16.8565 46.0444 14.2962 38.3289L13.921 38.3607L4.04324 46.0052L3.91406 46.3643C9.17623 56.8175 19.9851 63.9999 32.5008 63.9999Z" fill="#34A853"/>
<path d="M14.2954 38.3289C13.6199 36.3378 13.2289 34.2043 13.2289 32C13.2289 29.7954 13.6199 27.6621 14.2599 25.6711L14.242 25.247L4.24048 17.4797L3.91325 17.6354C1.74446 21.9732 0.5 26.8444 0.5 32C0.5 37.1555 1.74446 42.0265 3.91325 46.3643L14.2954 38.3289Z" fill="#FBBC05"/>
<path d="M32.5008 12.3733C38.5096 12.3733 42.5629 14.9688 44.8741 17.1378L53.9051 8.32C48.3586 3.16446 41.1407 0 32.5008 0C19.9851 0 9.17623 7.18217 3.91406 17.6354L14.2607 25.6711C16.8565 17.9555 24.0386 12.3733 32.5008 12.3733Z" fill="#EB4335"/>
</g>
<defs>
<clipPath id="clip0_1002_12735">
<rect width="64" height="64" fill="white" transform="translate(0.5)"/>
</clipPath>
</defs>
</svg>
