<svg width="65" height="64" viewBox="0 0 65 64" fill="none" xmlns="http://www.w3.org/2000/svg">
<path d="M1.57031 30.7467C1.57031 16.6507 1.57031 9.60219 5.89703 5.23632C10.2629 0.85083 17.2528 0.85083 31.2506 0.85083H33.737C47.7349 0.85083 54.744 0.85083 59.0906 5.23632C63.437 9.62182 63.437 16.6699 63.437 30.7467V33.2527C63.437 47.3487 63.437 54.3973 59.0906 58.7631C54.7443 63.1486 47.7349 63.1486 33.737 63.1486H31.2506C17.2528 63.1486 10.2629 63.1486 5.89703 58.7631C1.57031 54.3777 1.57031 47.3295 1.57031 33.2527V30.7467Z" fill="#FF7700"/>
<path d="M39.9177 28.0064C38.9473 28.9879 37.7917 29.7671 36.518 30.2989C35.2443 30.8307 33.8777 31.1045 32.4975 31.1045C31.1172 31.1045 29.7506 30.8307 28.4769 30.2989C27.2032 29.7671 26.0477 28.9879 25.0772 28.0064C23.6142 26.5294 22.6191 24.6538 22.2164 22.6142C21.8137 20.5747 22.0213 18.4617 22.8132 16.5394C23.605 14.6172 24.9461 12.9711 26.6685 11.8071C28.391 10.643 30.4184 10.0125 32.4973 9.99463C34.58 10.0088 36.6122 10.638 38.3387 11.803C40.0652 12.9681 41.4091 14.6171 42.2018 16.5433C42.9944 18.4694 43.2004 20.5867 42.794 22.6295C42.3876 24.6723 41.3868 26.5495 39.9173 28.0256L39.9177 28.0064ZM32.478 15.7504C31.2124 15.7563 30.0007 16.2633 29.1078 17.1604C28.215 18.0574 27.7138 19.2715 27.7138 20.5372C27.7138 21.8028 28.215 23.017 29.1078 23.914C30.0007 24.8111 31.2124 25.318 32.478 25.324C33.7437 25.318 34.9554 24.8111 35.8483 23.914C36.7411 23.017 37.2423 21.8028 37.2423 20.5372C37.2423 19.2715 36.7411 18.0574 35.8483 17.1604C34.9554 16.2633 33.7437 15.7563 32.478 15.7504ZM43.5202 31.1392L46.5939 35.3681C46.7505 35.5834 46.7114 35.8771 46.5156 36.0337C43.9697 38.1096 40.983 39.5761 37.7837 40.3213L43.7159 51.8328C43.7567 51.9074 43.7774 51.9914 43.7759 52.0765C43.7744 52.1615 43.7507 52.2447 43.7072 52.3178C43.6637 52.391 43.6019 52.4515 43.5279 52.4935C43.4539 52.5354 43.3703 52.5574 43.2852 52.5571H36.9223C36.7265 52.5571 36.5503 52.4397 36.472 52.2635L32.4976 42.7681L28.5037 52.2635C28.4655 52.351 28.4025 52.4255 28.3225 52.4777C28.2425 52.5298 28.1489 52.5575 28.0534 52.5571H21.6905C21.3185 52.5571 21.1032 52.1656 21.2598 51.8328L27.2115 40.3213C24.079 39.5773 21.064 38.1677 18.4796 36.0337C18.3813 35.9563 18.3164 35.8442 18.2982 35.7204C18.28 35.5966 18.3099 35.4705 18.3817 35.3681L21.4751 31.1588C21.5155 31.1039 21.5666 31.0577 21.6253 31.023C21.6839 30.9883 21.749 30.9656 21.8165 30.9565C21.8841 30.9474 21.9528 30.9519 22.0186 30.9699C22.0844 30.9878 22.1459 31.0187 22.1995 31.0609C25.0293 33.6198 28.6833 35.0786 32.4975 35.1723C36.3152 35.1723 39.8784 33.5668 42.7955 31.0609C42.9913 30.8651 43.3437 30.9043 43.5199 31.1392L43.5202 31.1392Z" fill="white"/>
</svg>
