<svg width="24" height="24" viewBox="0 0 24 24" fill="none" xmlns="http://www.w3.org/2000/svg">
<path fill-rule="evenodd" clip-rule="evenodd" d="M5.93751 3.25C5.84376 3.25 5.75001 3.28127 5.65626 3.34377C4.56251 4.12502 3.43751 5.25002 3.28126 5.68752C3.37501 8.03127 5.43751 11.3125 9.09376 14.9688C12.7188 18.5938 16 20.6562 18.3438 20.7812C18.7813 20.5937 19.9063 19.4688 20.7188 18.375C20.8125 18.2188 20.8125 18.125 20.8125 18.0625C20.2813 17.7188 17.375 15.7812 16.9063 15.4687C16.8854 15.4687 16.875 15.4687 16.875 15.4687C16.8438 15.4687 16.6875 15.4688 16.5 15.5938C16.2188 15.7188 15.4063 16.1875 14.75 16.5625L14.0625 16.9688L13.4063 16.5C12.9375 16.1563 11.875 15.375 10.2813 13.75C8.68751 12.1562 7.87501 11.0937 7.53126 10.625L7.06251 9.96875L7.46875 9.28127C7.96876 8.40627 8.34376 7.78127 8.43751 7.56252C8.56251 7.34377 8.5625 7.21875 8.5625 7.15625C8.21875 6.625 6.34375 3.75 6 3.25C5.97917 3.25 5.95834 3.25 5.93751 3.25ZM5.93751 2C6.34376 2 6.75 2.15626 6.96875 2.43751C7.1875 2.78126 9.40625 6.12501 9.65625 6.50001C9.90626 6.93751 9.87501 7.53124 9.56251 8.12499C9.37501 8.46874 8.81251 9.43752 8.5625 9.90627C8.84375 10.3438 9.625 11.3125 11.1563 12.875C12.7188 14.4375 13.7188 15.1875 14.125 15.4687C14.5938 15.2187 15.5938 14.6562 15.9063 14.5C16.25 14.3125 16.5625 14.2187 16.875 14.2187C17.125 14.2187 17.3333 14.2708 17.5 14.375C17.9375 14.625 21.2813 16.875 21.5625 17.0625C22.0938 17.4375 22.2813 18.3125 21.7188 19.0937C21.7188 19.125 19.5938 22.0312 18.4063 22.0312H18.375C14.9688 21.9062 10.9688 18.5938 8.1875 15.8438C5.4375 13.0938 2.12501 9.06248 2.03126 5.65623C1.96876 4.46873 4.90625 2.3125 4.9375 2.3125C5.25 2.09375 5.59376 2 5.93751 2ZM20.875 2.25002C21.125 2.00002 21.5 2.00002 21.75 2.25002C22 2.50002 22 2.87499 21.75 3.12499L16.6563 8.25H19.5938C19.8438 8.25 20.0938 8.40625 20.125 8.71875V9.03125C20.125 9.28125 19.9063 9.5 19.6563 9.5L15.1875 9.46876C15.1667 9.46876 15.1563 9.46876 15.1563 9.46876L14.9375 9.5C14.8125 9.5 14.6875 9.43749 14.625 9.37499C14.5313 9.28124 14.5 9.15625 14.5 9.03125L14.5313 8.81252H14.5L14.5313 4.28127C14.5313 4.03127 14.75 3.875 15 3.875H15.3125C15.5625 3.875 15.7813 4.09375 15.75 4.34375V7.37498L20.875 2.25002Z" fill="white"/>
</svg>
