<svg width="24" height="24" viewBox="0 0 24 24" fill="none" xmlns="http://www.w3.org/2000/svg">
<g clip-path="url(#clip0_484_158)">
<path d="M16.2166 0.765625H7.7902C3.91404 0.765625 0.765625 3.91404 0.765625 7.7902V16.2166C0.765625 20.0928 3.91404 23.2412 7.7902 23.2412H16.2166C20.0928 23.2412 23.2412 20.0928 23.2412 16.2166V7.7902C23.2412 3.91404 20.0928 0.765625 16.2166 0.765625Z" stroke="#333399" stroke-width="2" stroke-miterlimit="10"/>
<path d="M18.9293 6.94836C19.7289 6.94836 20.3771 6.30015 20.3771 5.50055C20.3771 4.70094 19.7289 4.05273 18.9293 4.05273C18.1297 4.05273 17.4814 4.70094 17.4814 5.50055C17.4814 6.30015 18.1297 6.94836 18.9293 6.94836Z" fill="#333399"/>
<path d="M18.4389 17.1897C17.9179 16.4849 17.397 15.7725 16.8761 15.0677C16.7153 14.8456 16.5544 14.6311 16.3935 14.409C16.3935 14.409 16.3935 14.4013 16.3935 14.3936C16.3859 14.3783 16.3705 14.363 16.3629 14.34C16.3246 14.2864 16.2863 14.2404 16.248 14.1868C16.225 14.1562 16.202 14.1255 16.179 14.0872C16.1484 14.0489 16.1178 14.0106 16.0948 13.9723C16.0795 13.9417 16.0565 13.9187 16.0335 13.888C15.9875 13.8268 15.9875 13.8268 16.0641 13.8114C16.1101 13.8038 16.1561 13.7961 16.1944 13.7885C16.6463 13.6889 17.0753 13.5204 17.4277 13.1986C17.466 13.1527 17.5119 13.1144 17.5502 13.0684C17.5502 13.0684 17.5579 13.0607 17.5579 13.0531C17.7494 12.8386 17.8796 12.5858 17.9716 12.31C17.9792 12.2794 17.9869 12.2564 18.0022 12.2257V12.2104C18.0329 12.1032 18.0558 11.9959 18.0788 11.8887C18.1631 11.4367 18.1937 10.9848 18.1861 10.5251C18.1861 10.234 18.1861 9.95061 18.1784 9.65952C18.1631 9.45268 18.1631 9.24585 18.1324 9.03902C18.0941 8.77091 18.0405 8.5028 17.9409 8.24234C17.9256 8.20404 17.9179 8.16574 17.8796 8.14276C17.872 8.12744 17.8643 8.11212 17.8567 8.0968C17.5426 7.46098 17.0217 7.06264 16.3476 6.87113C15.9109 6.74857 15.459 6.72559 15.007 6.72559C11.8662 6.72559 8.73314 6.72559 5.59238 6.72559C5.5694 6.72559 5.53876 6.72559 5.52344 6.74091C5.52344 6.83283 5.52344 6.93242 5.52344 7.02434C5.52344 10.3796 5.52344 13.7348 5.52344 17.0824C5.52344 17.1131 5.52344 17.1437 5.52344 17.1744C5.52344 17.2663 5.53876 17.2739 5.62302 17.2739C6.45034 17.2739 7.27767 17.2739 8.09733 17.2739C8.12797 17.2739 8.15861 17.2739 8.18159 17.2586C8.20457 17.2203 8.19691 17.182 8.19691 17.1437C8.19691 16.1708 8.19691 15.1903 8.19691 14.2174C8.19691 14.1408 8.19691 14.0719 8.19691 13.9953C8.19691 13.8497 8.18159 13.8574 8.3348 13.8574H13.0842C13.0842 13.8574 13.1225 13.8574 13.1379 13.8574C13.1991 13.8574 13.2374 13.8727 13.2681 13.9264C13.3217 14.0106 13.3753 14.0872 13.429 14.1715C13.4519 14.1945 13.4749 14.2174 13.4902 14.2404C13.5975 14.4013 13.7047 14.5545 13.8043 14.7077C14.1107 15.175 14.4248 15.6346 14.7389 16.1019C14.9457 16.4007 15.1372 16.7071 15.3441 17.0058C15.4053 17.0901 15.4513 17.182 15.5279 17.251C15.5509 17.251 15.5662 17.251 15.5892 17.251C16.5391 17.251 17.4813 17.251 18.4312 17.251C18.4465 17.251 18.4695 17.2586 18.4848 17.2356C18.4695 17.2203 18.4542 17.1973 18.4465 17.1744L18.4389 17.1897ZM15.5662 10.9158C15.5662 11.2682 15.2751 11.5593 14.9227 11.5593H8.18159V9.03902H14.9227C15.2751 9.03902 15.5662 9.33012 15.5662 9.6825V10.9158Z" fill="#333399"/>
</g>
<defs>
<clipPath id="clip0_484_158">
<rect width="24" height="24" fill="white"/>
</clipPath>
</defs>
</svg>
