<svg width="24" height="24" viewBox="0 0 24 24" fill="none" xmlns="http://www.w3.org/2000/svg">
<g clip-path="url(#clip0_484_147)">
<path d="M16.2166 0.765625H7.7902C3.91404 0.765625 0.765625 3.91404 0.765625 7.7902V16.2166C0.765625 20.0928 3.91404 23.2412 7.7902 23.2412H16.2166C20.0928 23.2412 23.2412 20.0928 23.2412 16.2166V7.7902C23.2412 3.91404 20.0928 0.765625 16.2166 0.765625Z" stroke="#333399" stroke-width="2" stroke-miterlimit="10"/>
<path d="M6.28923 11.0848L17.4581 6.77962C17.979 6.59577 18.431 6.90985 18.2624 7.69121L16.3626 16.6462C16.2248 17.282 15.8417 17.4352 15.3132 17.1365L12.4175 14.9992L11.0234 16.3474C10.8701 16.5007 10.7399 16.6309 10.4412 16.6309L10.648 13.6816L16.0179 8.83261C16.2477 8.62578 15.9643 8.51087 15.6579 8.7177L9.02399 12.8926L6.16667 12.004C5.54618 11.8048 5.53086 11.3835 6.29689 11.0848H6.28923Z" fill="#333399"/>
</g>
<defs>
<clipPath id="clip0_484_147">
<rect width="24" height="24" fill="white"/>
</clipPath>
</defs>
</svg>
