<svg width="21" height="19" viewBox="0 0 21 19" fill="none" xmlns="http://www.w3.org/2000/svg">
<path d="M10.9106 9.13115C10.8561 9.18514 10.803 9.23771 10.7516 9.28864C10.3331 9.70312 10.0244 10.0089 9.95754 10.0828C9.85757 10.1934 9.75405 10.3006 9.64576 10.4118C9.63341 10.4245 9.62094 10.4373 9.60838 10.4502C9.51398 10.5471 9.41416 10.6495 9.32121 10.7502C9.12031 10.9678 8.8801 11.2504 8.74182 11.5857C8.58487 11.9663 8.56573 12.3988 8.77964 12.8351C8.97064 13.2247 9.3172 13.5537 9.74563 13.8542L9.7457 13.8543C10.3857 14.3031 10.8963 14.6733 11.4111 15.0467L11.4678 15.0878C12.0021 15.4752 12.5454 15.8686 13.2398 16.3535L13.2401 16.3537C13.4101 16.4723 13.5713 16.5946 13.7416 16.7239C13.7766 16.7504 13.812 16.7773 13.8479 16.8044C14.0512 16.9582 14.2717 17.122 14.5007 17.2653C14.9615 17.5535 15.5317 17.8066 16.2225 17.739L10.9106 9.13115ZM10.9106 9.13115C10.1417 9.68008 9.26021 10.3116 8.26591 11.0259M10.9106 9.13115L8.26591 11.0259M8.26591 11.0259C7.57588 11.5306 6.85048 11.8531 6.11101 11.8361C6.11098 11.8361 6.11094 11.8361 6.1109 11.8361L6.12817 11.0863L8.26591 11.0259ZM11.9932 3.58533L11.9934 3.58522C14.1651 2.62387 15.4945 2.05149 16.3571 1.71823C17.2055 1.39045 17.686 1.25864 18.1237 1.25024L18.1252 1.25021C18.2524 1.24802 18.4239 1.26264 18.6047 1.30873C18.7821 1.35396 19.0218 1.44302 19.2342 1.62597L19.2381 1.62931L19.2381 1.62932C19.601 1.94633 19.6791 2.35755 19.7067 2.52L19.709 2.5336L19.7089 2.53362C19.7331 2.69414 19.7683 3.0554 19.7386 3.3704C19.5002 6.04334 18.475 12.4654 17.9571 15.4137C17.8384 16.0941 17.6486 16.6319 17.3719 17.0238C17.0806 17.4365 16.6842 17.6938 16.2226 17.739L11.9932 3.58533ZM11.9932 3.58533C10.4661 4.26203 7.42118 5.65859 2.86415 7.77185M11.9932 3.58533L2.86415 7.77185M2.86415 7.77185C2.47017 7.9394 2.12282 8.12385 1.85614 8.33467C1.6018 8.53573 1.31116 8.84816 1.25943 9.28976L2.86415 7.77185Z" stroke="white" stroke-width="1.5"/>
</svg>
