<svg width="24" height="24" viewBox="0 0 24 24" fill="none" xmlns="http://www.w3.org/2000/svg">
<path d="M11.9106 12.1312C11.8561 12.1851 11.803 12.2377 11.7516 12.2886C11.3331 12.7031 11.0244 13.0089 10.9575 13.0828C10.8576 13.1934 10.754 13.3006 10.6458 13.4118C10.6334 13.4245 10.6209 13.4373 10.6084 13.4502C10.514 13.5471 10.4142 13.6495 10.3212 13.7502C10.1203 13.9678 9.8801 14.2504 9.74182 14.5857C9.58487 14.9663 9.56573 15.3988 9.77964 15.8351C9.97064 16.2247 10.3172 16.5537 10.7456 16.8542L10.7457 16.8543C11.3857 17.3031 11.8963 17.6733 12.4111 18.0467L12.4678 18.0878C13.0021 18.4752 13.5454 18.8686 14.2398 19.3535L14.2401 19.3537C14.4101 19.4723 14.5713 19.5946 14.7416 19.7239C14.7766 19.7504 14.812 19.7773 14.8479 19.8044C15.0512 19.9582 15.2717 20.122 15.5007 20.2653C15.9615 20.5535 16.5317 20.8066 17.2225 20.739L11.9106 12.1312ZM11.9106 12.1312C11.1417 12.6801 10.2602 13.3116 9.26591 14.0259M11.9106 12.1312L9.26591 14.0259M9.26591 14.0259C8.57588 14.5306 7.85048 14.8531 7.11101 14.8361C7.11098 14.8361 7.11094 14.8361 7.1109 14.8361L7.12817 14.0863L9.26591 14.0259ZM12.9932 6.58533L12.9934 6.58522C15.1651 5.62387 16.4945 5.05149 17.3571 4.71823C18.2055 4.39045 18.686 4.25864 19.1237 4.25024L19.1252 4.25021C19.2524 4.24802 19.4239 4.26264 19.6047 4.30873C19.7821 4.35396 20.0218 4.44302 20.2342 4.62597L20.2381 4.62931L20.2381 4.62932C20.601 4.94633 20.6791 5.35755 20.7067 5.52L20.709 5.5336L20.7089 5.53362C20.7331 5.69414 20.7683 6.0554 20.7386 6.3704C20.5002 9.04334 19.475 15.4654 18.9571 18.4137C18.8384 19.0941 18.6486 19.6319 18.3719 20.0238C18.0806 20.4365 17.6842 20.6938 17.2226 20.739L12.9932 6.58533ZM12.9932 6.58533C11.4661 7.26203 8.42118 8.65859 3.86415 10.7719M12.9932 6.58533L3.86415 10.7719M3.86415 10.7719C3.47017 10.9394 3.12282 11.1239 2.85614 11.3347C2.6018 11.5357 2.31116 11.8482 2.25943 12.2898L3.86415 10.7719Z" stroke="white" stroke-width="1.5"/>
</svg>
