<svg width="65" height="64" viewBox="0 0 65 64" fill="none" xmlns="http://www.w3.org/2000/svg">
<g clip-path="url(#clip0_1002_12741)">
<mask id="mask0_1002_12741" style="mask-type:luminance" maskUnits="userSpaceOnUse" x="0" y="0" width="65" height="64">
<path d="M0.5 0H64.5V64H0.5V0Z" fill="white"/>
</mask>
<g mask="url(#mask0_1002_12741)">
<mask id="mask1_1002_12741" style="mask-type:luminance" maskUnits="userSpaceOnUse" x="0" y="0" width="65" height="64">
<path d="M64.5 0H0.5V64H64.5V0Z" fill="white"/>
</mask>
<g mask="url(#mask1_1002_12741)">
<path d="M0.5 30.72C0.5 16.2375 0.5 8.9975 5 4.5C9.5 0 16.7375 0 31.22 0H33.78C48.2625 0 55.5025 0 60 4.5C64.5 9 64.5 16.2375 64.5 30.72V33.28C64.5 47.7625 64.5 55.0025 60 59.5C55.5 64 48.2625 64 33.78 64H31.22C16.7375 64 9.4975 64 5 59.5C0.5 55 0.5 47.765 0.5 33.2825V30.7225V30.72Z" fill="#0077FF"/>
<path d="M34.5533 46.1075C19.9683 46.1075 11.6483 36.1075 11.3008 19.4675H18.6083C18.8483 31.68 24.2333 36.8525 28.5008 37.92V19.4675H35.3808V30C39.5933 29.5475 44.0208 24.7475 45.5133 19.4675H52.3933C51.2483 25.9725 46.4483 30.7725 43.0333 32.7475C46.4483 34.3475 51.9133 38.5325 53.9933 46.1075H46.4208C44.7958 41.04 40.7408 37.12 35.3808 36.5875V46.1075H34.5558H34.5533Z" fill="white"/>
</g>
</g>
</g>
<defs>
<clipPath id="clip0_1002_12741">
<rect width="64" height="64" fill="white" transform="translate(0.5)"/>
</clipPath>
</defs>
</svg>
