<svg width="24" height="24" viewBox="0 0 24 24" fill="none" xmlns="http://www.w3.org/2000/svg">
<g clip-path="url(#clip0_484_135)">
<path d="M16.2166 0.765625H7.7902C3.91404 0.765625 0.765625 3.91404 0.765625 7.7902V16.2166C0.765625 20.0928 3.91404 23.2412 7.7902 23.2412H16.2166C20.0928 23.2412 23.2412 20.0928 23.2412 16.2166V7.7902C23.2412 3.91404 20.0928 0.765625 16.2166 0.765625Z" stroke="#333399" stroke-width="2" stroke-miterlimit="10"/>
<path d="M7.47649 13.551C8.04336 14.3171 8.68683 14.9912 9.52181 15.4661C10.4717 16.01 11.4905 16.1709 12.563 16.1173C13.0686 16.0943 13.2141 15.9641 13.2371 15.4585C13.2524 15.1138 13.2907 14.7767 13.4593 14.4626C13.6278 14.1639 13.8806 14.1026 14.164 14.2941C14.3096 14.386 14.4321 14.5086 14.547 14.6388C14.8305 14.9452 15.1062 15.267 15.3973 15.5657C15.765 15.9411 16.2017 16.1632 16.7532 16.1173H18.8751C19.2199 16.0943 19.3961 15.673 19.1969 15.29C19.059 15.0218 18.8751 14.7844 18.6836 14.5546C18.247 14.0336 17.7337 13.5893 17.2511 13.1144C16.8145 12.6854 16.7839 12.4403 17.1362 11.95C17.5193 11.4138 17.9329 10.9005 18.3159 10.3643C18.676 9.8664 19.0437 9.36847 19.2352 8.77096C19.3578 8.38794 19.2505 8.21941 18.8598 8.15813C18.7909 8.15047 18.7219 8.15047 18.653 8.15047H16.3396C16.0561 8.15047 15.8953 8.26538 15.7957 8.51817C15.6578 8.86289 15.5199 9.19994 15.359 9.52934C14.9913 10.2801 14.5853 11.0001 14.0031 11.6053C13.8729 11.7432 13.735 11.9117 13.5205 11.8428C13.2524 11.7432 13.1758 11.3065 13.1835 11.161V8.48753C13.1299 8.10451 13.0456 7.93598 12.6626 7.85938H10.2572C9.93547 7.85938 9.7746 7.98194 9.60608 8.18111C9.50649 8.29602 9.47585 8.37262 9.68268 8.41092C10.081 8.48753 10.3032 8.74798 10.3645 9.14632C10.4564 9.78213 10.4564 10.4256 10.3951 11.0691C10.3798 11.2529 10.3491 11.4444 10.2725 11.6206C10.1576 11.8964 9.96611 11.95 9.72098 11.7815C9.49883 11.6283 9.34562 11.4138 9.18475 11.1993C8.61022 10.3873 8.1506 9.50636 7.77524 8.58711C7.668 8.319 7.47649 8.15813 7.20071 8.15813C6.50362 8.15047 5.81418 8.14281 5.11709 8.15813C4.70343 8.15813 4.5732 8.36496 4.74939 8.74798C5.50777 10.4256 6.34275 12.0649 7.44585 13.551H7.47649Z" fill="#333399"/>
</g>
<defs>
<clipPath id="clip0_484_135">
<rect width="24" height="24" fill="white"/>
</clipPath>
</defs>
</svg>
