<svg width="24" height="24" viewBox="0 0 24 24" fill="none" xmlns="http://www.w3.org/2000/svg">
<g clip-path="url(#clip0_484_170)">
<path d="M16.8754 10.9778L10.3181 7.39275C9.94271 7.18592 9.49841 7.19358 9.12305 7.41573C8.75535 7.63788 8.5332 8.0209 8.5332 8.44988V15.5587C8.5332 15.9877 8.75535 16.3707 9.12305 16.5929C9.31456 16.7078 9.52905 16.7614 9.74354 16.7614C9.93505 16.7614 10.1342 16.7154 10.3104 16.6159L16.8677 13.0921C17.2584 12.8852 17.5035 12.4792 17.5035 12.0349C17.5035 11.5906 17.266 11.1846 16.8754 10.9778Z" fill="#333399"/>
<path d="M16.2166 0.765625H7.7902C3.91404 0.765625 0.765625 3.91404 0.765625 7.7902V16.2166C0.765625 20.0928 3.91404 23.2412 7.7902 23.2412H16.2166C20.0928 23.2412 23.2412 20.0928 23.2412 16.2166V7.7902C23.2412 3.91404 20.0928 0.765625 16.2166 0.765625Z" stroke="#333399" stroke-width="2" stroke-miterlimit="10"/>
</g>
<defs>
<clipPath id="clip0_484_170">
<rect width="24" height="24" fill="white"/>
</clipPath>
</defs>
</svg>
