<svg width="24" height="24" viewBox="0 0 24 24" fill="none" xmlns="http://www.w3.org/2000/svg">
<path fill-rule="evenodd" clip-rule="evenodd" d="M10.4609 21.0375C8.99844 21.0375 7.61093 20.7376 6.26093 20.2126C5.88593 20.0626 5.69842 19.6126 5.84842 19.2376C5.99842 18.8626 6.44843 18.675 6.82343 18.825C7.98593 19.275 9.22344 19.5375 10.4609 19.5375C16.1609 19.5375 20.2859 15.4126 20.2859 9.71255C20.2859 6.30005 18.4859 3.18754 15.4484 1.42504C15.0734 1.20004 14.9609 0.750045 15.1859 0.375045C15.3734 0.0375453 15.8609 -0.0749592 16.1984 0.112541C19.6859 2.17504 21.7859 5.77505 21.7859 9.71255C21.7859 15.7501 17.7359 20.2876 11.9984 20.9251V22.5H14.2484C14.6609 22.5 15.0359 22.8375 15.0359 23.25C15.0359 23.6625 14.6609 24 14.2484 24H11.2484C11.2484 24 11.2359 24 11.2109 24H8.32343C7.87343 24 7.53592 23.6625 7.53592 23.25C7.53592 22.8375 7.87343 22.5 8.32343 22.5H10.4984V21.0375C10.4984 21.0375 10.4859 21.0375 10.4609 21.0375ZM10.4609 3.00005C6.74844 3.00005 3.71094 6.07504 3.71094 9.78754C3.71094 13.5375 6.74844 16.5375 10.4609 16.5375C14.2109 16.5375 17.2484 13.5375 17.2484 9.78754C17.2484 6.07504 14.2109 3.00005 10.4609 3.00005ZM10.4609 1.50005C15.0359 1.50005 18.7484 5.21254 18.7484 9.78754C18.7484 14.3625 15.0359 18.0375 10.4609 18.0375C5.92344 18.0375 2.21094 14.3625 2.21094 9.78754C2.21094 5.21254 5.92344 1.50005 10.4609 1.50005Z" fill="white"/>
</svg>
