<svg width="24" height="24" viewBox="0 0 24 24" fill="none" xmlns="http://www.w3.org/2000/svg">
<path d="M17.9984 23.175L16.4984 23.1375C16.4984 23.1375 16.4984 21.075 16.4984 18.375C16.4984 16.2375 15.7109 14.5875 11.6609 12.975C7.76094 11.4375 5.99844 9.37498 5.99844 6.56248V1.19997H7.49844V6.56248C7.49844 8.02498 7.98594 9.89999 12.2234 11.5875C16.3484 13.2 17.9984 15.1875 17.9984 18.375C17.9984 21.075 17.9984 23.175 17.9984 23.175ZM5.99844 23.175C5.99844 23.175 5.96094 21.075 5.96094 18.375C5.96094 15.1875 7.64844 13.2 11.7734 11.5875C15.9734 9.89999 16.4984 8.02498 16.4984 6.56248V1.19997H17.9984V6.56248C17.9984 9.37498 16.1984 11.4375 12.2984 12.975C8.28594 14.5875 7.46094 16.2375 7.46094 18.375C7.46094 21.075 7.49844 23.1375 7.49844 23.1375L5.99844 23.175ZM19.4984 1.53748H4.46094C4.04844 1.53748 3.71094 1.19998 3.71094 0.787476C3.71094 0.337476 4.04844 0.0374756 4.46094 0.0374756H19.4984C19.9109 0.0374756 20.2484 0.337476 20.2484 0.787476C20.2484 1.19998 19.9109 1.53748 19.4984 1.53748ZM19.4984 24H4.46094C4.04844 24 3.71094 23.6625 3.71094 23.25C3.71094 22.8375 4.04844 22.5 4.46094 22.5H19.4984C19.9109 22.5 20.2484 22.8375 20.2484 23.25C20.2484 23.6625 19.9109 24 19.4984 24Z" fill="white"/>
</svg>
