<svg width="24" height="24" viewBox="0 0 24 24" fill="none" xmlns="http://www.w3.org/2000/svg">
<path fill-rule="evenodd" clip-rule="evenodd" d="M10.4609 21.0375C8.99844 21.0375 7.61093 20.7375 6.26093 20.2125C5.88593 20.0625 5.69842 19.6125 5.84842 19.2375C5.99842 18.8625 6.44843 18.675 6.82343 18.825C7.98593 19.275 9.22344 19.5375 10.4609 19.5375C16.1609 19.5375 20.2859 15.4125 20.2859 9.71249C20.2859 6.29999 18.4859 3.18748 15.4484 1.42498C15.0734 1.19998 14.9609 0.749984 15.1859 0.374984C15.3734 0.0374843 15.8609 -0.0750203 16.1984 0.11248C19.6859 2.17498 21.7859 5.77499 21.7859 9.71249C21.7859 15.75 17.7359 20.2875 11.9984 20.925V22.5H14.2484C14.6609 22.5 15.0359 22.8375 15.0359 23.25C15.0359 23.6625 14.6609 24 14.2484 24H11.2484C11.2484 24 11.2359 24 11.2109 24H8.32343C7.87343 24 7.53592 23.6625 7.53592 23.25C7.53592 22.8375 7.87343 22.5 8.32343 22.5H10.4984V21.0375C10.4984 21.0375 10.4859 21.0375 10.4609 21.0375ZM10.4609 2.99998C6.74844 2.99998 3.71094 6.07498 3.71094 9.78748C3.71094 13.5375 6.74844 16.5375 10.4609 16.5375C14.2109 16.5375 17.2484 13.5375 17.2484 9.78748C17.2484 6.07498 14.2109 2.99998 10.4609 2.99998ZM10.4609 1.49998C15.0359 1.49998 18.7484 5.21248 18.7484 9.78748C18.7484 14.3625 15.0359 18.0375 10.4609 18.0375C5.92344 18.0375 2.21094 14.3625 2.21094 9.78748C2.21094 5.21248 5.92344 1.49998 10.4609 1.49998Z" fill="black"/>
</svg>
