<svg width="25" height="24" viewBox="0 0 25 24" fill="none" xmlns="http://www.w3.org/2000/svg">
<path fill-rule="evenodd" clip-rule="evenodd" d="M21.7517 5.25H2.62674C2.40174 5.25 2.13925 5.24999 1.91425 5.28749L12.0017 13.35L22.1267 5.25M1.50174 17.625C1.50174 18.0375 2.21424 18.75 2.62674 18.75H22.1267C22.5392 18.75 22.5017 18.0375 22.5017 17.625V6.90001L12.4892 14.8875C12.3392 15.0375 12.1892 15.075 12.0017 15.075C11.8142 15.075 11.6642 15.0375 11.5142 14.8875L1.50174 6.90001V17.625ZM22.1267 3.75C23.1517 3.75 23.7517 4.17501 23.9267 5.02501C24.0017 5.15001 24.0267 5.27501 24.0017 5.40001C24.0017 5.47501 24.0017 5.55 24.0017 5.625V17.625C24.0017 18.8625 23.3642 20.25 22.1267 20.25H2.62674C1.38924 20.25 0.00174377 18.8625 0.00174377 17.625V5.625C0.00174377 5.55 0.00174377 5.4875 0.00174377 5.4375C-0.0357562 5.2125 0.0392438 4.98751 0.189244 4.83751C0.214244 4.78751 0.251739 4.74999 0.301739 4.72499C0.751739 4.08749 1.72674 3.75 2.62674 3.75H22.1267Z" fill="black"/>
</svg>
