<svg width="25" height="25" viewBox="0 0 25 25" fill="none" xmlns="http://www.w3.org/2000/svg">
<path fill-rule="evenodd" clip-rule="evenodd" d="M4.7082 1.48104C4.7332 1.48104 4.75818 1.48104 4.78318 1.48104C5.19568 2.11854 7.44571 5.53104 7.85821 6.16854C7.85821 6.24354 7.8582 6.43104 7.7082 6.65604C7.5957 6.91854 7.14571 7.66855 6.54571 8.75605L6.05819 9.58105L6.62069 10.3311C7.03319 10.9311 8.00821 12.206 9.92071 14.1185C11.8332 16.031 13.1082 17.006 13.6707 17.4185L14.4582 17.9436L15.2832 17.4935C16.0707 17.006 17.0457 16.481 17.3832 16.2935C17.6082 16.181 17.7957 16.181 17.8332 16.181C17.8582 16.181 17.8707 16.181 17.8707 16.181C18.4332 16.5185 21.9207 18.8435 22.5582 19.2935C22.5582 19.331 22.5582 19.4811 22.4457 19.6311C21.5082 20.9436 20.1582 22.3311 19.5957 22.5186C16.7832 22.4061 12.8457 19.931 8.49569 15.5435C4.10819 11.1935 1.6332 7.21855 1.5207 4.44355C1.7082 3.88105 3.05819 2.53104 4.37069 1.59354C4.48319 1.51854 4.5957 1.48104 4.7082 1.48104ZM4.7082 0.0185547C4.2957 0.0185547 3.88322 0.168554 3.50822 0.393555C3.50822 0.431055 -0.0543009 2.94354 0.0206991 4.40604C0.133199 8.49354 4.10818 13.2935 7.40818 16.5935C10.7457 19.931 15.5457 23.9061 19.6332 24.0186H19.6707C21.0957 24.0186 23.6457 20.531 23.6457 20.4935C24.3207 19.556 24.0957 18.506 23.4957 18.0935C23.1207 17.831 19.1082 15.1685 18.5832 14.8685C18.3832 14.7435 18.1332 14.681 17.8332 14.681C17.4582 14.681 17.0832 14.756 16.6707 14.981C16.2957 15.1685 15.0957 15.8435 14.5332 16.181C14.0457 15.806 12.8457 14.906 10.9707 13.031C9.13318 11.1935 8.19571 9.99354 7.85821 9.46854C8.19571 8.90604 8.83319 7.74355 9.05819 7.36855C9.43319 6.61855 9.47071 5.90604 9.17071 5.41854C8.87071 4.96854 6.20822 0.956055 5.94572 0.581055C5.68322 0.243555 5.1957 0.0185547 4.7082 0.0185547Z" fill="white"/>
</svg>
