<svg width="64" height="64" viewBox="0 0 64 64" fill="none" xmlns="http://www.w3.org/2000/svg">
<path fill-rule="evenodd" clip-rule="evenodd" d="M31.9812 4.01254C31.9812 4.01254 26.5642 9.63011 21.047 10.9342C17.6364 11.837 14.1254 11.9373 12.0188 11.9373C10.7147 11.9373 10.0125 11.9373 10.0125 11.9373C10.0125 11.9373 10.0125 13.1411 10.0125 21.9687C10.0125 56.0752 31.9812 59.9875 31.9812 59.9875C31.9812 59.9875 54.1504 56.0752 54.1504 21.9687C54.1504 13.1411 54.1504 11.9373 54.1504 11.9373C54.1504 11.9373 53.4482 11.9373 52.1442 11.9373C50.1379 11.9373 46.6269 11.837 43.2162 10.9342C37.699 9.63011 31.9812 4.01254 31.9812 4.01254ZM31.9812 0C32.7837 0 33.5862 0.200664 34.188 0.601917C35.5924 1.50474 40.2068 6.11912 44.2194 7.02194C47.2288 7.82445 50.5392 7.92478 52.1442 7.92478C53.2476 7.92478 53.8495 7.92478 53.9498 7.92478C54.0167 7.92478 54.0836 7.92478 54.1504 7.92478C55.1536 7.92478 56.1567 8.22572 56.9592 8.92792C57.7617 9.73042 58.163 10.7336 58.163 11.9373V21.9687C58.163 58.9843 33.7868 63.7994 32.6833 64C32.4827 64 32.2487 64 31.9812 64C31.7806 64 31.5465 64 31.279 64C30.2759 63.7994 6 58.9843 6 21.9687V11.9373C6 10.7336 6.50155 9.73042 7.30406 8.92792C8.00626 8.22572 9.0094 7.92478 10.0125 7.92478C10.0794 7.92478 10.1797 7.92478 10.3135 7.92478C10.3135 7.92478 11.0157 7.92478 12.0188 7.92478C13.6238 7.92478 17.0345 7.82445 20.0439 7.02194C24.7586 5.91849 29.5737 0.702231 29.7743 0.601917C30.4765 0.200664 31.1787 0 31.9812 0Z" fill="#333399"/>
<path fill-rule="evenodd" clip-rule="evenodd" d="M44.7479 26.5858C45.5289 27.3668 45.5289 28.6332 44.7479 29.4142L32.4145 41.7475C32.0395 42.1226 31.5308 42.3333 31.0003 42.3333C30.4699 42.3333 29.9612 42.1226 29.5861 41.7475L21.2528 33.4142C20.4717 32.6332 20.4717 31.3668 21.2528 30.5858C22.0338 29.8047 23.3002 29.8047 24.0812 30.5858L31.0003 37.5049L41.9194 26.5858C42.7005 25.8047 43.9668 25.8047 44.7479 26.5858Z" fill="#333399"/>
</svg>
