<svg width="65" height="64" viewBox="0 0 65 64" fill="none" xmlns="http://www.w3.org/2000/svg">
<path fill-rule="evenodd" clip-rule="evenodd" d="M43.5016 46.4001C43.1016 46.4001 42.6016 46.3001 42.3016 46.0001L34.0016 39.7001V57.6001L50.0016 48.5001V42.5001L44.6016 46.1001C44.2682 46.3001 43.9016 46.4001 43.5016 46.4001ZM21.9016 46.0001C21.2015 46.6001 20.3016 46.6001 19.6016 46.1001L14.0016 42.4001V48.5001L30.0016 57.5001V39.8001L21.9016 46.0001ZM2.50156 34.7001C1.90156 34.4001 1.60156 33.8001 1.60156 33.1001C1.50156 32.5001 1.80156 31.9001 2.30156 31.5001L11.2016 24.5001L0.90155 15.9001C0.40155 15.4001 0.101562 14.8001 0.101562 14.2001C0.201563 13.5001 0.501562 13.0001 1.10156 12.6001L18.9016 1.50011C19.6016 1.00011 20.6016 1.10012 21.2016 1.60012L32.1016 10.5001L43.0016 1.60012C43.7016 1.10012 44.6016 1.10011 45.3016 1.50011L63.1016 12.6001C63.7016 13.0001 64.0016 13.5001 64.1016 14.2001C64.1016 14.8001 63.9016 15.4001 63.4016 15.9001L53.0016 24.5001L61.8016 31.5001C62.3016 31.9001 62.6016 32.5001 62.6016 33.1001C62.6016 33.8001 62.2016 34.4001 61.7016 34.7001L54.0016 39.9001C54.0016 40.0334 54.0016 40.1668 54.0016 40.3001V49.7001C54.0016 50.4001 53.6016 51.0001 53.0016 51.4001L33.2016 62.8001C32.8682 63.0001 32.5016 63.1001 32.1016 63.1001C31.7682 63.1001 31.4349 63.0001 31.1016 62.8001L10.9016 51.4001C10.4016 51.0001 10.0016 50.4001 10.0016 49.7001V41.6001C10.0016 41.1001 10.2016 40.5001 10.6016 40.2001L2.50156 34.7001ZM7.10156 32.9001L20.7016 42.0001L28.7016 35.8001L14.6016 27.0001L7.10156 32.9001ZM35.7016 35.8001L43.7016 42.0001L57.3016 32.9001L49.8016 27.0001L35.7016 35.8001ZM18.2016 24.5001L32.2016 33.3001L46.3016 24.5001L32.2016 15.3001L18.2016 24.5001ZM35.7016 12.8001L49.9016 22.1001L58.8016 14.5001L44.6016 5.60012L35.7016 12.8001ZM5.70155 14.5001L14.7016 22.1001L28.9016 12.8001L20.0016 5.60012L5.70155 14.5001Z" fill="#333399"/>
</svg>
