<svg width="48" height="38" viewBox="0 0 48 38" fill="none" xmlns="http://www.w3.org/2000/svg">
<path fill-rule="evenodd" clip-rule="evenodd" d="M23.85 27C23.6 27 23.375 26.95 23.175 26.85L13.425 21.675V32.7749C14.55 33.3749 17.55 34.5 23.925 34.5C30.15 34.5 33.3 33.45 34.5 32.85V21.6L24.6 26.85C24.35 26.95 24.1 27 23.85 27ZM0.75 14.925C0.3 14.625 0 14.1749 0 13.5749C0 13.0499 0.225 12.525 0.75 12.3L23.175 0.225C23.625 -0.075 24.15 -0.075 24.6 0.225L47.175 12.3C47.7 12.525 48 13.0499 48 13.5749C48 14.1749 47.7 14.625 47.175 14.925L46.425 15.3V27.375C47.325 27.9 47.925 28.875 47.925 30C47.925 31.65 46.575 33 44.925 33C43.275 33 41.925 31.65 41.925 30C41.925 28.875 42.525 27.9 43.425 27.375V16.875L37.35 20.1C37.45 20.3 37.5 20.4999 37.5 20.6999V33.75C37.5 34.2 37.275 34.575 36.9 34.875C36.6 35.175 33.375 37.5 23.925 37.5C14.325 37.5 11.25 35.025 10.95 34.725C10.575 34.425 10.425 34.05 10.425 33.6V20.925C10.425 20.625 10.475 20.375 10.575 20.175L0.75 14.925ZM4.65 13.5749L23.925 23.85L43.35 13.5749L23.925 3.225L4.65 13.5749Z" fill="#333399"/>
</svg>
