<svg width="40" height="48" viewBox="0 0 40 48" fill="none" xmlns="http://www.w3.org/2000/svg">
<path fill-rule="evenodd" clip-rule="evenodd" d="M16.5153 42.0695C13.5876 42.0695 10.81 41.469 8.10748 40.418C7.35679 40.1177 6.98141 39.2169 7.28169 38.4662C7.58197 37.7155 8.48283 37.3401 9.23352 37.6404C11.5607 38.5412 14.038 39.0667 16.5153 39.0667C27.9258 39.0667 36.1834 30.8091 36.1834 19.3986C36.1834 12.5673 32.5801 6.3365 26.4995 2.80824C25.7488 2.35783 25.5236 1.457 25.974 0.70631C26.3493 0.0306854 27.3252 -0.194532 28.0009 0.180815C34.9823 4.30963 39.1862 11.5163 39.1862 19.3986C39.1862 31.4848 31.0787 40.5682 19.5931 41.8443V44.9972H24.0972C24.923 44.9972 25.6737 45.6729 25.6737 46.4986C25.6737 47.3244 24.923 48 24.0972 48H18.0917C18.0917 48 18.0667 48 18.0166 48H12.2363C11.3355 48 10.6598 47.3244 10.6598 46.4986C10.6598 45.6729 11.3355 44.9972 12.2363 44.9972H16.5903V42.0695C16.5903 42.0695 16.5653 42.0695 16.5153 42.0695ZM16.5153 5.96116C9.08339 5.96116 3.00277 12.1168 3.00277 19.5487C3.00277 27.0556 9.08339 33.0612 16.5153 33.0612C24.0222 33.0612 30.1028 27.0556 30.1028 19.5487C30.1028 12.1168 24.0222 5.96116 16.5153 5.96116ZM16.5153 2.95839C25.6737 2.95839 33.1056 10.3902 33.1056 19.5487C33.1056 28.7072 25.6737 36.064 16.5153 36.064C7.43187 36.064 0 28.7072 0 19.5487C0 10.3902 7.43187 2.95839 16.5153 2.95839Z" fill="#333399"/>
</svg>
