<svg width="48" height="46" viewBox="0 0 48 46" fill="none" xmlns="http://www.w3.org/2000/svg">
<path fill-rule="evenodd" clip-rule="evenodd" d="M42 5.475C42 7.575 41.175 9.3 39.9 10.575H45C46.65 10.575 48 11.925 48 13.575V22.575H45V42.075C45 43.725 43.65 45.075 42 45.075H6C4.35 45.075 3 43.725 3 42.075V22.575H0V13.575C0 11.925 1.35 10.575 3 10.575H8.175C6.825 9.3 6 7.575 6 5.475C6 2.85 7.425 0 11.625 0C17.175 0 21.9 5.92501 24.075 9.15001C26.25 5.92501 30.825 0 36.375 0C40.575 0 42 2.85 42 5.475ZM25.5 22.575V42.075H42V22.575H25.5ZM22.5 22.575H6V42.075H22.5V22.575ZM21.45 10.575C19.275 7.425 15.375 3.075 11.625 3.075C9.825 3.075 9 3.75001 9 5.40001C9 8.77501 12.825 10.575 16.35 10.575H21.45ZM39.075 5.475C39.075 3.825 38.25 3.075 36.375 3.075C32.625 3.075 28.875 7.425 26.775 10.575H31.875C35.325 10.575 39.075 8.775 39.075 5.475ZM45 13.575H25.5V19.575H45V13.575ZM3 13.575V19.575H22.5V13.575H3Z" fill="#333399"/>
</svg>
