<svg width="48" height="43" viewBox="0 0 48 43" fill="none" xmlns="http://www.w3.org/2000/svg">
<path fill-rule="evenodd" clip-rule="evenodd" d="M48 3V30.075C48 31.725 46.65 33.075 45 33.075H20.175L11.55 41.625C11.25 41.925 10.875 42.075 10.5 42.075C10.3 42.075 10.1 42.025 9.90001 41.925C9.37501 41.7 9 41.175 9 40.575V33.075H3C1.35 33.075 0 31.725 0 30.075V3C0 1.35 1.35 0 3 0H45C46.65 0 48 1.35 48 3ZM45 3H3V30.075H12V36.975L18.975 30.075H45V3ZM10.5 15.075H37.5C38.325 15.075 39 15.75 39 16.575C39 17.4 38.325 18.075 37.5 18.075H10.5C9.675 18.075 9 17.4 9 16.575C9 15.75 9.675 15.075 10.5 15.075ZM10.5 9.075H37.5C38.325 9.075 39 9.75 39 10.575C39 11.4 38.325 12.075 37.5 12.075H10.5C9.675 12.075 9 11.4 9 10.575C9 9.75 9.675 9.075 10.5 9.075ZM10.5 21.075H28.5C29.325 21.075 30 21.75 30 22.575C30 23.4 29.325 24.075 28.5 24.075H10.5C9.675 24.075 9 23.4 9 22.575C9 21.75 9.675 21.075 10.5 21.075Z" fill="#333399"/>
</svg>
