<svg width="40" height="48" viewBox="0 0 40 48" fill="none" xmlns="http://www.w3.org/2000/svg">
<path fill-rule="evenodd" clip-rule="evenodd" d="M19.4859 3.0094C19.4859 3.0094 15.4232 7.22258 11.2853 8.20064C8.72727 8.87775 6.09404 8.95299 4.5141 8.95299C3.53605 8.95299 3.0094 8.95299 3.0094 8.95299C3.0094 8.95299 3.0094 9.85581 3.0094 16.4765C3.0094 42.0564 19.4859 44.9906 19.4859 44.9906C19.4859 44.9906 36.1128 42.0564 36.1128 16.4765C36.1128 9.85581 36.1128 8.95299 36.1128 8.95299C36.1128 8.95299 35.5862 8.95299 34.6081 8.95299C33.1034 8.95299 30.4702 8.87775 27.9122 8.20064C23.7743 7.22258 19.4859 3.0094 19.4859 3.0094ZM19.4859 0C20.0878 0 20.6896 0.150498 21.141 0.451438C22.1943 1.12855 25.6551 4.58934 28.6645 5.26645C30.9216 5.86833 33.4044 5.94359 34.6081 5.94359C35.4357 5.94359 35.8871 5.94359 35.9623 5.94359C36.0125 5.94359 36.0627 5.94359 36.1128 5.94359C36.8652 5.94359 37.6175 6.16929 38.2194 6.69594C38.8213 7.29782 39.1222 8.05017 39.1222 8.95299V16.4765C39.1222 44.2382 20.8401 47.8495 20.0125 48C19.862 48 19.6865 48 19.4859 48C19.3354 48 19.1599 48 18.9592 48C18.2069 47.8495 0 44.2382 0 16.4765V8.95299C0 8.05017 0.376166 7.29782 0.978047 6.69594C1.50469 6.16929 2.25705 5.94359 3.0094 5.94359C3.05956 5.94359 3.13478 5.94359 3.2351 5.94359C3.2351 5.94359 3.76175 5.94359 4.5141 5.94359C5.71786 5.94359 8.27586 5.86833 10.5329 5.26645C14.069 4.43887 17.6802 0.526673 17.8307 0.451438C18.3574 0.150498 18.884 0 19.4859 0Z" fill="#333399"/>
<path fill-rule="evenodd" clip-rule="evenodd" d="M29.0609 19.9393C29.6467 20.5251 29.6467 21.4749 29.0609 22.0607L19.8109 31.3107C19.5296 31.592 19.1481 31.75 18.7502 31.75C18.3524 31.75 17.9709 31.592 17.6896 31.3107L11.4396 25.0607C10.8538 24.4749 10.8538 23.5251 11.4396 22.9393C12.0254 22.3536 12.9751 22.3536 13.5609 22.9393L18.7502 28.1287L26.9396 19.9393C27.5254 19.3536 28.4751 19.3536 29.0609 19.9393Z" fill="#333399"/>
</svg>
