<svg width="48" height="48" viewBox="0 0 48 48" fill="none" xmlns="http://www.w3.org/2000/svg">
<path fill-rule="evenodd" clip-rule="evenodd" d="M24 3C20.475 3 17.1 3.90004 14.1 5.47504L22.05 18.3C22.7 18.05 23.35 17.925 24 17.925C27.375 17.925 30.075 20.625 30.075 24C30.075 24.55 30 25.1 29.85 25.65L43.125 32.7C44.325 30.075 45 27.075 45 24C45 12.45 35.625 3 24 3ZM6.15001 12.975L19.425 20.025C19.475 19.975 19.525 19.95 19.575 19.95L11.55 7.125C9.45 8.7 7.57501 10.65 6.15001 12.975ZM3 24C3 35.55 12.45 45 24 45C27.525 45 30.75 44.175 33.675 42.675L25.725 29.775C25.175 29.975 24.6 30.075 24 30.075C20.7 30.075 18 27.375 18 24C18 23.55 18.025 23.125 18.075 22.725L4.8 15.6C3.675 18.15 3 21 3 24ZM41.7 35.325L28.35 28.2C28.35 28.25 28.325 28.275 28.275 28.275L36.225 41.1C38.4 39.525 40.275 37.575 41.7 35.325ZM24 0C37.275 0 48 10.725 48 24C48 37.275 37.275 48 24 48C10.8 48 0 37.275 0 24C0 10.725 10.8 0 24 0ZM24 20.925C22.35 20.925 21 22.35 21 24C21 25.65 22.35 27.075 24 27.075C25.725 27.075 27.075 25.65 27.075 24C27.075 22.35 25.725 20.925 24 20.925Z" fill="#333399"/>
</svg>
