<svg width="48" height="48" viewBox="0 0 48 48" fill="none" xmlns="http://www.w3.org/2000/svg">
<path fill-rule="evenodd" clip-rule="evenodd" d="M48 22.65V25.65C48 27.3 46.425 28.275 45 28.65L41.1 29.625C40.8 30.475 40.45 31.325 40.05 32.175L42.15 35.625C42.9 36.9 43.275 38.7 42.15 39.9L39.975 42C38.85 43.2 36.825 42.975 35.625 42.15L32.25 39.975C31.4 40.425 30.5 40.8 29.55 41.1L28.65 45C28.425 46.425 27.15 48 25.5 48H22.5C20.85 48 19.875 46.425 19.5 45L18.6 41.175C17.55 40.825 16.55 40.4 15.6 39.9L12.15 42.15C10.95 42.975 9.00002 43.2 7.80002 42L5.69998 39.9C4.49998 38.7 4.94998 36.9 5.69998 35.625L7.875 31.95C7.475 31.2 7.15001 30.425 6.90001 29.625L3 28.65C1.575 28.275 0 27.3 0 25.65V22.65C0 21 1.575 19.725 3 19.425L6.82498 18.6C7.12498 17.7 7.475 16.85 7.875 16.05L5.69998 12.375C4.87498 11.1 4.49998 9.30004 5.69998 8.10004L7.80002 6C9.00002 4.8 10.95 5.02504 12.15 5.85004L15.6 8.10004C16.55 7.60004 17.525 7.17498 18.525 6.82498L19.5 3C19.8 1.575 20.85 0 22.5 0H25.5C27.15 0 28.425 1.575 28.65 3L29.55 6.89996C30.5 7.19996 31.4 7.57496 32.25 8.02496L35.625 5.85004C36.825 5.02504 38.85 4.8 39.975 6L42.15 8.10004C43.275 9.30004 42.9 11.1 42.15 12.375L40.05 15.825C40.5 16.725 40.875 17.65 41.175 18.6L45 19.425C46.425 19.725 48 21 48 22.65ZM45 22.725C45 22.65 44.7 22.425 44.4 22.35L38.85 21.15L38.325 19.5C38.075 18.75 37.75 17.975 37.35 17.175L36.6 15.75L39.6 10.8C39.75 10.5 39.825 10.275 39.825 10.125L37.875 8.17502C37.675 8.17502 37.475 8.24996 37.275 8.39996L32.4 11.475L30.9 10.65C30.15 10.3 29.375 10 28.575 9.75L27 9.22504L25.725 3.52496C25.65 3.29996 25.5 3 25.5 3H22.725C22.65 3.15 22.5 3.375 22.425 3.75L21.075 9.22504L19.425 9.67502C18.625 9.97502 17.825 10.325 17.025 10.725L15.45 11.55L10.425 8.32498C10.35 8.24998 10.125 8.17504 9.90001 8.10004L7.94998 10.125C8.02498 10.275 8.1 10.5 8.25 10.8L11.325 15.9L10.575 17.325C10.175 18.125 9.87502 18.85 9.67502 19.5L9.15001 21.15L3.52501 22.425C3.30001 22.425 3.075 22.65 3 22.65V25.425C3.15 25.5 3.375 25.65 3.75 25.725L9.22499 27.075L9.75 28.65C9.95 29.3 10.225 29.975 10.575 30.675L11.325 32.1L8.25 37.2C8.1 37.5 8.02498 37.725 7.94998 37.875L9.90001 39.825C10.1 39.825 10.325 39.75 10.575 39.6L15.45 36.45L17.025 37.275C17.825 37.675 18.65 38.025 19.5 38.325L21.075 38.775L22.425 44.325C22.5 44.625 22.65 44.85 22.725 45H25.425C25.575 44.925 25.725 44.7 25.725 44.4L27 38.775L28.65 38.25C29.4 38 30.15 37.7 30.9 37.35L32.4 36.525L37.35 39.675C37.425 39.75 37.65 39.825 37.875 39.9L39.825 37.875C39.825 37.725 39.75 37.5 39.525 37.2L36.6 32.25L37.35 30.825C37.7 30.075 38 29.35 38.25 28.65L38.775 27.075L44.325 25.725C44.625 25.65 44.85 25.5 45 25.425V22.725ZM24 33C19.05 33 14.925 28.95 14.925 23.925C14.925 18.975 19.05 14.925 24 14.925C28.95 14.925 33 18.975 33 23.925C33 28.95 28.95 33 24 33ZM24 17.925C20.7 17.925 18 20.625 18 23.925C18 27.3 20.7 29.925 24 29.925C27.3 29.925 30 27.3 30 23.925C30 20.625 27.3 17.925 24 17.925Z" fill="#333399"/>
</svg>
