<svg width="48" height="48" viewBox="0 0 48 48" fill="none" xmlns="http://www.w3.org/2000/svg">
<path fill-rule="evenodd" clip-rule="evenodd" d="M28.5286 47.9221C14.9008 47.9221 14.8259 47.3231 13.1037 46.0502C12.2801 45.3763 10.5578 44.927 4.4178 44.5526C3.96853 44.4777 3.51927 44.3279 3.21976 43.9536C3.07 43.8038 0 39.3112 0 32.1228C0 25.0843 2.24633 21.7896 2.32121 21.6399C2.62072 21.2655 3.07 20.9659 3.59415 20.9659C8.68588 20.9659 15.6495 14.5264 20.3669 3.21981C21.1905 1.27297 21.3403 0 24.3355 0C26.0577 0 28.0045 1.19802 28.903 2.77046C30.8499 5.99023 29.8764 12.8791 28.9779 16.5481C32.0479 16.4732 37.6638 16.4732 40.2845 16.4732C44.0285 16.4732 46.4246 18.6447 46.4994 21.8644C46.5743 22.9127 46.4246 24.3355 46.125 25.0094C46.9487 25.833 47.997 27.031 47.997 28.6035C48.0719 30.7001 46.7241 32.1977 45.9004 33.0962C46.0502 33.6952 46.4995 34.519 46.4246 35.4175C46.3497 37.7387 44.5526 39.2363 43.4294 39.9851C43.5043 40.659 43.5792 41.857 43.4294 42.7555C42.6058 46.4246 37.2145 47.9221 28.5286 47.9221ZM5.16658 41.4826C10.5578 41.9319 13.4032 42.5309 14.9757 43.6541C16.0988 44.5527 15.9491 44.927 28.5286 44.927C32.4223 44.927 39.9101 44.7772 40.5092 42.0816C40.7338 41.0333 39.6106 39.9851 39.6106 39.9851C39.3111 39.2363 39.6106 38.3378 40.3594 38.0382C40.3594 38.0382 43.3546 36.9899 43.4294 35.2677C43.5043 34.2194 42.7555 33.6204 42.7555 33.5455C42.3063 32.8716 42.456 31.973 43.1299 31.5238C43.1299 31.5238 45.0768 30.3258 45.0019 28.6784C45.0019 27.4055 43.2797 26.5818 43.2797 26.507C42.9053 26.2823 42.6058 25.9079 42.5309 25.5335C42.456 25.0842 42.5309 24.635 42.8304 24.3355C42.8304 24.3355 43.5792 23.0626 43.5043 21.9394C43.5043 19.5433 40.8836 19.4684 40.2845 19.4684C36.5406 19.4684 26.8064 19.4684 26.8064 19.4684C26.2823 19.4684 25.833 19.2437 25.5335 18.7944C25.3089 18.4201 25.234 17.8959 25.4586 17.3717C26.8813 13.1786 27.705 6.58933 26.3571 4.34298C25.9828 3.66908 25.833 2.99513 24.3355 2.99513C24.1857 2.99513 23.6615 3.14491 23.1374 4.41784C18.1205 16.3235 10.6327 23.2872 4.56756 23.8862C4.04341 25.0843 2.99513 27.6301 2.99513 32.1228C2.99513 36.7653 4.49267 40.3595 5.16658 41.4826Z" fill="white"/>
</svg>
