<svg width="48" height="49" viewBox="0 0 48 49" fill="none" xmlns="http://www.w3.org/2000/svg">
<path fill-rule="evenodd" clip-rule="evenodd" d="M23.775 48.0441C23.1 48.0441 22.425 47.9691 21.9 47.8191L2.55 42.4941C1.125 42.0441 0 40.6191 0 39.1191V2.66914C0 0.869136 1.65 -0.330859 3.375 0.119141L22.725 5.44412C23.175 5.59412 24.3 5.59412 24.825 5.44412L44.625 0.119141C46.35 -0.405859 48 0.869136 48 2.66914V39.1191C48 40.6191 46.875 42.0441 45.45 42.4941L25.575 47.8191C24.975 48.0441 24.225 48.0441 23.775 48.0441ZM3 3.11914V39.1191C3 39.2691 3.15 39.5691 3.3 39.5691L22.5 44.8941V8.51913C22.3 8.46913 22.1 8.41914 21.9 8.36914L3 3.11914ZM44.625 39.5691C44.775 39.4941 45 39.2691 45 39.1191V3.11914L25.575 8.36914C25.575 8.36914 25.55 8.36914 25.5 8.36914V44.7441L44.625 39.5691ZM30.075 17.1441C29.475 17.1441 28.875 16.7691 28.65 16.0941C28.425 15.2691 28.875 14.4441 29.7 14.2191L40.2 11.2941C41.025 11.0691 41.85 11.5191 42.075 12.3441C42.3 13.0941 41.775 13.9191 41.025 14.1441L30.525 17.1441C30.375 17.1441 30.225 17.1441 30.075 17.1441ZM30.075 26.1441C29.475 26.1441 28.875 25.7691 28.65 25.0941C28.425 24.2691 28.875 23.4441 29.7 23.2191L40.2 20.2941C41.025 20.0691 41.85 20.5191 42.075 21.3441C42.3 22.0941 41.775 22.9191 41.025 23.1441L30.525 26.1441C30.375 26.1441 30.225 26.1441 30.075 26.1441ZM30.075 35.1441C29.475 35.1441 28.875 34.7691 28.65 34.0941C28.425 33.2691 28.875 32.4441 29.7 32.2191L40.2 29.2941C41.025 29.0691 41.85 29.5191 42.075 30.3441C42.3 31.0941 41.775 31.9191 41.025 32.1441L30.525 35.1441C30.375 35.1441 30.225 35.1441 30.075 35.1441ZM17.7 17.1441L7.2 14.1441C6.375 13.9191 5.925 13.0941 6.15 12.3441C6.375 11.5191 7.2 11.0691 8.025 11.2941L18.525 14.2191C19.275 14.4441 19.8 15.2691 19.575 16.0941C19.35 16.7691 18.75 17.1441 18.075 17.1441C17.975 17.1441 17.85 17.1441 17.7 17.1441ZM17.7 26.1441L7.2 23.1441C6.375 22.9191 5.925 22.0941 6.15 21.3441C6.375 20.5191 7.2 20.0691 8.025 20.2941L18.525 23.2191C19.275 23.4441 19.8 24.2691 19.575 25.0941C19.35 25.7691 18.75 26.1441 18.075 26.1441C17.975 26.1441 17.85 26.1441 17.7 26.1441ZM17.7 35.1441L7.2 32.1441C6.375 31.9191 5.925 31.0941 6.15 30.3441C6.375 29.5191 7.2 29.0691 8.025 29.2941L18.525 32.2191C19.275 32.4441 19.8 33.2691 19.575 34.0941C19.35 34.7691 18.75 35.1441 18.075 35.1441C17.975 35.1441 17.85 35.1441 17.7 35.1441Z" fill="#333399"/>
</svg>
