<svg width="48" height="49" viewBox="0 0 48 49" fill="none" xmlns="http://www.w3.org/2000/svg">
<path fill-rule="evenodd" clip-rule="evenodd" d="M18.825 10.575C14.55 10.575 10.5 14.25 10.5 16.425V22.725C10.5 25.125 11.55 29.625 14.1 31.575C14.85 32.25 15.3 33.225 15.225 34.2C15.15 35.25 14.55 36.075 13.65 36.6L3.97499 41.85C3.87499 41.9 3.8 41.925 3.75 41.925C3.525 42.075 3.225 42.225 3 42.375V45.075H34.5V42.375C34.275 42.225 34.05 42.075 33.825 42C33.725 41.95 33.625 41.9 33.525 41.85L24.075 36.6C23.175 36.15 22.65 35.25 22.5 34.2C22.425 33.225 22.875 32.25 23.7 31.65C26.25 29.55 27 25.125 27 22.725V16.425C27 14.175 23.175 10.575 18.825 10.575ZM18.825 7.57498C24.45 7.57498 30 12.225 30 16.425V22.725C30 25.8 29.025 31.2 25.5 33.975L34.95 39.225C34.95 39.225 37.5 40.275 37.5 41.775V45.525C37.5 46.95 36.375 48.075 34.95 48.075H2.55002C1.12502 48.075 0 46.95 0 45.525V41.775C0 40.35 2.55002 39.225 2.55002 39.225L12.225 33.975C8.69999 31.125 7.5 25.5 7.5 22.725V16.425C7.5 12.225 13.2 7.57498 18.825 7.57498ZM48 34.275V38.025C48 39.45 46.875 40.575 45.45 40.575H40.5C40.125 39.225 39.825 38.25 38.925 37.575H45V34.875C44.775 34.725 44.55 34.575 44.325 34.5C44.225 34.45 44.125 34.4 44.025 34.35L34.425 29.175C33.525 28.65 33 27.75 32.925 26.775C32.775 25.725 33.225 24.75 34.05 24.15C36.6 22.125 37.5 17.625 37.5 15.3V8.92497C37.5 6.74997 33.525 3 29.175 3C27 3 24.975 3.74996 23.4 5.02496C22.275 4.64996 20.925 4.64998 19.65 4.57498C21.825 2.02498 25.575 0 29.175 0C34.8 0 40.5 4.72497 40.5 8.92497V15.3C40.5 18.3 39.375 23.775 35.85 26.475L45.45 31.725C45.45 31.725 48 32.775 48 34.275Z" fill="#333399"/>
</svg>
