<svg width="81" height="80" viewBox="0 0 81 80" fill="none" xmlns="http://www.w3.org/2000/svg">
<path d="M15.9581 16.2551C17.511 15.9057 17.5368 17.4715 18.2485 18.2867C18.999 19.1407 21.1471 19.4125 20.5259 20.9653C20.1766 21.8323 18.9602 22.0005 18.3908 22.531C17.7438 23.1263 17.5627 24.8214 16.3204 24.8602C15.1688 24.8991 14.897 23.3592 14.2888 22.6734C13.4995 21.7934 11.675 21.8064 12.0502 20.176C12.2573 19.2443 13.6159 19.0501 14.1982 18.4937C14.8194 17.8855 15.0265 16.4622 15.9581 16.2551Z" fill="#333399"/>
<path d="M24.2643 12.166C23.8114 12.6189 23.8114 13.5506 23.035 13.6282C21.9998 13.7317 22.0904 12.6836 21.5598 12.166C21.1458 11.7519 20.2659 11.7001 20.1235 11.0661C19.9035 10.0179 21.1458 9.96619 21.6117 9.46153C22.0128 9.02157 22.2069 7.76638 23.1515 8.03812C23.695 8.20634 23.8891 9.11215 24.1997 9.46153C24.6655 9.96619 25.9077 10.0309 25.6877 11.0661C25.5583 11.7001 24.6784 11.7519 24.2643 12.166Z" fill="#333399"/>
<path d="M39.7836 60.4194C38.9554 59.85 37.2991 58.6984 38.2308 57.6114C38.7742 56.9773 41.7246 55.1399 42.5657 54.9069C44.3514 54.4023 44.4808 55.2951 45.503 55.2563C45.5677 55.2563 45.6454 55.2434 45.7101 55.2175V11.6873C44.9855 11.6743 44.2479 11.7002 43.4844 11.7519C20.3476 13.2918 16.7762 45.6936 27.7881 61.4546C33.1712 69.1539 39.5636 72.2207 45.6972 71.9878V62.1146C43.6268 62.1534 41.5046 61.5969 39.7836 60.4194ZM28.7975 41.4234C27.9564 38.0849 31.2173 35.7557 34.1805 35.4322C37.7649 35.044 42.6821 37.2956 41.4658 41.6305C40.0682 46.6771 30.1174 46.6641 28.7975 41.4234Z" fill="#333399"/>
<path d="M68.9849 45.3184C70.5248 29.1692 63.5242 11.8684 45.7188 11.6873V55.2175C46.1846 55.101 46.7022 54.6999 47.2974 54.6999C48.3714 54.6999 49.7819 55.541 50.6747 56.1233C51.1276 56.4209 52.7969 57.5726 52.9263 57.9867C53.2627 59.0607 51.8781 59.9794 51.0629 60.51C49.4972 61.5322 47.6209 62.0757 45.7446 62.1145V71.9878C57.1189 71.5478 67.6133 59.7465 68.9849 45.3184ZM49.7689 42.3551C47.9314 38.8095 51.3994 35.8074 54.725 35.4322C58.4129 35.0181 63.5759 37.4896 61.9843 41.8634C60.315 46.4053 51.9558 46.5735 49.7689 42.3551Z" fill="#333399"/>
</svg>
