<svg width="81" height="80" viewBox="0 0 81 80" fill="none" xmlns="http://www.w3.org/2000/svg">
<path d="M27.2643 29.52C26.5493 28.615 25.4943 27.03 24.9943 24.83C24.2743 21.665 25.1343 19.105 25.7493 17.265C26.8743 16.825 28.3093 16.41 29.9943 16.255C34.4893 15.855 38.0393 17.575 39.7643 18.6C40.0043 18.745 40.2793 18.82 40.5593 18.82C40.8393 18.82 41.1143 18.745 41.3543 18.6C43.0743 17.575 46.6243 15.855 51.1243 16.255C52.8093 16.405 54.2443 16.82 55.3693 17.265C55.9843 19.1 56.8443 21.665 56.1243 24.83C55.6243 27.025 54.5693 28.615 53.8543 29.52" stroke="#333399" stroke-width="3" stroke-miterlimit="10" stroke-linecap="round" stroke-linejoin="round"/>
<path d="M24.8578 73.535C20.1328 62.06 24.8578 51.075 24.8578 51.075C25.4828 49.295 26.1278 47.505 26.7828 45.705C27.5328 43.645 27.7478 43.105 27.8928 42.685C29.1278 39.195 28.8828 35.695 28.8678 35.505C28.7628 34.16 28.5528 32.04 27.2578 29.515C27.2578 29.515 33.0328 31.94 38.2828 29.515C38.7028 29.315 39.4778 29.02 40.4928 29.005C41.5778 28.99 42.4028 29.315 42.8328 29.515C44.7228 30.29 46.3128 30.47 47.3278 30.505C49.0878 30.565 50.6778 30.23 51.3678 30.09C51.3678 30.09 51.7078 30.02 53.8528 29.515C52.5628 32.04 52.3528 34.16 52.2478 35.505C52.2328 35.7 51.9878 39.195 53.2228 42.685C53.3728 43.1 53.5828 43.645 54.3328 45.705C54.9878 47.505 55.6328 49.295 56.2578 51.075C57.0878 53.24 57.9528 56.195 58.2378 59.76C58.7328 65.84 57.3178 70.73 56.2578 73.535" stroke="#333399" stroke-width="3" stroke-miterlimit="10" stroke-linecap="round" stroke-linejoin="round"/>
<path d="M17.0634 36.59C17.0634 31.715 17.0384 30.83 16.8884 24.2C16.8234 21.3 16.8084 19.375 16.8134 18.1C16.8234 16.435 17.0384 14.77 17.5434 13.18C18.0784 11.495 18.8784 9.88499 20.4284 8.80499C22.3534 7.45499 23.7984 8.065 30.3734 6.41C30.9684 6.26 31.4984 6.12 31.9434 6" stroke="#333399" stroke-width="3" stroke-miterlimit="10" stroke-linecap="round" stroke-linejoin="round"/>
<path d="M49.3223 6.04004C49.7023 6.14004 50.1273 6.25506 50.5973 6.37006C57.1723 8.02506 58.6173 7.41505 60.5423 8.76505C62.0923 9.84505 62.8973 11.455 63.4273 13.14C63.9323 14.73 64.1473 16.3951 64.1573 18.0601C64.1623 19.3351 64.1473 21.2601 64.0823 24.1601C63.9323 30.7901 63.9073 31.675 63.9073 36.55" stroke="#333399" stroke-width="3" stroke-miterlimit="10" stroke-linecap="round" stroke-linejoin="round"/>
<path d="M23.6133 55.15C27.0233 56.615 36.8933 61.33 40.3983 68.345C42.5283 64.075 47.0183 60.655 50.9783 58.305C53.7283 56.675 56.2133 55.555 57.4783 55.025" stroke="#333399" stroke-width="3" stroke-miterlimit="10" stroke-linecap="round" stroke-linejoin="round"/>
<path d="M40.3984 67.66V73.585" stroke="#333399" stroke-width="3" stroke-miterlimit="10" stroke-linecap="round" stroke-linejoin="round"/>
<path d="M24.4434 52.175C28.8784 53.22 34.6434 54.125 41.3884 54.045C47.3934 53.975 52.5684 53.135 56.6684 52.16" stroke="#333399" stroke-width="3" stroke-miterlimit="10" stroke-linecap="round" stroke-linejoin="round"/>
<path d="M39.4238 42.425C39.5738 42.835 39.9688 43.105 40.4038 43.1C40.8338 43.095 41.2188 42.825 41.3688 42.425" stroke="#333399" stroke-width="3" stroke-miterlimit="10" stroke-linecap="round" stroke-linejoin="round"/>
</svg>
