<svg width="81" height="80" viewBox="0 0 81 80" fill="none" xmlns="http://www.w3.org/2000/svg">
<path d="M53.468 76.95C54.653 73.815 56.228 68.365 55.678 61.58C55.353 57.6 54.393 54.31 53.468 51.89C53.213 51.16 52.9531 50.43 52.6931 49.7L51.623 46.74" stroke="#333399" stroke-width="3" stroke-miterlimit="10" stroke-linecap="round" stroke-linejoin="round"/>
<path d="M18.4226 76.95C13.1476 64.145 18.4226 51.89 18.4226 51.89C19.1226 49.905 19.8376 47.91 20.5726 45.9C21.4126 43.605 21.6476 43 21.8126 42.535C23.1926 38.64 22.9175 34.735 22.9025 34.52L20.8026 20.95C20.6726 20.115 20.2076 19.375 19.5076 18.9L18.6576 25.01" stroke="#333399" stroke-width="3" stroke-miterlimit="10" stroke-linecap="round" stroke-linejoin="round"/>
<path d="M11.1483 23.8051C11.0733 20.5701 11.0584 18.42 11.0634 17C11.0734 15.14 11.3134 13.285 11.8784 11.51C12.4734 9.63001 13.3683 7.835 15.0983 6.63C17.2483 5.125 18.8584 5.80502 26.1934 3.95502C26.8584 3.79002 27.4484 3.63 27.9434 3.5" stroke="#333399" stroke-width="3" stroke-miterlimit="10" stroke-linecap="round" stroke-linejoin="round"/>
<path d="M44.0938 3.54004C44.5188 3.65004 44.9938 3.78003 45.5188 3.91003C52.8538 5.75503 54.4688 5.07502 56.6138 6.58002C58.3438 7.78502 59.2438 9.58002 59.8338 11.46C60.1338 12.405 60.3438 13.37 60.4738 14.35" stroke="#333399" stroke-width="3" stroke-miterlimit="10" stroke-linecap="round" stroke-linejoin="round"/>
<path d="M36.498 29.015C37.503 30.655 37.713 32.595 37.283 34.4C37.098 35.185 36.7981 35.9501 36.7081 36.7451C36.5831 37.8501 37.0331 39.17 38.2531 39.755C39.4581 40.33 41.2781 40.15 42.0781 39.14C42.7831 38.25 42.468 37.0151 41.923 36.1201C41.533 35.4751 40.933 34.8051 41.313 34.0551C41.593 33.5101 42.173 33.095 42.873 32.98C44.583 32.705 45.738 34.12 45.853 35.375C45.928 36.18 45.678 36.9851 45.343 37.7401C44.723 39.1501 43.6481 40.55 44.1381 42.105C44.4081 42.96 45.1431 43.695 46.0831 44.105C48.1381 45 50.763 44.285 51.728 42.515C52.263 41.54 52.283 40.41 52.033 39.36C51.603 37.555 50.548 35.9551 49.488 34.3701C48.468 32.8451 48.3681 31.35 49.7081 29.945" stroke="#333399" stroke-width="3" stroke-miterlimit="10" stroke-linecap="round" stroke-linejoin="round"/>
<path d="M69.5013 17.855L62.9062 17.66" stroke="#333399" stroke-width="3" stroke-miterlimit="10" stroke-linecap="round" stroke-linejoin="round"/>
<path d="M69.5013 24.915L62.9062 25.125" stroke="#333399" stroke-width="3" stroke-miterlimit="10" stroke-linecap="round" stroke-linejoin="round"/>
<path d="M62.9086 17.66L50.3086 17.4449V25.355L62.9086 25.1249V17.66Z" stroke="#333399" stroke-width="3" stroke-miterlimit="10" stroke-linecap="round" stroke-linejoin="round"/>
<path d="M50.3072 25.3551C48.4872 26.8551 46.9172 27.2351 45.9672 27.3451C44.0672 27.5651 42.3422 26.9801 35.6922 23.0451C33.7272 21.8801 32.1122 20.89 30.9922 20.19C31.9972 19.585 33.2472 18.91 34.7372 18.265C37.7122 16.98 42.0572 15.105 46.9222 16.195C48.2222 16.485 49.3522 16.945 50.3072 17.445" stroke="#333399" stroke-width="3" stroke-miterlimit="10" stroke-linecap="round" stroke-linejoin="round"/>
<path d="M17.9629 53.115C22.9129 54.28 29.3429 55.29 36.8729 55.2C43.5729 55.12 49.3479 54.185 53.9229 53.095" stroke="#333399" stroke-width="3" stroke-miterlimit="10" stroke-linecap="round" stroke-linejoin="round"/>
<path d="M16.9043 57.14C21.7993 58.335 28.3143 59.4351 36.0143 59.4301C43.6593 59.4201 50.1293 58.32 54.9993 57.125" stroke="#333399" stroke-width="3" stroke-miterlimit="10" stroke-linecap="round" stroke-linejoin="round"/>
<path d="M16.4531 69.8551C19.0731 71.6551 21.9531 72.2751 24.6731 72.2751C30.6081 72.2751 35.7631 69.3301 35.7631 69.3301C35.7631 69.3301 47.0031 75.7451 55.3831 69.6301" stroke="#333399" stroke-width="3" stroke-miterlimit="10" stroke-linecap="round" stroke-linejoin="round"/>
<path d="M35.7637 66.135V69.33V76.95" stroke="#333399" stroke-width="3" stroke-miterlimit="10" stroke-linecap="round" stroke-linejoin="round"/>
</svg>
