<svg width="81" height="80" viewBox="0 0 81 80" fill="none" xmlns="http://www.w3.org/2000/svg">
<path d="M41.2383 6V6.7446" stroke="#333399" stroke-width="0.314" stroke-miterlimit="10"/>
<path d="M41.2383 8.22192V72.9067" stroke="#333399" stroke-width="0.314" stroke-miterlimit="10" stroke-dasharray="1.26 1.26"/>
<path d="M41.2383 73.6514V74.396" stroke="#333399" stroke-width="0.314" stroke-miterlimit="10"/>
<path d="M39.9478 33.7862C39.1204 31.5642 38.1631 29.3778 36.9458 27.3331C36.3785 26.3876 35.5157 24.9693 34.7829 24.1893C34.5229 23.9174 34.3101 23.551 33.8492 23.6338C33.5419 23.9529 35.1847 25.7494 35.4684 26.1512C36.2603 27.2976 39.6168 32.6516 39.6168 33.7153C39.6168 33.9871 39.3332 34.2235 39.3095 34.5072C39.2741 34.9917 39.9478 35.4172 39.3923 35.819C34.0738 27.3803 25.6705 18.7999 15.849 15.9397C8.62768 13.8359 1.22905 15.6678 7.16213 24.1538C7.54034 24.6856 8.97042 26.2221 9.10043 26.6003C9.36045 27.4276 9.34863 28.8459 9.52591 29.7678C10.2232 33.3371 11.8542 39.5184 15.4117 41.2203C16.0145 41.5158 16.5936 41.5158 17.1373 41.8467C11.9606 48.7371 15.9436 58.8659 23.8859 61.3361C32.1118 63.9008 37.4422 57.1994 39.7114 50.2026C39.7587 51.9046 39.0495 58.3341 40.7751 59.1496C40.846 59.185 40.9051 59.1968 40.976 59.1968V33.7271L39.9478 33.7862ZM8.69859 17.7834C10.1878 15.656 13.3434 18.3507 11.4642 20.1472C9.84502 21.6955 7.43397 19.5799 8.69859 17.7834ZM11.1333 25.6784C10.2823 25.5603 10.1287 24.0474 10.8378 23.8347C12.6461 23.291 12.7288 25.903 11.1333 25.6784ZM13.0834 30.4533C12.5043 31.1742 11.6415 30.146 12.1734 29.626C12.7288 29.0705 13.5916 29.8151 13.0834 30.4533ZM30.6699 28.3377C31.4145 28.1013 31.8754 29.1768 31.0836 29.3896C30.2326 29.6378 30.2326 28.4795 30.6699 28.3377ZM26.6279 24.4493C27.9516 24.2129 28.4362 26.2576 27.337 26.5767C25.6469 27.0731 25.1859 24.7093 26.6279 24.4493ZM25.0087 27.404C27.2543 27.7231 29.0389 30.5833 30.6463 32.0843C32.1237 33.4553 33.8965 34.7435 35.5275 35.9609C35.9884 36.3036 37.844 37.4146 37.9149 37.781C37.9622 37.9937 37.9031 38.2537 37.9149 38.4783C37.6431 38.5256 37.454 38.4074 37.2294 38.301C34.0619 36.93 27.857 33.0416 25.2569 30.7488C24.0159 29.6496 21.1439 26.8603 25.0087 27.404ZM23.5077 43.0522C24.1813 42.9931 27.6206 42.7804 27.7506 43.5722C27.7861 43.7968 27.5025 43.9741 27.337 44.0805C25.8596 45.0142 21.3212 45.2269 19.5129 46.2433C16.9836 46.6806 18.8983 44.5769 19.8911 43.9623C20.8484 43.3831 22.3967 43.1468 23.5077 43.0522ZM21.2266 41.7167C23.815 40.9839 26.5333 41.3267 29.1571 41.6103L24.2641 42.0949C23.1886 42.2012 22.0067 42.6385 20.9548 42.6976C20.612 42.7213 20.1866 42.7922 19.9502 42.4613C19.8675 42.0713 20.9548 41.7876 21.2266 41.7167ZM27.077 45.3806C27.4434 45.1915 28.2707 45.0141 28.4952 44.8369C28.968 44.4705 29.4053 43.3477 30.3035 42.8158C30.9181 42.4495 32.6082 42.0712 33.3055 42.0712H37.2885C37.3594 42.1422 37.1821 42.5558 37.0876 42.6504C36.7212 43.0286 34.7947 43.9505 34.1092 44.4469C33.2228 45.0851 31.7927 46.6688 31.0954 47.0588C30.3981 47.4488 28.6134 47.6852 27.6797 48.0161C26.947 48.2762 25.2805 49.2453 24.7132 49.2689C24.2641 49.2926 24.4768 48.2998 24.5477 48.0043C24.8905 46.5033 25.8478 46.007 27.077 45.3806ZM22.0658 31.3042C22.6567 31.2688 23.4131 30.9378 23.9213 30.9851C24.725 31.0678 26.3206 32.9825 27.2897 33.1716C27.597 33.5144 26.3797 33.5971 26.2497 33.6207C23.9332 33.9162 17.7873 34.389 15.8727 33.4198C15.2108 33.0771 14.478 32.3207 15.2581 31.6943C16.18 30.9615 20.6239 31.3752 22.0658 31.3042ZM15.9672 23.1728C16.5936 22.9837 16.6882 23.9884 16.2745 24.1065C15.6481 24.2956 15.5536 23.291 15.9672 23.1728ZM20.2102 21.0218C22.2667 20.5609 22.5503 23.2556 20.8839 23.5865C19.2765 23.8938 18.6737 21.3645 20.2102 21.0218ZM20.9548 25.8321C20.5293 25.2293 21.5221 24.6148 21.8057 25.0639C22.1603 25.643 21.3448 26.3876 20.9548 25.8321ZM17.3027 27.1676C18.4255 25.4421 22.704 28.6568 23.224 30.0396H20.6475C20.4229 30.0396 19.241 29.6614 18.9456 29.555C17.9882 29.1768 16.7591 28.3377 17.3027 27.1676ZM16.3454 19.0362C17.2555 19.8281 15.8963 21.0809 15.1399 20.3245C14.4898 19.6626 15.3999 18.2207 16.3454 19.0362ZM14.1707 26.3639C14.6199 25.8321 15.6954 26.7067 15.069 27.3449C14.5608 27.8531 13.5562 27.0967 14.1707 26.3639ZM15.1044 37.9346C14.5489 37.19 14.5253 36.3627 15.3408 35.819C16.6172 34.9681 20.6475 35.4645 22.3731 35.3463C24.8787 35.169 26.6042 34.0817 29.1689 34.8026C31.9464 35.5827 34.3929 37.9937 37.1348 38.9511C37.1112 39.1993 36.473 39.2347 36.2721 39.2583C31.8282 39.7075 27.1361 39.932 22.6922 39.7193C20.6593 39.6247 16.44 39.7193 15.1044 37.9346ZM17.48 48.9026C18.2837 46.8343 22.6094 46.7043 24.4768 46.1369C24.6305 46.3142 23.5313 47.3188 23.3422 47.5789C23.0585 47.9689 23.0349 48.4535 22.6567 48.7726C22.4085 48.9735 19.1465 50.699 18.8629 50.7581C17.4328 51.0418 16.9955 50.1554 17.48 48.9026ZM19.8674 51.7628C20.2693 51.4555 24.1104 49.5172 24.3114 49.7299C24.3468 50.0608 24.2995 50.3208 24.1932 50.6281C24.0632 51.0063 22.2903 54.0438 22.0539 54.2684C20.5175 55.7221 17.5273 53.5356 19.8674 51.7628ZM24.0159 58.2513C22.3021 58.7477 21.9121 57.0458 22.2431 55.6984C22.4676 54.7884 25.3278 50.8172 26.1196 50.2026C26.5806 49.8363 29.2398 48.4534 29.6299 48.7962L27.0533 52.8501C26.1551 54.1383 25.5996 57.7786 24.0159 58.2513ZM26.356 57.4594C26.4624 56.2421 28.3298 52.8737 29.0389 51.7155C31.0599 48.3707 34.0147 45.2742 37.7612 43.9504C36.6266 46.0306 35.0074 47.8152 33.6601 49.7771C32.0409 52.1291 30.4572 55.2375 28.7553 57.3767C27.9516 58.3813 26.1315 59.9296 26.356 57.4594ZM29.6771 58.2749C29.2871 57.8376 29.5589 57.2704 29.819 56.8567C30.989 54.942 33.4001 53.0392 34.5111 50.9236L38.0686 44.7187C38.1867 45.0732 38.234 45.3333 38.2104 45.7115C38.0331 48.5835 34.2629 55.4384 32.3482 57.6722C31.7573 58.3813 30.4217 59.1141 29.6771 58.2749ZM33.5419 57.8495C35.1375 54.3629 37.5485 51.2309 38.3167 47.3897L38.8604 44.2577C39.5932 49.4108 37.3949 54.5047 33.5419 57.8495Z" fill="#333399"/>
<g opacity="0.4">
<mask id="mask0_2822_21383" style="mask-type:luminance" maskUnits="userSpaceOnUse" x="60" y="20" width="3" height="4">
<path d="M62.8241 20.892H60.0703V23.6694H62.8241V20.892Z" fill="white"/>
</mask>
<g mask="url(#mask0_2822_21383)">
<path d="M61.6565 23.5748C63.323 23.2439 63.0748 20.5373 60.9829 21.0101C59.5882 21.3292 59.9901 23.9057 61.6565 23.5748Z" stroke="#333399" stroke-width="0.114" stroke-miterlimit="10"/>
</g>
</g>
<g opacity="0.4">
<mask id="mask1_2822_21383" style="mask-type:luminance" maskUnits="userSpaceOnUse" x="60" y="24" width="2" height="3">
<path d="M61.2952 24.8746H60.1133V26.092H61.2952V24.8746Z" fill="white"/>
</mask>
<g mask="url(#mask1_2822_21383)">
<path d="M60.2667 25.0637C59.9239 25.6428 60.7276 26.3992 61.1176 25.8437C61.5786 25.1819 60.4794 24.721 60.2667 25.0637Z" stroke="#333399" stroke-width="0.114" stroke-miterlimit="10"/>
</g>
</g>
<g opacity="0.4">
<mask id="mask2_2822_21383" style="mask-type:luminance" maskUnits="userSpaceOnUse" x="54" y="24" width="3" height="3">
<path d="M56.4187 24.355H54.0312V26.7424H56.4187V24.355Z" fill="white"/>
</mask>
<g mask="url(#mask2_2822_21383)">
<path d="M55.9925 26.4114C57.1862 25.2886 55.1534 23.5276 54.3024 24.9577C53.5224 26.2577 55.2125 27.1442 55.9925 26.4114Z" stroke="#333399" stroke-width="0.114" stroke-miterlimit="10"/>
</g>
</g>
<g opacity="0.4">
<mask id="mask3_2822_21383" style="mask-type:luminance" maskUnits="userSpaceOnUse" x="58" y="26" width="7" height="5">
<path d="M64.9942 26.6711H58.7656V30.1223H64.9942V26.6711Z" fill="white"/>
</mask>
<g mask="url(#mask3_2822_21383)">
<path d="M58.8507 30.0395H61.4272C61.5926 30.0395 62.7627 29.6968 63.0227 29.6022C65.5756 28.6449 65.682 26.1157 62.6327 26.8721C61.9118 27.0494 60.8953 27.8294 60.328 28.3258C60.1508 28.4794 58.6734 29.8859 58.8507 30.0395Z" stroke="#333399" stroke-width="0.114" stroke-miterlimit="10"/>
</g>
</g>
<g opacity="0.4">
<mask id="mask4_2822_21383" style="mask-type:luminance" maskUnits="userSpaceOnUse" x="65" y="18" width="3" height="3">
<path d="M67.2266 18.7406H65.3828V20.5962H67.2266V18.7406Z" fill="white"/>
</mask>
<g mask="url(#mask4_2822_21383)">
<path d="M66.4092 20.5136C67.6502 20.3954 67.1892 18.6226 66.1492 18.8235C65.0736 19.0244 65.2746 20.6199 66.4092 20.5136Z" stroke="#333399" stroke-width="0.114" stroke-miterlimit="10"/>
</g>
</g>
<g opacity="0.4">
<mask id="mask5_2822_21383" style="mask-type:luminance" maskUnits="userSpaceOnUse" x="66" y="26" width="3" height="2">
<path d="M68.1442 26.1278H66.7969V27.5815H68.1442V26.1278Z" fill="white"/>
</mask>
<g mask="url(#mask5_2822_21383)">
<path d="M67.8144 27.3806C68.3108 27.0024 68.0744 26.1987 67.5189 26.1987C66.337 26.1987 66.9634 28.0188 67.8144 27.3806Z" stroke="#333399" stroke-width="0.114" stroke-miterlimit="10"/>
</g>
</g>
<g opacity="0.4">
<mask id="mask6_2822_21383" style="mask-type:luminance" maskUnits="userSpaceOnUse" x="65" y="23" width="2" height="2">
<path d="M66.4142 23.0782H65.4688V24.1892H66.4142V23.0782Z" fill="white"/>
</mask>
<g mask="url(#mask6_2822_21383)">
<path d="M66.0939 24.1066C66.5076 23.9884 66.413 22.9838 65.7866 23.1729C65.3729 23.2911 65.4793 24.2957 66.0939 24.1066Z" stroke="#333399" stroke-width="0.114" stroke-miterlimit="10"/>
</g>
</g>
<g opacity="0.4">
<mask id="mask7_2822_21383" style="mask-type:luminance" maskUnits="userSpaceOnUse" x="43" y="43" width="6" height="16">
<path d="M48.736 43.6667H43.0156V58.1094H48.736V43.6667Z" fill="white"/>
</mask>
<g mask="url(#mask7_2822_21383)">
<path d="M48.535 57.8495C46.904 54.3866 44.5402 51.2191 43.772 47.3898L43.2283 44.1041C42.4719 49.2808 44.623 54.4929 48.535 57.8495Z" stroke="#333399" stroke-width="0.114" stroke-miterlimit="10"/>
</g>
</g>
<g opacity="0.4">
<mask id="mask8_2822_21383" style="mask-type:luminance" maskUnits="userSpaceOnUse" x="50" y="28" width="2" height="2">
<path d="M51.8073 28.243H50.5781V29.5076H51.8073V28.243Z" fill="white"/>
</mask>
<g mask="url(#mask8_2822_21383)">
<path d="M51.404 29.4013C52.0185 29.2004 51.7467 28.0894 50.9903 28.3376C50.3757 28.5503 50.6357 29.6613 51.404 29.4013Z" stroke="#333399" stroke-width="0.114" stroke-miterlimit="10"/>
</g>
</g>
<g opacity="0.4">
<mask id="mask9_2822_21383" style="mask-type:luminance" maskUnits="userSpaceOnUse" x="43" y="44" width="10" height="15">
<path d="M52.6571 44.778H43.793V58.6415H52.6571V44.778Z" fill="white"/>
</mask>
<g mask="url(#mask9_2822_21383)">
<path d="M49.9369 57.9323C50.847 58.8306 52.7853 58.8542 52.5725 57.495C52.4661 56.8686 50.0551 54.2921 49.476 53.5357C47.4195 50.841 45.5403 47.9808 44.1575 44.8724C43.5074 45.3688 44.0629 46.9289 44.2757 47.6499C44.9257 49.8955 48.3177 56.3368 49.9369 57.9323Z" stroke="#333399" stroke-width="0.114" stroke-miterlimit="10"/>
</g>
</g>
<g opacity="0.4">
<mask id="mask10_2822_21383" style="mask-type:luminance" maskUnits="userSpaceOnUse" x="44" y="27" width="16" height="12">
<path d="M59.1629 27.2856H44.082V38.549H59.1629V27.2856Z" fill="white"/>
</mask>
<g mask="url(#mask10_2822_21383)">
<path d="M44.8495 38.301C48.1825 36.8709 55.912 32.0488 58.2876 29.4014C58.6067 29.035 59.4341 28.0304 58.9731 27.5812C58.5004 27.1321 56.8457 27.4631 56.243 27.6758C54.5174 28.2904 52.65 30.9851 51.1963 32.3206C49.1044 34.2235 46.6342 35.8427 44.3177 37.4737L44.1641 38.4901C44.4241 38.5255 44.6132 38.4074 44.8495 38.301Z" stroke="#333399" stroke-width="0.114" stroke-miterlimit="10"/>
</g>
</g>
<g opacity="0.4">
<mask id="mask11_2822_21383" style="mask-type:luminance" maskUnits="userSpaceOnUse" x="69" y="23" width="3" height="3">
<path d="M71.7909 23.681H69.7344V25.7612H71.7909V23.681Z" fill="white"/>
</mask>
<g mask="url(#mask11_2822_21383)">
<path d="M70.2866 25.5484C71.9767 26.3403 72.3904 23.1965 70.3575 23.8229C69.6957 24.0238 69.5656 25.2175 70.2866 25.5484Z" stroke="#333399" stroke-width="0.114" stroke-miterlimit="10"/>
</g>
</g>
<g opacity="0.4">
<mask id="mask12_2822_21383" style="mask-type:luminance" maskUnits="userSpaceOnUse" x="54" y="42" width="10" height="5">
<path d="M63.9178 42.9103H54.25V46.3732H63.9178V42.9103Z" fill="white"/>
</mask>
<g mask="url(#mask12_2822_21383)">
<path d="M54.324 43.5721C54.1939 44.3285 57.586 44.7776 58.2242 44.9667C59.347 45.274 62.5499 46.4677 63.46 46.3023C63.6372 46.2668 63.7673 46.2313 63.8382 46.054C63.9327 45.7349 63.259 44.884 63.0108 44.6358C61.8171 43.4303 59.7961 43.123 58.1415 43.0166C57.515 42.9693 54.454 42.8511 54.324 43.5721Z" stroke="#333399" stroke-width="0.114" stroke-miterlimit="10"/>
</g>
</g>
<g opacity="0.4">
<mask id="mask13_2822_21383" style="mask-type:luminance" maskUnits="userSpaceOnUse" x="52" y="41" width="11" height="2">
<path d="M62.1896 41.2085H52.2617V42.7923H62.1896V41.2085Z" fill="white"/>
</mask>
<g mask="url(#mask13_2822_21383)">
<path d="M58.4571 41.2912C57.5353 41.2203 56.5779 41.3385 55.6442 41.2912L52.9141 41.7522C54.0369 41.7995 55.3133 41.7994 56.4243 41.9176C57.9489 42.0831 59.6745 42.6149 61.1164 42.6977C61.4591 42.7213 61.8846 42.7923 62.121 42.4613C62.2746 41.7876 58.9653 41.3267 58.4571 41.2912Z" stroke="#333399" stroke-width="0.114" stroke-miterlimit="10"/>
</g>
</g>
<g opacity="0.4">
<mask id="mask14_2822_21383" style="mask-type:luminance" maskUnits="userSpaceOnUse" x="44" y="43" width="12" height="16">
<path d="M55.8135 43.8206H44.1719V58.8424H55.8135V43.8206Z" fill="white"/>
</mask>
<g mask="url(#mask14_2822_21383)">
<path d="M44.3242 43.9506C45.4588 45.9716 47.0308 47.7563 48.3545 49.6827C49.7727 51.7274 52.3965 56.7032 53.9093 58.1096C54.3939 58.5587 55.5167 59.3033 55.7295 58.2396C55.9777 56.9632 54.3112 53.9021 53.6257 52.6965C51.5101 48.9381 48.4845 45.4279 44.3242 43.9506Z" stroke="#333399" stroke-width="0.114" stroke-miterlimit="10"/>
</g>
</g>
<g opacity="0.4">
<mask id="mask15_2822_21383" style="mask-type:luminance" maskUnits="userSpaceOnUse" x="68" y="29" width="3" height="2">
<path d="M70.1327 29.3542H68.7617V30.7607H70.1327V29.3542Z" fill="white"/>
</mask>
<g mask="url(#mask15_2822_21383)">
<path d="M69.8964 29.6142C69.341 29.0705 68.4782 29.8151 68.9864 30.4415C69.5655 31.1625 70.4283 30.1342 69.8964 29.6142Z" stroke="#333399" stroke-width="0.114" stroke-miterlimit="10"/>
</g>
</g>
<g opacity="0.4">
<mask id="mask16_2822_21383" style="mask-type:luminance" maskUnits="userSpaceOnUse" x="69" y="16" width="5" height="5">
<path d="M73.7903 16.9324H69.9609V20.7499H73.7903V16.9324Z" fill="white"/>
</mask>
<g mask="url(#mask16_2822_21383)">
<path d="M73.3657 17.7833C71.8766 15.6559 68.7209 18.3506 70.6001 20.1471C72.2311 21.6954 74.6304 19.5798 73.3657 17.7833Z" stroke="#333399" stroke-width="0.114" stroke-miterlimit="10"/>
</g>
</g>
<g opacity="0.4">
<mask id="mask17_2822_21383" style="mask-type:luminance" maskUnits="userSpaceOnUse" x="54" y="30" width="14" height="5">
<path d="M67.2194 30.9142H54.6914V34.0816H67.2194V30.9142Z" fill="white"/>
</mask>
<g mask="url(#mask17_2822_21383)">
<path d="M60.0207 31.3042C59.4298 31.2688 58.6734 30.9378 58.1652 30.9851C57.8343 31.0205 55.435 32.7815 54.9977 33.1243C54.8677 33.2188 54.7141 33.1243 54.7968 33.4789C57.7397 33.7389 60.8126 34.1762 63.7792 33.9516C64.5592 33.8925 66.533 33.5971 66.9703 32.9234C67.2539 32.4861 67.2539 32.0252 66.8284 31.6942C65.8948 30.9614 61.4627 31.3751 60.0207 31.3042Z" stroke="#333399" stroke-width="0.114" stroke-miterlimit="10"/>
</g>
</g>
<g opacity="0.4">
<mask id="mask18_2822_21383" style="mask-type:luminance" maskUnits="userSpaceOnUse" x="44" y="34" width="24" height="6">
<path d="M67.4622 34.5072H44.7227V39.9439H67.4622V34.5072Z" fill="white"/>
</mask>
<g mask="url(#mask18_2822_21383)">
<path d="M66.6487 35.76C65.2895 34.9799 61.4602 35.4763 59.711 35.3581C56.2008 35.1099 55.1253 33.7153 51.4496 35.3818L44.9492 39.1047C46.5802 39.2702 48.2349 39.4711 49.8659 39.5775C53.6125 39.8139 62.6421 40.3812 65.8332 38.8211C66.9915 38.2419 68.2324 36.67 66.6487 35.76Z" stroke="#333399" stroke-width="0.114" stroke-miterlimit="10"/>
</g>
</g>
<g opacity="0.4">
<mask id="mask19_2822_21383" style="mask-type:luminance" maskUnits="userSpaceOnUse" x="57" y="46" width="8" height="5">
<path d="M64.8474 46.0544H57.5078V50.8766H64.8474V46.0544Z" fill="white"/>
</mask>
<g mask="url(#mask19_2822_21383)">
<path d="M57.591 46.1371C57.4137 46.3498 58.4301 47.1653 58.5956 47.4017C58.9029 47.8272 58.9738 48.4418 59.4111 48.7727C59.6948 48.9973 62.9095 50.6992 63.205 50.7583C64.635 51.0537 65.0724 50.1673 64.5878 48.9027C63.7841 46.8108 59.4702 46.728 57.591 46.1371Z" stroke="#333399" stroke-width="0.114" stroke-miterlimit="10"/>
</g>
</g>
<g opacity="0.4">
<mask id="mask20_2822_21383" style="mask-type:luminance" maskUnits="userSpaceOnUse" x="57" y="49" width="7" height="6">
<path d="M63.1366 49.6471H57.6172V54.8001H63.1366V49.6471Z" fill="white"/>
</mask>
<g mask="url(#mask20_2822_21383)">
<path d="M62.1998 51.7627C61.7507 51.42 58.0041 49.5526 57.7441 49.7299C57.6968 49.9662 57.6377 50.0608 57.7086 50.309C57.8032 50.6517 59.7769 54.0556 60.0133 54.2683C61.6325 55.722 64.5045 53.5119 62.1998 51.7627Z" stroke="#333399" stroke-width="0.114" stroke-miterlimit="10"/>
</g>
</g>
<g opacity="0.4">
<mask id="mask21_2822_21383" style="mask-type:luminance" maskUnits="userSpaceOnUse" x="44" y="42" width="14" height="8">
<path d="M57.7038 42.0002H44.7148V49.3398H57.7038V42.0002Z" fill="white"/>
</mask>
<g mask="url(#mask21_2822_21383)">
<path d="M48.7642 42.0713H44.7812C44.8994 42.9104 45.9041 43.0759 46.5423 43.5132C47.2278 43.9741 48.0196 44.4705 48.6697 44.9787C49.3079 45.4751 50.4307 46.7516 50.9625 47.0589C51.6362 47.4371 53.3618 47.6616 54.26 47.9807C55.3828 48.3708 56.3638 49.0326 57.4866 49.2808C57.9239 48.4771 57.1675 46.8934 56.5647 46.3025C55.7374 45.4988 54.1655 45.3215 53.5272 44.8133C53.2909 44.6242 53.2554 44.2578 53.0545 44.0451C51.7544 42.615 50.7025 42.2249 48.7642 42.0713Z" stroke="#333399" stroke-width="0.114" stroke-miterlimit="10"/>
</g>
</g>
<g opacity="0.4">
<mask id="mask22_2822_21383" style="mask-type:luminance" maskUnits="userSpaceOnUse" x="52" y="48" width="9" height="11">
<path d="M60.0259 48.6664H52.3555V58.4288H60.0259V48.6664Z" fill="white"/>
</mask>
<g mask="url(#mask22_2822_21383)">
<path d="M55.9477 50.2029C55.4868 49.8483 52.8275 48.4537 52.4375 48.7964L54.9667 52.7558C55.8886 54.044 56.2432 56.786 57.3423 57.8024C58.7606 59.1143 60.1198 58.0033 59.9425 56.2187C59.8243 55.0604 56.905 50.9475 55.9477 50.2029Z" stroke="#333399" stroke-width="0.114" stroke-miterlimit="10"/>
</g>
</g>
<g opacity="0.2">
<mask id="mask23_2822_21383" style="mask-type:luminance" maskUnits="userSpaceOnUse" x="40" y="15" width="37" height="47">
<path d="M77.0007 15.1124H40.9648V61.8798H77.0007V15.1124Z" fill="white"/>
</mask>
<g mask="url(#mask23_2822_21383)">
<path d="M42.446 56.8332C42.6588 55.214 42.446 52.6375 42.446 50.9001C42.446 50.8055 42.0324 50.2264 42.446 50.2028C43.1197 52.4129 44.1243 54.5994 45.448 56.5022C55.2341 70.4958 74.0852 54.2448 64.7956 41.7641C67.8685 41.4331 69.7004 38.5848 70.8114 35.9846C72.0642 33.0181 72.6315 29.7561 72.9506 26.565C82.2521 16.1053 74.0852 12.6778 63.7082 16.8498C54.9268 20.3719 47.6582 27.9478 42.6942 35.8192C42.1387 35.4173 42.8124 34.9919 42.7769 34.5073C42.7533 34.2236 42.4815 33.9872 42.4697 33.7154C42.4578 32.6517 45.7553 27.3805 46.5472 26.2459C46.8072 25.8677 48.5209 23.9175 48.2373 23.6339C47.93 23.5748 47.8236 23.693 47.5991 23.8584C46.9963 24.3194 45.5898 26.5768 45.1407 27.3332C43.947 29.3188 43.0133 31.458 42.2215 33.6445L40.9805 33.7272V59.1969C41.7487 59.2442 42.3751 57.4123 42.446 56.8332ZM73.3761 17.7836C74.6407 19.58 72.2296 21.6956 70.6223 20.1473C68.7431 18.3509 71.8869 15.6562 73.3761 17.7836ZM70.3622 23.823C72.3951 23.1966 71.9814 26.3522 70.2913 25.5485C69.5704 25.2176 69.7004 24.0239 70.3622 23.823ZM69.9013 29.6142C70.4332 30.1343 69.5704 31.1625 68.9913 30.4416C68.4831 29.8152 69.3458 29.0706 69.9013 29.6142ZM55.7186 58.2396C55.5059 59.3033 54.3831 58.5587 53.8985 58.1096C52.3857 56.7032 49.7619 51.7274 48.3437 49.6827C47.0199 47.7563 45.448 45.9834 44.3134 43.9506C48.4737 45.4279 51.5111 48.9381 53.6149 52.6965C54.3004 53.9021 55.9668 56.9632 55.7186 58.2396ZM62.1363 42.4614C61.8999 42.7923 61.4744 42.7214 61.1199 42.6978C59.678 42.615 57.9524 42.0832 56.4278 41.9177C55.3168 41.7995 54.0404 41.7995 52.9176 41.7523L55.6477 41.2913C56.5696 41.3386 57.5388 41.2204 58.4606 41.2913C58.9688 41.3268 62.2781 41.7877 62.1363 42.4614ZM63.0109 44.6243C63.2591 44.8724 63.9328 45.7116 63.8382 46.0307C63.7673 46.2198 63.6255 46.2434 63.4482 46.2789C62.55 46.4444 59.3352 45.2625 58.2124 44.9433C57.5742 44.7661 54.1822 44.3051 54.3122 43.5606C54.4304 42.8396 57.5033 42.9578 58.1297 42.9932C59.7962 43.1114 61.8172 43.4305 63.0109 44.6243ZM53.0712 44.0215C53.284 44.246 53.3194 44.6124 53.544 44.7897C54.1822 45.2979 55.7541 45.487 56.5814 46.2789C57.1842 46.858 57.9406 48.4536 57.5033 49.2573C56.3805 49.0091 55.3995 48.3472 54.2767 47.9572C53.3667 47.6499 51.6529 47.4135 50.9793 47.0471C50.4356 46.7516 49.3246 45.4752 48.6746 44.967C48.0245 44.4588 47.2445 43.9624 46.5472 43.5014C45.909 43.076 44.8925 42.9105 44.7862 42.0595H48.7691C50.7074 42.225 51.7593 42.615 53.0712 44.0215ZM57.3378 57.8023C56.2387 56.7859 55.8841 54.0439 54.9622 52.7557L52.433 48.7963C52.8348 48.4536 55.4941 49.8364 55.9432 50.2028C56.9005 50.9592 59.8198 55.0603 59.9262 56.2186C60.1153 58.0032 58.7561 59.1142 57.3378 57.8023ZM60.0207 54.2566C59.7843 54.0439 57.8106 50.6401 57.716 50.2973C57.6451 50.0491 57.7042 49.9546 57.7515 49.7182C57.9997 49.5291 61.7463 51.4083 62.2072 51.751C64.5119 53.5121 61.6399 55.7222 60.0207 54.2566ZM63.2118 50.7583C62.9045 50.6992 59.6898 48.9973 59.418 48.7727C58.9807 48.4299 58.9097 47.8272 58.6024 47.4017C58.437 47.1653 57.4205 46.3616 57.5978 46.1371C59.4652 46.728 63.7909 46.8107 64.5946 48.9027C65.0792 50.1555 64.6419 51.0419 63.2118 50.7583ZM65.8356 38.8212C62.6563 40.3813 53.6267 39.814 49.8801 39.5776C48.2491 39.4712 46.5826 39.2821 44.9634 39.1048L51.4638 35.3819C55.1395 33.7154 56.2032 35.11 59.7252 35.3582C61.4744 35.4764 65.3038 34.98 66.6629 35.7601C68.2349 36.6701 66.9939 38.242 65.8356 38.8212ZM66.8166 31.6825C67.2421 32.0135 67.2302 32.4744 66.9584 32.9117C66.5329 33.5854 64.5473 33.8809 63.7673 33.94C60.8008 34.1645 57.7279 33.7272 54.7849 33.4672C54.6904 33.1008 54.8559 33.2072 54.9859 33.1127C55.4232 32.7699 57.8342 31.0089 58.1652 30.9734C58.6734 30.9262 59.4298 31.2571 60.0207 31.2925C61.4626 31.3753 65.8947 30.9616 66.8166 31.6825ZM65.8001 23.173C66.4265 22.9839 66.5211 23.9885 66.1075 24.1067C65.4929 24.2958 65.3865 23.2912 65.8001 23.173ZM67.8212 27.3805C66.982 28.0187 66.3556 26.2104 67.5257 26.1986C68.0812 26.1868 68.3176 26.9905 67.8212 27.3805ZM66.1547 18.8236C67.1948 18.6227 67.6557 20.4073 66.4147 20.5137C65.2801 20.6201 65.0792 19.0245 66.1547 18.8236ZM60.9899 21.0219C63.0818 20.5492 63.33 23.2557 61.6635 23.5866C59.9971 23.9057 59.5952 21.3292 60.9899 21.0219ZM61.1199 25.8322C60.7299 26.3877 59.9143 25.6431 60.2689 25.0522C60.4817 24.7212 61.5808 25.1822 61.1199 25.8322ZM60.328 28.326C60.8953 27.8414 61.9117 27.0496 62.6209 26.8723C65.6701 26.1277 65.5638 28.6451 63.0109 29.6024C62.7627 29.697 61.5926 30.0397 61.4153 30.0397H58.8388C58.6734 29.8861 60.1507 28.4796 60.328 28.326ZM54.3122 24.9576C55.1631 23.5275 57.196 25.2885 56.0023 26.4113C55.2222 27.1441 53.5321 26.2577 54.3122 24.9576ZM50.9911 28.3378C51.7593 28.0778 52.0311 29.1888 51.4166 29.4015C50.6365 29.6615 50.3765 28.5506 50.9911 28.3378ZM44.3252 37.462C46.6417 35.831 49.1119 34.2118 51.2038 32.3089C52.6575 30.9852 54.5131 28.2787 56.2505 27.6641C56.8532 27.4514 58.5079 27.1205 58.9688 27.5814C59.4298 28.0305 58.6143 29.0351 58.2833 29.4015C55.9077 32.0489 48.1782 36.871 44.8453 38.3011C44.6207 38.3957 44.4316 38.5257 44.1598 38.4784L44.3252 37.462ZM44.1598 44.8843C45.5426 47.9926 47.4218 50.8528 49.4783 53.5475C50.0574 54.3039 52.4684 56.8686 52.5748 57.495C52.7875 58.8542 50.8492 58.8306 49.9392 57.9323C48.32 56.3368 44.928 49.8955 44.278 47.6617C44.077 46.9408 43.5097 45.3807 44.1598 44.8843ZM43.2261 44.1042L43.7697 47.3899C44.538 51.2192 46.9017 54.3867 48.5327 57.8614C44.6207 54.493 42.4697 49.2809 43.2261 44.1042Z" fill="#333399"/>
</g>
</g>
</svg>
