<svg width="49" height="48" viewBox="0 0 49 48" fill="none" xmlns="http://www.w3.org/2000/svg">
<path fill-rule="evenodd" clip-rule="evenodd" d="M45.5 48H30.5C28.85 48 27.5 46.65 27.5 45V30C27.5 28.35 28.85 27 30.5 27H45.5C47.15 27 48.5 28.35 48.5 30V45C48.5 46.65 47.15 48 45.5 48ZM45.5 30H30.5V45H45.5V30ZM45.5 21H30.5C28.85 21 27.5 19.65 27.5 18V3C27.5 1.35 28.85 0 30.5 0H45.5C47.15 0 48.5 1.35 48.5 3V18C48.5 19.65 47.15 21 45.5 21ZM45.5 3H30.5V18H45.5V3ZM18.5 48H3.5C1.85 48 0.5 46.65 0.5 45V30C0.5 28.35 1.85 27 3.5 27H18.5C20.15 27 21.5 28.35 21.5 30V45C21.5 46.65 20.15 48 18.5 48ZM18.5 30H3.5V45H18.5V30ZM18.5 21H3.5C1.85 21 0.5 19.65 0.5 18V3C0.5 1.35 1.85 0 3.5 0H18.5C20.15 0 21.5 1.35 21.5 3V18C21.5 19.65 20.15 21 18.5 21ZM18.5 3H3.5V18H18.5V3Z" fill="#333399"/>
</svg>
