<svg width="32" height="32" viewBox="0 0 32 32" fill="none" xmlns="http://www.w3.org/2000/svg">
<path fill-rule="evenodd" clip-rule="evenodd" d="M16 2C8.3 2 2 8.3 2 16C2 23.7 8.3 30.05 16 30.05C23.7 30.05 30 23.7 30 16C30 8.3 23.7 2 16 2ZM16 0C24.85 0 32 7.15 32 16C32 24.85 24.85 32 16 32C7.15 32 0 24.85 0 16C0 7.15 7.15 0 16 0ZM13.7 21.75C13.35 22.1 12.7 22.1 12.3 21.75L7.35 16.8C6.95 16.4 6.95 15.75 7.35 15.35C7.75 14.95 8.4 14.95 8.75 15.35L13 19.6L22.4 10.15C22.8 9.75 23.4 9.75 23.8 10.15C24.2 10.55 24.2 11.15 23.8 11.55L13.85 21.6C13.8167 21.6333 13.7667 21.6833 13.7 21.75Z" fill="#333399"/>
</svg>
