<svg width="24" height="24" viewBox="0 0 24 24" fill="none" xmlns="http://www.w3.org/2000/svg">
<path fill-rule="evenodd" clip-rule="evenodd" d="M12 1.5C6.225 1.5 1.5 6.225 1.5 12C1.5 17.775 6.225 22.5375 12 22.5375C17.775 22.5375 22.5 17.775 22.5 12C22.5 6.225 17.775 1.5 12 1.5ZM12 0C18.6375 0 24 5.3625 24 12C24 18.6375 18.6375 24 12 24C5.3625 24 0 18.6375 0 12C0 5.3625 5.3625 0 12 0ZM10.275 16.3125C10.0125 16.575 9.525 16.575 9.225 16.3125L5.5125 12.6C5.2125 12.3 5.2125 11.8125 5.5125 11.5125C5.8125 11.2125 6.3 11.2125 6.5625 11.5125L9.75 14.7L16.8 7.6125C17.1 7.3125 17.55 7.3125 17.85 7.6125C18.15 7.9125 18.15 8.3625 17.85 8.6625L10.3875 16.2C10.3625 16.225 10.325 16.2625 10.275 16.3125Z" fill="#39E158"/>
</svg>
