<svg width="24" height="24" viewBox="0 0 24 24" fill="none" xmlns="http://www.w3.org/2000/svg">
<path fill-rule="evenodd" clip-rule="evenodd" d="M12 1.5C6.225 1.5 1.5 6.225 1.5 12C1.5 17.775 6.225 22.5375 12 22.5375C17.775 22.5375 22.5 17.775 22.5 12C22.5 6.225 17.775 1.5 12 1.5ZM12 0C18.6375 0 24 5.3625 24 12C24 18.6375 18.6375 24 12 24C5.3625 24 0 18.6375 0 12C0 5.3625 5.3625 0 12 0ZM8.8125 7.7625L12 10.95L15.1875 7.7625C15.4875 7.4625 15.9375 7.4625 16.2375 7.7625C16.5375 8.0625 16.5375 8.5125 16.2375 8.8125L13.05 12L16.2375 15.1875C16.5375 15.4875 16.5375 15.9375 16.2375 16.2375C15.9375 16.5375 15.4875 16.5375 15.1875 16.2375L12 13.05L8.8125 16.2375C8.5125 16.5375 8.0625 16.5375 7.7625 16.2375C7.4625 15.9375 7.4625 15.4875 7.7625 15.1875L10.95 12L7.7625 8.8125C7.4625 8.5125 7.4625 8.0625 7.7625 7.7625C8.0625 7.4625 8.5125 7.4625 8.8125 7.7625Z" fill="#F12A2A"/>
</svg>
