<svg width="49" height="48" viewBox="0 0 49 48" fill="none" xmlns="http://www.w3.org/2000/svg">
<path fill-rule="evenodd" clip-rule="evenodd" d="M45.125 42H34.625V39H45.125V15H33.125V3H16.625C16.625 1.35 17.975 0 19.625 0H36.125L48.125 12V39C48.125 40.65 46.775 42 45.125 42ZM36.125 4.27496V12H43.85L36.125 4.27496ZM3.125 9V45H28.625V21H16.625V9H3.125ZM19.625 6L31.625 18V45C31.625 46.725 30.35 48 28.625 48H3.125C1.475 48 0.125 46.725 0.125 45V9C0.125 7.35 1.475 6 3.125 6H19.625ZM19.625 18H27.425L19.625 10.275V18Z" fill="#333399"/>
</svg>
