<svg width="80" height="80" viewBox="0 0 80 80" fill="none" xmlns="http://www.w3.org/2000/svg">
<path d="M68.549 41.2255C68.4494 41.3872 65.1151 42.8553 65.4385 43.2908C66.3966 43.9004 70.3032 45.045 70.8382 45.6547C71.1493 46.0031 71.199 46.4385 70.8506 46.7993C70.6143 47.0108 70.4028 46.8491 70.1664 46.7993C68.7853 46.4759 64.8165 43.9502 63.7962 44.2364C63.535 44.311 63.3732 44.5847 63.1866 44.7713L71.6221 49.8351C72.4183 50.4074 71.4105 51.2783 70.6765 50.7931L62.1291 45.8289L60.7107 46.7993L67.1306 50.9673L67.2052 51.4898L66.7698 51.9875C66.3841 52.1742 65.8989 51.7636 65.5754 51.5894C64.4059 50.9798 60.6111 48.0062 59.8522 47.8444C59.4043 47.7449 58.9689 48.0435 58.6703 48.367L67.5536 55.4712L67.6656 56.3545C66.9564 56.6905 66.5956 56.255 66.0233 55.8693C64.7916 55.0233 58.185 49.2628 57.6625 49.213C57.4634 49.2006 56.7916 49.5738 56.8787 49.9222C57.0031 50.4821 61.0591 53.7169 61.6065 54.65C62.0419 55.3965 61.6563 55.8693 60.8476 55.6329C60.1508 55.4339 56.7791 51.4277 55.734 50.818L54.6143 51.2784L60.6609 58.507C61.2705 59.4152 60.748 60.4852 59.7776 59.6143L53.4945 51.9253C53.2208 51.9502 52.2379 52.199 52.3872 52.5972C52.8227 53.7667 55.8211 57.1881 55.7589 58.0217C55.7465 58.283 55.6345 58.4697 55.3732 58.5567C55.1492 58.5941 54.8755 58.6687 54.6516 58.5443C54.2286 58.3079 51.9517 53.9284 51.2301 53.2814L49.8864 53.4059L54.1664 62.3141L53.8056 62.8491C53.5443 62.9113 53.283 62.9113 53.0342 62.762C52.325 62.3265 49.5505 55.2099 48.6174 54.0653L47.3981 54.4385C47.4852 55.4712 49.5878 59.7387 49.1773 60.3608L48.605 60.5723C48.2068 60.5972 48.0699 60.2985 47.9082 59.9999C47.4727 59.2037 46.353 54.8864 45.93 54.7869L44.7107 54.9859C44.7854 56.3172 46.888 63.5458 46.4774 64.1804C46.0419 64.8647 45.4323 64.1679 45.2208 63.5956C44.3623 61.3188 44.2379 58.0466 43.4789 55.6578L42.0108 55.4463C41.762 55.6952 42.6952 60.2364 42.4214 61.1446C42.1602 62.0155 41.2892 61.8413 41.1275 60.958C40.9782 60.199 40.8538 55.8569 40.6672 55.6703L39.3483 55.9315L38.7387 65.1384L37.7434 65.1259L37.9673 55.8942H36.3872L35.5163 61.6174C34.8569 62.0031 34.3716 61.7169 34.3468 60.958C34.3219 60.1493 35.3421 55.9564 35.0435 55.6578L33.7123 55.6827C33.4012 55.944 32.045 62.4012 31.5474 63.5458C31.2737 64.1928 30.6143 64.9144 30.1912 63.9813C29.818 63.1726 32.804 55.6827 32.3437 55.2099L31.0124 55.2348C30.3405 56.7029 29.7682 59.1788 28.9346 60.4727C28.3996 61.2814 27.5785 61.3312 27.6158 60.311C27.6531 59.3779 30.0419 55.0109 29.8677 54.7745L28.5116 54.65L24.2068 62.5132C23.6594 63.2721 22.6143 62.874 22.9253 61.916C23.3856 60.9331 27.4914 54.2395 27.1555 53.8662L26.0606 53.6547C24.8662 55.185 23.7216 57.5738 22.4152 58.9175C21.5816 59.776 20.7231 59.5023 21.1959 58.3701C21.5319 57.5489 25.0777 53.4059 24.6796 52.958L23.5598 52.8336L16.6547 60.5723C16.3685 60.5972 15.9829 60.2612 15.9331 60.0124C15.8087 59.3779 20.9968 53.9782 21.7558 53.0575L22.2037 52.0497C21.8056 52.0746 21.171 51.5645 20.8475 51.7138C19.7775 52.1866 17.65 55.4836 16.4681 56.3297C15.3856 57.1011 14.7884 56.4292 15.4478 55.297C16.1072 54.1524 18.6703 52.4976 19.5163 51.2534C19.678 50.8802 18.0979 50.4448 17.874 50.4945C17.227 50.6563 12.6858 55.7449 11.6283 56.4292C10.6578 56.7651 10.1601 56.2924 10.832 55.409C12.2379 53.5303 14.7884 51.9129 16.3561 50.1213C16.5303 49.7232 15.1492 49.4743 14.8258 49.3996C14.1539 49.2379 11.7651 49.101 11.6158 49.0015C11.2301 48.7402 11.2923 47.944 11.7776 47.7822C14.2908 46.9735 22.8382 51.042 25.6998 52.0249C36.1508 55.6205 45.5567 55.521 55.0248 49.3748C58.8693 46.874 62.9129 42.3452 66.8693 40.5039C67.7278 40.143 69.283 39.9564 68.549 41.2255Z" fill="#333399"/>
<path d="M38.5742 4V4.78383" stroke="#333399" stroke-width="0.314" stroke-miterlimit="10"/>
<path d="M38.5742 6.33899V74.4323" stroke="#333399" stroke-width="0.314" stroke-miterlimit="10" stroke-dasharray="1.26 1.26"/>
<path d="M38.5742 75.2162V76" stroke="#333399" stroke-width="0.314" stroke-miterlimit="10"/>
<path d="M33.3624 28.1616C23.1851 29.3934 13.3686 31.2098 4 33.3374L4.18662 38.0901C14.8491 35.3529 26.6812 33.1134 38.5754 31.6329V27.552C36.7589 27.7511 35.0047 27.9626 33.3624 28.1616Z" fill="#333399"/>
<g opacity="0.2">
<mask id="mask0_2822_21417" style="mask-type:luminance" maskUnits="userSpaceOnUse" x="38" y="13" width="38" height="17">
<path d="M75.5634 13.2815H38.5742V29.9782H75.5634V13.2815Z" fill="white"/>
</mask>
<g mask="url(#mask0_2822_21417)">
<path d="M60.0361 21.9905C65.8713 23.2347 70.624 26.8925 75.5634 29.9905L73.0875 26.5069C68.397 20.8708 60.8448 15.0729 53.5042 13.667C48.9008 12.7837 43.526 13.5924 38.5742 14.7246V23.7697C38.8853 23.6826 39.1839 23.6079 39.4949 23.5209C46.6862 21.6048 52.5711 20.398 60.0361 21.9905Z" fill="#333399"/>
</g>
</g>
</svg>
