<svg width="83" height="80" viewBox="0 0 83 80" fill="none" xmlns="http://www.w3.org/2000/svg">
<path d="M50.3555 52.215C50.3555 48.91 53.0405 46.225 56.3455 46.225" stroke="#333399" stroke-width="3" stroke-miterlimit="10" stroke-linecap="round" stroke-linejoin="round"/>
<path d="M62.3298 52.215C62.3298 55.52 59.6448 58.205 56.3398 58.205" stroke="#333399" stroke-width="3" stroke-miterlimit="10" stroke-linecap="round" stroke-linejoin="round"/>
<path d="M59.0753 52.215C59.0753 53.725 57.8503 54.9449 56.3453 54.9449C54.8403 54.9449 53.6152 53.72 53.6152 52.215C53.6152 50.705 54.8403 49.485 56.3453 49.485C57.8503 49.485 59.0753 50.705 59.0753 52.215Z" stroke="#333399" stroke-width="3" stroke-miterlimit="10" stroke-linecap="round" stroke-linejoin="round"/>
<path d="M68.5997 56.68C68.8747 55.86 69.0697 55.02 69.1747 54.175C69.3697 52.65 69.2947 51.105 68.9497 49.605C68.7247 48.61 68.3747 47.635 67.9097 46.71C67.1897 45.265 66.1897 43.93 64.9047 42.8C63.5797 41.63 62.0897 40.78 60.5097 40.255C58.2597 39.49 55.8397 39.365 53.5397 39.87C50.9497 40.44 48.5197 41.805 46.6347 43.94C45.0347 45.75 44.0347 47.895 43.6247 50.115C43.5397 50.555 43.4797 51.005 43.4447 51.45C43.3697 52.4 43.3997 53.35 43.5297 54.29C43.9397 57.255 45.3647 60.095 47.7747 62.22C50.5847 64.695 54.1747 65.73 57.6297 65.38C59.2597 65.22 60.8597 64.755 62.3347 63.985C63.7047 63.27 64.9697 62.3 66.0547 61.07C66.3897 60.69 66.7047 60.29 66.9847 59.885" stroke="#333399" stroke-width="3" stroke-miterlimit="10" stroke-linecap="round" stroke-linejoin="round"/>
<path d="M70.4381 61.94C70.6981 61.64 71.1531 61.615 71.4531 61.875L74.6031 64.6651L77.0381 66.82L80.6231 70C81.6381 70.9 81.5631 72.765 80.3731 74.24C80.2931 74.345 80.2031 74.4451 80.1131 74.5451L80.0781 74.59C78.7631 75.99 76.9031 76.3251 75.8681 75.4101L72.3081 72.25L69.8781 70.09L66.7281 67.3001L66.7031 67.275C66.4081 67.015 66.3781 66.56 66.6381 66.265L66.9531 65.9051L70.0381 62.395L70.4381 61.94Z" stroke="#333399" stroke-width="3" stroke-miterlimit="10" stroke-linecap="round" stroke-linejoin="round"/>
<path d="M67.0583 65.655L65.4883 64.28" stroke="#333399" stroke-width="3" stroke-miterlimit="10" stroke-linecap="round" stroke-linejoin="round"/>
<path d="M69.932 62.53L69.927 62.525L66.957 59.92" stroke="#333399" stroke-width="3" stroke-miterlimit="10" stroke-linecap="round" stroke-linejoin="round"/>
<path d="M40.8187 55.78C39.5137 56.38 37.3887 57.14 34.7037 57.15C31.9587 57.16 29.7838 56.385 28.4688 55.785C28.8288 55.305 29.1888 54.83 29.5438 54.35C29.9988 53.745 30.5838 53.325 31.2288 53.125C31.3788 53.08 31.5788 53.03 31.9088 53C33.2638 52.89 33.5738 53.425 34.6688 53.44C35.7838 53.455 36.0687 52.915 37.4287 53.05C37.7587 53.08 38.0137 53.145 38.2737 53.245C38.8187 53.46 39.3187 53.84 39.7137 54.355C40.0837 54.83 40.4537 55.305 40.8187 55.78Z" stroke="#333399" stroke-width="3" stroke-miterlimit="10" stroke-linecap="round" stroke-linejoin="round"/>
<path d="M29.9648 59.5599L31.5048 60.7549C32.0148 61.0149 32.5749 61.18 33.1599 61.225C33.2799 61.235 33.4048 61.2399 33.5248 61.2399H35.8499C36.0799 61.2399 36.3098 61.2199 36.5298 61.1849C37.0898 61.0999 37.6199 60.9099 38.0999 60.6249L39.4249 59.5599" stroke="#333399" stroke-width="3" stroke-miterlimit="10" stroke-linecap="round" stroke-linejoin="round"/>
<path d="M38.195 45.115C38.1 45.52 37.8 45.605 36.62 46.425C35.465 47.24 33.35 47.24 32.2 46.425C31.02 45.605 30.72 45.52 30.625 45.115" stroke="#333399" stroke-width="3" stroke-miterlimit="10" stroke-linecap="round" stroke-linejoin="round"/>
<path d="M14.3301 32.78C14.5401 32.62 15.1751 32.175 16.1001 32.155C17.1251 32.135 17.8251 32.645 18.0201 32.8C18.6601 33.35 19.6901 34.055 21.0951 34.375C22.1651 34.615 23.0451 34.545 23.5151 34.505C24.0701 34.455 24.4851 34.365 26.7001 33.74C27.4501 33.53 28.0851 33.35 28.5451 33.215" stroke="#333399" stroke-width="3" stroke-miterlimit="10" stroke-linecap="round" stroke-linejoin="round"/>
<path d="M18.1992 35.7199C18.6642 34.5249 20.0892 34.2499 20.4642 34.1899" stroke="#333399" stroke-width="3" stroke-miterlimit="10" stroke-linecap="round" stroke-linejoin="round"/>
<path d="M54.3243 32.78C54.1143 32.62 53.4793 32.175 52.5543 32.155C51.5293 32.135 50.8293 32.645 50.6343 32.8C49.9943 33.35 48.9643 34.055 47.5593 34.375C46.4893 34.615 45.6093 34.545 45.1393 34.505C44.5843 34.455 44.1693 34.365 41.9543 33.74C41.2043 33.53 40.5694 33.35 40.1094 33.215" stroke="#333399" stroke-width="3" stroke-miterlimit="10" stroke-linecap="round" stroke-linejoin="round"/>
<path d="M48.1895 34.1899C48.5645 34.2499 49.9845 34.5249 50.4545 35.7199" stroke="#333399" stroke-width="3" stroke-miterlimit="10" stroke-linecap="round" stroke-linejoin="round"/>
<path d="M7.99023 33.005C8.17023 38.69 9.13028 44.29 10.4103 49.105C12.6503 57.525 22.7853 65.795 29.1553 70.29C32.3953 72.56 36.4553 72.56 39.7003 70.29C41.6603 68.91 43.9802 67.165 46.3102 65.175" stroke="#333399" stroke-width="3" stroke-miterlimit="10" stroke-linecap="round" stroke-linejoin="round"/>
<path d="M60.9148 32.6799C60.8898 33.6999 60.8348 34.7199 60.7598 35.7349" stroke="#333399" stroke-width="3" stroke-miterlimit="10" stroke-linecap="round" stroke-linejoin="round"/>
<path d="M7.98984 32.485C7.07984 34.575 5.0599 35.93 3.6749 37.74C1.0699 41.14 1.01985 46.265 3.55985 49.715C4.29985 50.715 5.22988 51.59 5.77988 52.705C6.55988 54.285 6.43989 56.27 5.48489 57.745" stroke="#333399" stroke-width="3" stroke-miterlimit="10" stroke-linecap="round" stroke-linejoin="round"/>
<path d="M28.4703 25.8649C28.4703 25.8649 27.0653 23.9899 23.7853 23.3649C20.5053 22.7399 16.4453 23.3649 16.4453 23.3649" stroke="#333399" stroke-width="3" stroke-miterlimit="10" stroke-linecap="round" stroke-linejoin="round"/>
<path d="M38.4648 25.83C38.4648 25.83 39.8698 23.955 43.1498 23.33C46.4298 22.705 50.4898 23.33 50.4898 23.33" stroke="#333399" stroke-width="3" stroke-miterlimit="10" stroke-linecap="round" stroke-linejoin="round"/>
<path d="M30.5496 7.27502C27.0096 8.60002 24.2646 10.165 22.4046 11.685C12.4696 19.775 10.3946 26.82 8.12958 33.075C8.12958 33.085 8.11961 33.085 8.09961 33.065" stroke="#333399" stroke-width="3" stroke-miterlimit="10" stroke-linecap="round" stroke-linejoin="round"/>
<path d="M33.3145 4C37.0095 6.015 40.7395 7.99498 44.2195 10.325C52.4695 15.85 57.5145 23.47 60.9145 32.68" stroke="#333399" stroke-width="3" stroke-miterlimit="10" stroke-linecap="round" stroke-linejoin="round"/>
</svg>
