<svg width="81" height="80" viewBox="0 0 81 80" fill="none" xmlns="http://www.w3.org/2000/svg">
<path d="M46.7819 61.8669C45.6719 62.3769 43.857 63.0269 41.567 63.0319C39.227 63.0419 37.372 62.3819 36.252 61.8669C36.557 61.4619 36.8619 61.0519 37.1719 60.6469C37.5569 60.1319 38.0619 59.7719 38.6119 59.6019C38.7419 59.5619 38.912 59.5219 39.192 59.4969C40.347 59.4069 40.6119 59.8619 41.5469 59.8719C42.4969 59.8869 42.742 59.4269 43.902 59.5369C44.182 59.5669 44.4019 59.6169 44.6219 59.7019C45.0869 59.8869 45.5119 60.2069 45.8519 60.6469C46.1519 61.0569 46.4669 61.4619 46.7819 61.8669Z" stroke="#333399" stroke-width="3" stroke-miterlimit="10" stroke-linecap="round" stroke-linejoin="round"/>
<path d="M37.5215 65.0919L38.8365 66.1119C39.2715 66.3369 39.7515 66.4719 40.2515 66.5119C40.3515 66.5219 40.4565 66.5269 40.5615 66.5269H42.5414C42.7364 66.5269 42.9315 66.5119 43.1215 66.4819C43.5965 66.4069 44.0515 66.2469 44.4615 66.0019L45.5915 65.0969" stroke="#333399" stroke-width="3" stroke-miterlimit="10" stroke-linecap="round" stroke-linejoin="round"/>
<path d="M44.542 52.7719C44.462 53.1169 44.202 53.1918 43.197 53.8868C42.212 54.5818 40.407 54.5818 39.427 53.8868C38.422 53.1868 38.167 53.1119 38.082 52.7719" stroke="#333399" stroke-width="3" stroke-miterlimit="10" stroke-linecap="round" stroke-linejoin="round"/>
<path d="M24.1875 42.2518C24.3625 42.1168 24.9075 41.7368 25.6975 41.7168C26.5725 41.6968 27.1675 42.1368 27.3375 42.2668C27.8825 42.7318 28.7625 43.3369 29.9625 43.6069C30.8725 43.8119 31.6225 43.7518 32.0275 43.7168C32.4975 43.6768 32.8575 43.5968 34.7475 43.0668C35.3875 42.8868 35.9275 42.7318 36.3175 42.6218" stroke="#333399" stroke-width="3" stroke-miterlimit="10" stroke-linecap="round" stroke-linejoin="round"/>
<path d="M27.4922 44.7619C27.8922 43.7419 29.1022 43.5119 29.4222 43.4569" stroke="#333399" stroke-width="3" stroke-miterlimit="10" stroke-linecap="round" stroke-linejoin="round"/>
<path d="M58.298 42.2518C58.118 42.1168 57.578 41.7368 56.788 41.7168C55.913 41.6968 55.318 42.1368 55.148 42.2668C54.603 42.7318 53.723 43.3369 52.523 43.6069C51.613 43.8119 50.863 43.7518 50.458 43.7168C49.988 43.6768 49.628 43.5968 47.738 43.0668C47.098 42.8868 46.558 42.7318 46.168 42.6218" stroke="#333399" stroke-width="3" stroke-miterlimit="10" stroke-linecap="round" stroke-linejoin="round"/>
<path d="M53.0684 43.4569C53.3884 43.5069 54.6034 43.7419 54.9984 44.7619" stroke="#333399" stroke-width="3" stroke-miterlimit="10" stroke-linecap="round" stroke-linejoin="round"/>
<path d="M57.8825 63.3768C54.3675 67.8018 49.4025 71.7268 45.8275 74.2468C43.0575 76.1818 39.5976 76.1818 36.8326 74.2468C31.3976 70.4118 22.7575 63.3618 20.8475 56.1818C19.5625 51.3418 18.6575 45.5768 18.7575 39.8668" stroke="#333399" stroke-width="3" stroke-miterlimit="10" stroke-linecap="round" stroke-linejoin="round"/>
<path d="M63.6403 40.3369C63.7303 43.2919 63.5653 46.3119 63.1953 49.2019" stroke="#333399" stroke-width="3" stroke-miterlimit="10" stroke-linecap="round" stroke-linejoin="round"/>
<path d="M64.5416 25.6969C64.4166 23.5669 63.9717 20.3069 62.3317 16.8919C58.1667 8.2269 48.9917 4.10688 41.2067 4.00188C38.8817 3.97188 29.6216 4.20691 23.3766 11.7819C19.1516 16.9119 18.2366 23.0569 17.8066 25.9719C17.1666 30.2819 17.4566 33.9219 17.8066 36.3269C18.3516 34.1319 19.1716 31.7569 20.4066 29.3519C20.4666 29.2369 20.5217 29.1269 20.5817 29.0119C29.5167 12.1519 52.0217 11.7369 61.3867 28.3169C61.5767 28.6519 61.7616 28.9969 61.9416 29.3469C63.1766 31.7469 63.9966 34.1219 64.5416 36.3219V25.6969Z" stroke="#333399" stroke-width="3" stroke-miterlimit="10" stroke-linecap="round" stroke-linejoin="round"/>
<path d="M17.8117 36.3269C17.0367 38.1069 15.3167 39.2669 14.1317 40.8069C11.9117 43.7069 11.8667 48.0769 14.0367 51.0169C14.6667 51.8719 15.4617 52.6169 15.9317 53.5669C16.5967 54.9119 16.4967 56.6069 15.6817 57.8669" stroke="#333399" stroke-width="3" stroke-miterlimit="10" stroke-linecap="round" stroke-linejoin="round"/>
<path d="M36.2472 36.3569C36.2472 36.3569 35.0472 34.7569 32.2522 34.2269C29.4572 33.6919 25.9922 34.2269 25.9922 34.2269" stroke="#333399" stroke-width="3" stroke-miterlimit="10" stroke-linecap="round" stroke-linejoin="round"/>
<path d="M44.7715 36.3269C44.7715 36.3269 45.9715 34.7269 48.7665 34.1969C51.5615 33.6619 55.0265 34.1969 55.0265 34.1969" stroke="#333399" stroke-width="3" stroke-miterlimit="10" stroke-linecap="round" stroke-linejoin="round"/>
<path d="M69.6281 55.6719C69.6281 55.6719 69.3381 55.8019 68.8331 55.9669C68.3231 56.1419 67.5981 56.3569 66.7231 56.5519C65.9731 56.7219 65.1131 56.8719 64.1881 56.9869C62.7981 57.1569 61.7181 58.2719 61.5881 59.6619C61.4981 60.5919 61.3781 61.4569 61.2281 62.2169C61.0581 63.0919 60.8681 63.8269 60.7081 64.3369C60.5481 64.8519 60.4281 65.1469 60.4281 65.1469C60.4281 65.1469 60.2981 64.8569 60.1281 64.3469C59.9531 63.8419 59.7381 63.1119 59.5481 62.2469C59.3731 61.4819 59.2231 60.6019 59.1081 59.6619C58.9381 58.2719 57.8281 57.1869 56.4381 57.0619C55.4881 56.9769 54.4881 56.8669 53.8881 56.7469C53.0081 56.5869 52.2781 56.3869 51.7631 56.2269C51.2531 56.0769 50.9531 55.9569 50.9531 55.9569C50.9531 55.9569 51.2481 55.8219 51.7531 55.6569C52.2681 55.4819 52.9881 55.2619 53.8631 55.0719C54.6181 54.8969 55.4831 54.7469 56.4081 54.6319C57.7931 54.4569 58.8731 53.3469 59.0031 51.9569C59.0931 51.0319 59.2131 50.1669 59.3631 49.4069C59.5231 48.5319 59.7181 47.7969 59.8781 47.2869C60.0381 46.7719 60.1581 46.4769 60.1581 46.4769C60.1581 46.4769 60.2881 46.7669 60.4581 47.2769C60.6331 47.7819 60.8481 48.5119 61.0331 49.3769C61.2081 50.1469 61.3631 51.0269 61.4781 51.9719C61.6481 53.3569 62.7631 54.4419 64.1531 54.5669C65.1031 54.6519 66.1031 54.7619 66.6981 54.8769C67.5781 55.0469 68.3081 55.2369 68.8231 55.3969C69.3381 55.5469 69.6281 55.6719 69.6281 55.6719Z" stroke="#333399" stroke-width="3" stroke-miterlimit="10" stroke-linecap="round" stroke-linejoin="round"/>
</svg>
