<svg width="49" height="48" viewBox="0 0 49 48" fill="none" xmlns="http://www.w3.org/2000/svg">
<path fill-rule="evenodd" clip-rule="evenodd" d="M12.125 18H4.625V45H12.125V18ZM13.625 15C14.45 15 15.125 15.675 15.125 16.5V46.5C15.125 47.325 14.45 48 13.625 48H3.125C2.3 48 1.625 47.325 1.625 46.5V16.5C1.625 15.675 2.3 15 3.125 15H13.625ZM28.625 26.925H21.125V45H28.625V26.925ZM30.125 23.925C30.95 23.925 31.625 24.6 31.625 25.425V46.5C31.625 47.325 30.95 48 30.125 48H19.625C18.8 48 18.125 47.325 18.125 46.5V25.425C18.125 24.6 18.8 23.925 19.625 23.925H30.125ZM45.125 3H37.625V45H45.125V3ZM46.625 0C47.45 0 48.125 0.675 48.125 1.5V46.5C48.125 47.325 47.45 48 46.625 48H36.125C35.3 48 34.625 47.325 34.625 46.5V1.5C34.625 0.675 35.3 0 36.125 0H46.625Z" fill="#333399"/>
</svg>
