<svg width="49" height="48" viewBox="0 0 49 48" fill="none" xmlns="http://www.w3.org/2000/svg">
<path d="M4.175 37.2C3.8 37.2 3.425 37.05 3.2 36.825C2.525 36.3 2.45 35.325 2.975 34.725L16.1 19.575L30.05 26.55L43.4 15.075C44 14.55 44.975 14.625 45.5 15.3C46.025 15.9 45.95 16.875 45.35 17.4L30.5 30.075L16.925 23.25L5.3 36.675C5 36.975 4.55 37.2 4.175 37.2ZM33.5 27.75C33.5 29.85 31.775 31.5 29.75 31.5C27.65 31.5 26 29.85 26 27.75C26 25.725 27.65 24 29.75 24C31.775 24 33.5 25.725 33.5 27.75ZM48.5 15.75C48.5 17.85 46.775 19.5 44.75 19.5C42.65 19.5 41 17.85 41 15.75C41 13.725 42.65 12 44.75 12C46.775 12 48.5 13.725 48.5 15.75ZM20 21.75C20 23.85 18.275 25.5 16.25 25.5C14.15 25.5 12.5 23.85 12.5 21.75C12.5 19.725 14.15 18 16.25 18C18.275 18 20 19.725 20 21.75ZM8 35.25C8 37.35 6.275 39 4.25 39C2.15 39 0.5 37.35 0.5 35.25C0.5 33.225 2.15 31.5 4.25 31.5C6.275 31.5 8 33.225 8 35.25Z" fill="#333399"/>
</svg>
