<svg width="49" height="48" viewBox="0 0 49 48" fill="none" xmlns="http://www.w3.org/2000/svg">
<path fill-rule="evenodd" clip-rule="evenodd" d="M13.8758 5.17505C15.3758 5.17505 18.0008 5.92503 22.3508 10.125L24.4508 12.225L26.5508 10.125C29.5508 7.05003 32.7758 5.17505 34.8758 5.17505C37.8008 5.17505 40.0508 6.15004 42.2258 8.40004C44.3258 10.425 45.4508 13.2 45.4508 16.2C45.5258 19.125 44.3258 21.9 42.2258 24C42.0758 24.15 33.0008 33.9 25.4258 42.15C25.0508 42.45 24.6758 42.525 24.4508 42.525C24.2258 42.525 23.7758 42.45 23.4758 42.15C21.6008 40.05 8.17577 25.2 6.60077 23.625C4.57577 21.525 3.37578 18.75 3.37578 15.825C3.37578 12.9 4.57577 10.125 6.60077 8.02504C8.62577 6.00004 11.0258 5.17505 13.8758 5.17505ZM13.8758 2.17505C10.2758 2.17505 7.12578 3.30005 4.50078 5.92505C-0.974219 11.4 -0.974219 20.25 4.50078 25.725C6.07578 27.3 21.3008 44.25 21.3008 44.25C22.1258 45.075 23.3258 45.525 24.4508 45.525C25.5758 45.525 26.7008 45.075 27.5258 44.25C27.5258 44.25 44.1758 26.25 44.4008 26.1C49.8758 20.625 49.8758 11.7 44.4008 6.22502C41.6258 3.52502 38.6258 2.17505 34.8758 2.17505C31.3508 2.17505 27.3758 5.02504 24.4508 8.02504C21.3758 5.02504 17.5508 2.17505 13.8758 2.17505Z" fill="#333399"/>
</svg>
