<svg width="49" height="49" viewBox="0 0 49 49" fill="none" xmlns="http://www.w3.org/2000/svg">
<path fill-rule="evenodd" clip-rule="evenodd" d="M29.1501 3.1499L25.7751 20.925L38 20.9999L21.35 45.0749L24.725 25.5749L12.4251 25.4999L29.1501 3.1499ZM29.1501 0.149902C29.0501 0.149902 28.9751 0.149902 28.9251 0.149902C28.4001 0.224902 28.025 0.374957 27.575 0.674957C27.375 0.824957 27.175 1.0249 26.975 1.2749C26.925 1.3249 26.875 1.37496 26.825 1.42496L10.0251 23.6999C9.35006 24.5999 9.27504 25.7999 9.72504 26.7749C10.25 27.8249 11.3001 28.425 12.4251 28.425L21.0501 28.4999L18.35 44.55C18.125 45.9 18.8001 47.325 20.1501 47.85C20.5001 48 20.9 48.0749 21.35 48.0749C22.25 48.0749 23 47.6999 23.6 46.8749L40.475 22.725C41.075 21.825 41.225 20.6249 40.7 19.6499C40.175 18.6749 39.125 17.9999 38 17.9999H29.375L32.075 3.8999C32.125 3.6499 32.1501 3.3999 32.1501 3.1499C32.1501 1.5749 30.875 0.224902 29.225 0.149902C29.225 0.149902 29.2001 0.149902 29.1501 0.149902Z" fill="#333399"/>
</svg>
