<svg width="49" height="48" viewBox="0 0 49 48" fill="none" xmlns="http://www.w3.org/2000/svg">
<path fill-rule="evenodd" clip-rule="evenodd" d="M29.1248 48C15.4748 48 15.3998 47.4 13.6748 46.125C12.8498 45.45 11.1248 45 4.97478 44.625C4.52478 44.55 4.0748 44.4 3.7748 44.025C3.6248 43.875 0.549805 39.375 0.549805 32.175C0.549805 25.125 2.79979 21.825 2.87479 21.675C3.17479 21.3 3.6248 21 4.1498 21C9.2498 21 16.2248 14.55 20.9498 3.22504C21.7748 1.27504 21.9248 0 24.9248 0C26.6498 0 28.5998 1.19996 29.4998 2.77496C31.4498 5.99996 30.4748 12.9 29.5748 16.575C32.6498 16.5 38.2748 16.5 40.8998 16.5C44.6498 16.5 47.0498 18.675 47.1248 21.9C47.1998 22.95 47.0498 24.375 46.7498 25.05C47.5748 25.875 48.6248 27.075 48.6248 28.65C48.6998 30.75 47.3498 32.25 46.5248 33.15C46.6748 33.75 47.1248 34.575 47.0498 35.475C46.9748 37.8 45.1748 39.3 44.0498 40.05C44.1248 40.725 44.1998 41.925 44.0498 42.825C43.2248 46.5 37.8248 48 29.1248 48ZM5.72478 41.55C11.1248 42 13.9748 42.6 15.5498 43.725C16.6748 44.625 16.5248 45 29.1248 45C33.0248 45 40.5248 44.85 41.1248 42.15C41.3498 41.1 40.2248 40.05 40.2248 40.05C39.9248 39.3 40.2248 38.4 40.9748 38.1C40.9748 38.1 43.9748 37.05 44.0498 35.325C44.1248 34.275 43.3748 33.675 43.3748 33.6C42.9248 32.925 43.0748 32.025 43.7498 31.575C43.7498 31.575 45.6998 30.375 45.6248 28.725C45.6248 27.45 43.8998 26.625 43.8998 26.55C43.5248 26.325 43.2248 25.95 43.1498 25.575C43.0748 25.125 43.1498 24.675 43.4498 24.375C43.4498 24.375 44.1998 23.1 44.1248 21.975C44.1248 19.575 41.4998 19.5 40.8998 19.5C37.1498 19.5 27.3998 19.5 27.3998 19.5C26.8748 19.5 26.4248 19.275 26.1248 18.825C25.8998 18.45 25.8248 17.925 26.0498 17.4C27.4748 13.2 28.2998 6.60004 26.9498 4.35004C26.5748 3.67504 26.4248 3 24.9248 3C24.7748 3 24.2498 3.15002 23.7248 4.42502C18.6998 16.35 11.1998 23.325 5.12479 23.925C4.59979 25.125 3.5498 27.675 3.5498 32.175C3.5498 36.825 5.04978 40.425 5.72478 41.55Z" fill="#333399"/>
</svg>
