<svg width="48" height="48" viewBox="0 0 48 48" fill="none" xmlns="http://www.w3.org/2000/svg">
<path fill-rule="evenodd" clip-rule="evenodd" d="M24 3C12.45 3 3 12.45 3 24C3 35.55 12.45 45.075 24 45.075C35.55 45.075 45 35.55 45 24C45 12.45 35.55 3 24 3ZM48 24C48 37.275 37.275 48 24 48C10.725 48 0 37.275 0 24C0 10.725 10.725 0 24 0C37.275 0 48 10.725 48 24ZM17.475 33.6C17.1 33.6 16.725 33.45 16.425 33.15L7.575 24L16.425 14.925C17.025 14.325 17.925 14.325 18.525 14.925C19.125 15.525 19.125 16.5 18.525 17.025L13.125 22.5H30C30.825 22.5 31.5 23.175 31.5 24C31.5 24.825 30.825 25.5 30 25.5H13.05L18.525 30.975C19.125 31.575 19.125 32.55 18.525 33.15C18.225 33.45 17.85 33.6 17.475 33.6Z" fill="white"/>
<path fill-rule="evenodd" clip-rule="evenodd" d="M24 3C12.45 3 3 12.45 3 24C3 35.55 12.45 45.075 24 45.075C35.55 45.075 45 35.55 45 24C45 12.45 35.55 3 24 3ZM24 0C37.275 0 48 10.725 48 24C48 37.275 37.275 48 24 48C10.725 48 0 37.275 0 24C0 10.725 10.725 0 24 0ZM29.475 33.15C28.875 32.55 28.875 31.575 29.475 30.975L34.95 25.5H18C17.175 25.5 16.5 24.825 16.5 24C16.5 23.175 17.175 22.5 18 22.5H34.875L29.475 17.025C28.875 16.5 28.875 15.525 29.475 14.925C30.075 14.325 30.975 14.325 31.575 14.925L40.425 24L31.575 33.15C31.275 33.45 30.9 33.6 30.525 33.6C30.15 33.6 29.775 33.45 29.475 33.15Z" fill="white"/>
</svg>
