<svg width="49" height="48" viewBox="0 0 49 48" fill="none" xmlns="http://www.w3.org/2000/svg">
<path fill-rule="evenodd" clip-rule="evenodd" d="M14.1529 48C14.1529 48 14.1279 48 14.0779 48C13.4779 47.925 12.9529 47.55 12.8029 47.025L10.1779 39.825L2.67791 41.55C2.07791 41.7 1.47788 41.475 1.10288 41.025C0.802883 40.5 0.727901 39.9 1.0279 39.375L9.80291 23.325C8.90291 21.225 8.37789 18.9 8.37789 16.5C8.37789 7.425 15.7279 0 24.8779 0C33.9529 0 41.3779 7.425 41.3779 16.5C41.3779 18.9 40.8529 21.075 39.9529 23.175L48.7279 39.375C49.0279 39.9 48.9529 40.5 48.5779 41.025C48.2779 41.475 47.6779 41.7 47.0779 41.55L39.5779 39.825L36.9529 47.025C36.8029 47.55 36.2779 47.925 35.6779 48C35.6279 48 35.6029 48 35.6029 48C35.0029 48 34.5529 47.7 34.2529 47.25L26.3779 32.925C25.8779 32.975 25.3779 33 24.8779 33C24.2779 33 23.7029 32.975 23.1529 32.925L15.5029 47.175C15.2779 47.7 14.7529 48 14.1529 48ZM5.22788 37.875L10.8529 36.6C11.6029 36.45 12.3529 36.825 12.5779 37.575L14.4529 42.825L20.0779 32.325C16.6279 31.275 13.7029 29.1 11.6029 26.325L5.22788 37.875ZM35.2279 42.825L37.1779 37.5C37.4029 36.825 38.1529 36.375 38.9029 36.6L44.5279 37.875L38.1529 26.175C36.0529 29.1 33.0529 31.275 29.4529 32.325L35.2279 42.825ZM24.8779 3C17.3779 3 11.3779 9.00002 11.3779 16.425C11.3779 23.85 17.3779 29.925 24.8779 29.925C32.3029 29.925 38.3029 23.85 38.3029 16.425C38.3029 9.00002 32.3029 3 24.8779 3Z" fill="#333399"/>
</svg>
