<svg width="49" height="48" viewBox="0 0 49 48" fill="none" xmlns="http://www.w3.org/2000/svg">
<path d="M21.9465 42.307L18.2613 36.489C17.9 35.9862 17.9 35.268 18.4058 35.0525L18.8393 34.7652C19.3452 34.5497 19.9955 34.6933 20.2845 35.1961L24.5478 41.8042C24.5478 41.8521 24.5719 41.8761 24.6201 41.8761L24.8369 42.307C24.9814 42.5225 25.0536 42.8098 24.9813 43.0971C24.9091 43.3126 24.7646 43.5999 24.4756 43.7436L24.042 43.959C23.9938 43.959 23.9697 43.959 23.9697 43.959L17.0329 47.4786C16.5271 47.7659 16.0213 47.6222 15.7322 47.1194L15.5877 46.7603C15.2987 46.2575 15.4432 45.6111 15.949 45.3238L21.9465 42.307ZM22.9581 43.959C22.9099 43.959 22.8618 43.959 22.8136 43.959C21.7056 43.8633 20.5977 43.6717 19.4897 43.3844C13.9258 41.9479 9.22892 38.141 6.55535 33.0413C4.02629 28.2289 3.59276 22.7701 5.18246 17.5985C6.84441 12.427 10.6019 8.18917 15.4432 5.67522C16.1658 5.31608 17.0329 5.60341 17.3942 6.32168C17.7555 6.96812 17.4665 7.90186 16.7439 8.261C12.6251 10.344 9.37344 14.0072 8.00052 18.4604C6.55535 22.9137 6.9889 27.5825 9.08441 31.7484C11.3967 36.1299 15.4432 39.3621 20.2845 40.5832C21.1998 40.8226 22.1392 40.9902 23.1026 41.086C23.8975 41.1578 24.4755 41.876 24.4033 42.6661C24.331 43.3844 23.6807 43.959 22.9581 43.959ZM34.5195 42.6661C34.0137 42.6661 33.5079 42.4507 33.2189 41.9479C32.8576 41.2296 33.1466 40.3677 33.8692 40.0086C37.988 37.8537 41.0951 34.1906 42.5403 29.8091C43.9132 25.3558 43.5519 20.6152 41.3841 16.4493C39.0719 12.0678 35.1698 8.83562 30.4008 7.61456C29.4373 7.37513 28.498 7.20753 27.5827 7.11176C26.7878 7.03993 26.2098 6.32168 26.282 5.53158C26.3543 4.74148 27.0046 4.16685 27.7995 4.23868C28.9074 4.33445 30.0154 4.526 31.1233 4.81331C36.6873 6.32168 41.3119 10.0567 43.9132 15.1564C46.4423 19.9688 46.948 25.4995 45.286 30.671C43.6241 35.8426 40.0112 40.0804 35.1699 42.5225C34.9772 42.6662 34.7604 42.714 34.5195 42.6661ZM27.5827 5.74705L31.3402 11.4932C31.6292 11.996 31.6292 12.7143 31.1233 13.0016L30.762 13.2171C30.2562 13.5044 29.6059 13.3607 29.2446 12.8579L24.9813 6.17802L24.6923 5.74705C24.5478 5.45974 24.5478 5.17243 24.6201 4.95695C24.6923 4.66964 24.8369 4.45416 25.0536 4.31051L25.5595 4.02321L32.4963 0.503685C33.0021 0.216376 33.6524 0.431862 34.0137 0.934651L34.1582 1.29379C34.4473 1.79658 34.1582 2.44302 33.5802 2.73033L27.5827 5.74705Z" fill="#333399"/>
</svg>
