<svg width="49" height="48" viewBox="0 0 49 48" fill="none" xmlns="http://www.w3.org/2000/svg">
<path fill-rule="evenodd" clip-rule="evenodd" d="M0.625 24C0.625 21.225 2.5 18.825 5.125 18.15V1.5C5.125 0.675 5.8 0 6.625 0C7.45 0 8.125 0.675 8.125 1.5V18.15C10.75 18.825 12.625 21.225 12.625 24C12.625 26.775 10.75 29.175 8.125 29.85V46.5C8.125 47.325 7.45 48 6.625 48C5.8 48 5.125 47.325 5.125 46.5V29.85C2.5 29.175 0.625 26.775 0.625 24ZM3.625 24C3.625 25.65 4.90002 26.925 6.55002 27C6.55002 27 6.575 27 6.625 27C6.675 27 6.69998 27 6.69998 27C8.34998 26.925 9.625 25.65 9.625 24C9.625 22.35 8.34998 21.075 6.69998 21C6.69998 21 6.675 21 6.625 21C6.575 21 6.55002 21 6.55002 21C4.90002 21.075 3.625 22.35 3.625 24ZM18.625 33C18.625 30.225 20.5 27.825 23.125 27.15V1.5C23.125 0.675 23.8 0 24.625 0C25.45 0 26.125 0.675 26.125 1.5V27.15C28.75 27.825 30.625 30.225 30.625 33C30.625 35.775 28.75 38.175 26.125 38.85V46.5C26.125 47.325 25.45 48 24.625 48C23.8 48 23.125 47.325 23.125 46.5V38.85C20.5 38.175 18.625 35.775 18.625 33ZM21.625 33C21.625 34.65 22.9 35.925 24.55 36C24.55 36 24.575 36 24.625 36C24.675 36 24.7 36 24.7 36C26.35 35.925 27.625 34.65 27.625 33C27.625 31.35 26.35 30.075 24.7 30C24.7 30 24.675 30 24.625 30C24.575 30 24.55 30 24.55 30C22.9 30.075 21.625 31.35 21.625 33ZM36.625 15C36.625 12.225 38.5 9.82496 41.125 9.14996V1.5C41.125 0.675 41.8 0 42.625 0C43.45 0 44.125 0.675 44.125 1.5V9.14996C46.75 9.82496 48.625 12.225 48.625 15C48.625 17.775 46.75 20.175 44.125 20.85V46.5C44.125 47.325 43.45 48 42.625 48C41.8 48 41.125 47.325 41.125 46.5V20.85C38.5 20.175 36.625 17.775 36.625 15ZM39.625 15C39.625 16.65 40.9 17.925 42.55 18C42.55 18 42.575 18 42.625 18C42.675 18 42.7 18 42.7 18C44.35 17.925 45.625 16.65 45.625 15C45.625 13.35 44.35 12.075 42.7 12C42.7 12 42.675 12 42.625 12C42.575 12 42.55 12 42.55 12C40.9 12.075 39.625 13.35 39.625 15Z" fill="#333399"/>
</svg>
