<svg width="49" height="48" viewBox="0 0 49 48" fill="none" xmlns="http://www.w3.org/2000/svg">
<path fill-rule="evenodd" clip-rule="evenodd" d="M48.5 22.65V25.65C48.5 27.3 46.925 28.275 45.5 28.65L41.6 29.625C41.3 30.475 40.95 31.325 40.55 32.175L42.65 35.625C43.4 36.9 43.775 38.7 42.65 39.9L40.475 42C39.35 43.2 37.325 42.975 36.125 42.15L32.75 39.975C31.9 40.425 31 40.8 30.05 41.1L29.15 45C28.925 46.425 27.65 48 26 48H23C21.35 48 20.375 46.425 20 45L19.1 41.175C18.05 40.825 17.05 40.4 16.1 39.9L12.65 42.15C11.45 42.975 9.50002 43.2 8.30002 42L6.19998 39.9C4.99998 38.7 5.44998 36.9 6.19998 35.625L8.375 31.95C7.975 31.2 7.65001 30.425 7.40001 29.625L3.5 28.65C2.075 28.275 0.5 27.3 0.5 25.65V22.65C0.5 21 2.075 19.725 3.5 19.425L7.32498 18.6C7.62498 17.7 7.975 16.85 8.375 16.05L6.19998 12.375C5.37498 11.1 4.99998 9.30004 6.19998 8.10004L8.30002 6C9.50002 4.8 11.45 5.02504 12.65 5.85004L16.1 8.10004C17.05 7.60004 18.025 7.17498 19.025 6.82498L20 3C20.3 1.575 21.35 0 23 0H26C27.65 0 28.925 1.575 29.15 3L30.05 6.89996C31 7.19996 31.9 7.57496 32.75 8.02496L36.125 5.85004C37.325 5.02504 39.35 4.8 40.475 6L42.65 8.10004C43.775 9.30004 43.4 11.1 42.65 12.375L40.55 15.825C41 16.725 41.375 17.65 41.675 18.6L45.5 19.425C46.925 19.725 48.5 21 48.5 22.65ZM45.5 22.725C45.5 22.65 45.2 22.425 44.9 22.35L39.35 21.15L38.825 19.5C38.575 18.75 38.25 17.975 37.85 17.175L37.1 15.75L40.1 10.8C40.25 10.5 40.325 10.275 40.325 10.125L38.375 8.17502C38.175 8.17502 37.975 8.24996 37.775 8.39996L32.9 11.475L31.4 10.65C30.65 10.3 29.875 10 29.075 9.75L27.5 9.22504L26.225 3.52496C26.15 3.29996 26 3 26 3H23.225C23.15 3.15 23 3.375 22.925 3.75L21.575 9.22504L19.925 9.67502C19.125 9.97502 18.325 10.325 17.525 10.725L15.95 11.55L10.925 8.32498C10.85 8.24998 10.625 8.17504 10.4 8.10004L8.44998 10.125C8.52498 10.275 8.6 10.5 8.75 10.8L11.825 15.9L11.075 17.325C10.675 18.125 10.375 18.85 10.175 19.5L9.65001 21.15L4.02501 22.425C3.80001 22.425 3.575 22.65 3.5 22.65V25.425C3.65 25.5 3.875 25.65 4.25 25.725L9.72499 27.075L10.25 28.65C10.45 29.3 10.725 29.975 11.075 30.675L11.825 32.1L8.75 37.2C8.6 37.5 8.52498 37.725 8.44998 37.875L10.4 39.825C10.6 39.825 10.825 39.75 11.075 39.6L15.95 36.45L17.525 37.275C18.325 37.675 19.15 38.025 20 38.325L21.575 38.775L22.925 44.325C23 44.625 23.15 44.85 23.225 45H25.925C26.075 44.925 26.225 44.7 26.225 44.4L27.5 38.775L29.15 38.25C29.9 38 30.65 37.7 31.4 37.35L32.9 36.525L37.85 39.675C37.925 39.75 38.15 39.825 38.375 39.9L40.325 37.875C40.325 37.725 40.25 37.5 40.025 37.2L37.1 32.25L37.85 30.825C38.2 30.075 38.5 29.35 38.75 28.65L39.275 27.075L44.825 25.725C45.125 25.65 45.35 25.5 45.5 25.425V22.725ZM24.5 33C19.55 33 15.425 28.95 15.425 23.925C15.425 18.975 19.55 14.925 24.5 14.925C29.45 14.925 33.5 18.975 33.5 23.925C33.5 28.95 29.45 33 24.5 33ZM24.5 17.925C21.2 17.925 18.5 20.625 18.5 23.925C18.5 27.3 21.2 29.925 24.5 29.925C27.8 29.925 30.5 27.3 30.5 23.925C30.5 20.625 27.8 17.925 24.5 17.925Z" fill="#333399"/>
</svg>
