<svg width="49" height="48" viewBox="0 0 49 48" fill="none" xmlns="http://www.w3.org/2000/svg">
<path fill-rule="evenodd" clip-rule="evenodd" d="M24.4859 3.0094C24.4859 3.0094 20.4232 7.22258 16.2853 8.20064C13.7273 8.87775 11.094 8.95299 9.5141 8.95299C8.53605 8.95299 8.0094 8.95299 8.0094 8.95299C8.0094 8.95299 8.0094 9.85581 8.0094 16.4765C8.0094 42.0564 24.4859 44.9906 24.4859 44.9906C24.4859 44.9906 41.1128 42.0564 41.1128 16.4765C41.1128 9.85581 41.1128 8.95299 41.1128 8.95299C41.1128 8.95299 40.5862 8.95299 39.6081 8.95299C38.1034 8.95299 35.4702 8.87775 32.9122 8.20064C28.7743 7.22258 24.4859 3.0094 24.4859 3.0094ZM24.4859 0C25.0878 0 25.6896 0.150498 26.141 0.451438C27.1943 1.12855 30.6551 4.58934 33.6645 5.26645C35.9216 5.86833 38.4044 5.94359 39.6081 5.94359C40.4357 5.94359 40.8871 5.94359 40.9623 5.94359C41.0125 5.94359 41.0627 5.94359 41.1128 5.94359C41.8652 5.94359 42.6175 6.16929 43.2194 6.69594C43.8213 7.29782 44.1222 8.05017 44.1222 8.95299V16.4765C44.1222 44.2382 25.8401 47.8495 25.0125 48C24.862 48 24.6865 48 24.4859 48C24.3354 48 24.1599 48 23.9592 48C23.2069 47.8495 5 44.2382 5 16.4765V8.95299C5 8.05017 5.37617 7.29782 5.97805 6.69594C6.50469 6.16929 7.25705 5.94359 8.0094 5.94359C8.05956 5.94359 8.13478 5.94359 8.2351 5.94359C8.2351 5.94359 8.76175 5.94359 9.5141 5.94359C10.7179 5.94359 13.2759 5.86833 15.5329 5.26645C19.069 4.43887 22.6802 0.526673 22.8307 0.451438C23.3574 0.150498 23.884 0 24.4859 0Z" fill="#333399"/>
<path fill-rule="evenodd" clip-rule="evenodd" d="M34.0609 19.9393C34.6467 20.5251 34.6467 21.4749 34.0609 22.0607L24.8109 31.3107C24.5296 31.592 24.1481 31.75 23.7502 31.75C23.3524 31.75 22.9709 31.592 22.6896 31.3107L16.4396 25.0607C15.8538 24.4749 15.8538 23.5251 16.4396 22.9393C17.0254 22.3536 17.9751 22.3536 18.5609 22.9393L23.7502 28.1287L31.9396 19.9393C32.5254 19.3536 33.4751 19.3536 34.0609 19.9393Z" fill="#333399"/>
</svg>
