<svg width="49" height="48" viewBox="0 0 49 48" fill="none" xmlns="http://www.w3.org/2000/svg">
<path d="M17.325 17.2499C17.925 16.6499 17.925 15.6749 17.325 15.1499L2.55004 0.449902C2.02504 -0.0750977 1.05 -0.0750977 0.45 0.449902C-0.15 1.0499 -0.15 2.02492 0.45 2.62492L15.225 17.2499C15.825 17.8499 16.8 17.8499 17.325 17.2499ZM15.075 14.9249H5.77503C5.17503 14.9249 4.65 15.2999 4.575 16.0499V16.7999C4.575 17.3999 5.02502 17.9249 5.62502 17.9249H16.425H17.025C17.325 17.9249 17.55 17.7749 17.775 17.6249C18 17.3999 18 17.1749 18 16.7999V16.2749V5.39993C18 4.79993 17.475 4.42494 16.875 4.42494H16.05C15.45 4.42494 15 4.94994 15 5.54994L15.075 14.9249ZM30.75 17.2499C30.15 16.7249 30.15 15.7499 30.75 15.1499L45.525 0.52493C46.125 -0.0750702 47.1 -0.0750702 47.7 0.52493C48.225 1.12493 48.225 2.02492 47.7 2.62492L32.85 17.2499C32.325 17.8499 31.35 17.8499 30.75 17.2499ZM33.075 14.9249L42.3 14.9999C42.9 14.9249 43.5 15.3749 43.575 16.0499V16.8749C43.575 17.4749 43.05 17.9999 42.45 17.9999L31.725 17.9249C31.675 17.9249 31.65 17.9249 31.65 17.9249H31.125C30.825 17.9249 30.525 17.8499 30.375 17.6249C30.15 17.4749 30.075 17.1749 30.075 16.8749L30.15 16.3499C30.15 16.2749 30.075 16.2749 30.075 16.2749L30.15 5.47491C30.15 4.87491 30.675 4.49992 31.275 4.49992H32.025C32.625 4.49992 33.15 5.02492 33.075 5.62492V14.9249ZM17.4 30.6749C18 31.2749 18 32.2499 17.4 32.8499L2.62502 47.5499C2.10002 48.0749 1.12503 48.0749 0.525028 47.5499C-0.0749725 46.9499 -0.0749725 45.9749 0.525028 45.3749L15.3 30.6749C15.9 30.1499 16.875 30.1499 17.4 30.6749ZM15.15 33.0749L5.85001 32.9999C5.25001 32.9999 4.72503 32.6249 4.65003 31.8749V31.1249C4.65003 30.5249 5.1 29.9999 5.7 29.9999L16.5 30.0749H17.1C17.4 29.9999 17.625 30.1499 17.85 30.3749C18.075 30.5249 18.075 30.8249 18.075 31.1249V31.7249V42.5999C18.075 43.1999 17.55 43.4999 16.95 43.5749H16.125C15.525 43.5749 15.075 43.0499 15.075 42.4499L15.15 33.0749ZM30.75 30.7499C30.15 31.2749 30.15 32.3249 30.75 32.8499L45.6001 47.5499C46.2001 48.1499 47.175 48.1499 47.775 47.5499C48.3 46.9499 48.3 45.9749 47.775 45.3749L32.925 30.7499C32.4 30.1499 31.35 30.1499 30.75 30.7499ZM33.075 33.0749L42.375 32.9999C42.975 33.0749 43.575 32.6249 43.65 31.8749V31.1249C43.65 30.5249 43.125 29.9999 42.525 29.9999H31.8C31.75 29.9999 31.725 29.9999 31.725 29.9999H31.125C30.825 29.9999 30.525 30.2249 30.3 30.3749C30.15 30.5999 30.075 30.8999 30.075 31.1999L30.15 31.7249H30.075L30.15 42.5999C30.15 43.1999 30.6 43.5749 31.275 43.5749H32.025C32.7 43.5749 33.15 43.0499 33.15 42.4499L33.075 33.0749Z" fill="#333399"/>
</svg>
