<svg width="48" height="48" viewBox="0 0 48 48" fill="none" xmlns="http://www.w3.org/2000/svg">
<path fill-rule="evenodd" clip-rule="evenodd" d="M24.0001 3.59999L29.4751 15L30.4501 17.025L32.6251 17.325L45.0751 19.2L36.0001 28.2L34.5001 29.775L34.8751 31.875L36.9751 44.55L25.9501 38.625L24.0001 37.575L22.0501 38.625L11.0251 44.55L13.1251 31.875L13.5001 29.775L12.0001 28.2L2.92508 19.2L15.3751 17.325L17.5501 17.025L18.5251 15L24.0001 3.59999ZM24.0001 0.75C22.6501 0.75 21.4501 1.49998 20.8501 2.69998L15.4501 13.95L2.92508 15.825C1.65008 15.975 0.600083 16.875 0.150083 18.075C-0.224917 19.275 0.0750871 20.625 0.975087 21.525L10.1251 30.675L8.02508 43.35C7.80008 44.625 8.32509 45.9 9.45009 46.65C10.0501 47.1 10.7251 47.25 11.4001 47.25C12.0001 47.25 12.6001 47.1 13.1251 46.875L24.0001 40.95L34.8751 46.875C35.4001 47.1 36.0001 47.25 36.6001 47.25C37.2751 47.25 37.9501 47.1 38.5501 46.65C39.6751 45.9 40.2001 44.625 39.9751 43.35L37.8751 30.675L47.0251 21.525C47.9251 20.625 48.2251 19.275 47.8501 18.075C47.4001 16.875 46.3501 15.975 45.0751 15.825L32.5501 13.95L27.1501 2.69998C26.5501 1.49998 25.3501 0.75 24.0001 0.75Z" fill="#333399"/>
</svg>
