<svg width="48" height="48" viewBox="0 0 48 48" fill="none" xmlns="http://www.w3.org/2000/svg">
<path fill-rule="evenodd" clip-rule="evenodd" d="M41.925 22.5H46.5C47.325 22.5 48 23.175 48 24C48 24.825 47.325 25.5 46.5 25.5H41.925C41.25 34.275 34.275 41.25 25.5 41.925V46.5C25.5 47.325 24.825 48 24 48C23.175 48 22.5 47.325 22.5 46.5V41.925C13.725 41.25 6.74998 34.275 6.07498 25.5H1.5C0.675 25.5 0 24.825 0 24C0 23.175 0.675 22.5 1.5 22.5H6.07498C6.74998 13.725 13.725 6.74998 22.5 6.07498V1.5C22.5 0.675 23.175 0 24 0C24.825 0 25.5 0.675 25.5 1.5V6.07498C34.275 6.74998 41.25 13.725 41.925 22.5ZM38.925 25.5H25.5V38.925C32.625 38.25 38.25 32.625 38.925 25.5ZM9.07498 25.5C9.74998 32.625 15.375 38.25 22.5 38.925V25.5H9.07498ZM9.07498 22.5H22.5V9.07498C15.45 9.74998 9.74998 15.375 9.07498 22.5ZM38.925 22.5C38.25 15.375 32.625 9.74998 25.5 9.07498V22.5H38.925Z" fill="#333399"/>
</svg>
