<svg width="48" height="48" viewBox="0 0 48 48" fill="none" xmlns="http://www.w3.org/2000/svg">
<path d="M44 24H39.04C38.1659 23.9981 37.3153 24.2826 36.6182 24.8099C35.9212 25.3373 35.416 26.0784 35.18 26.92L30.48 43.64C30.4497 43.7439 30.3865 43.8351 30.3 43.9C30.2135 43.9649 30.1082 44 30 44C29.8918 44 29.7865 43.9649 29.7 43.9C29.6135 43.8351 29.5503 43.7439 29.52 43.64L18.48 4.36C18.4497 4.25614 18.3865 4.16491 18.3 4.1C18.2135 4.03509 18.1082 4 18 4C17.8918 4 17.7865 4.03509 17.7 4.1C17.6135 4.16491 17.5503 4.25614 17.52 4.36L12.82 21.08C12.5849 21.9183 12.0828 22.657 11.3897 23.184C10.6967 23.711 9.85064 23.9975 8.98 24H4" stroke="#333399" stroke-width="3" stroke-linecap="round" stroke-linejoin="round"/>
</svg>
